<svg xmlns="http://www.w3.org/2000/svg" width="512" height="512" viewBox="0 0 512 512" version="1.1">
	<path d="M 165.500 132.524 C 138.744 156.836, 118.373 176.707, 119.278 177.611 C 119.511 177.844, 125.024 177.568, 131.531 176.997 C 138.131 176.419, 143.740 176.340, 144.220 176.820 C 144.700 177.300, 144.289 178.629, 143.290 179.827 C 142.019 181.351, 134.106 184.332, 116 190.107 C 101.975 194.581, 90.145 198.565, 89.710 198.960 C 89.276 199.356, 89.726 200.630, 90.710 201.791 C 92.219 203.570, 95.247 204.294, 109.971 206.393 C 123.588 208.334, 127.727 209.274, 128.736 210.654 C 129.737 212.023, 129.971 218.566, 129.766 239.441 L 129.500 266.457 117.500 270.747 C 96.570 278.229, 57 294.109, 57 295.027 C 57 296.198, 61.455 296.827, 73.226 297.315 C 81.560 297.661, 83.206 298.017, 84.726 299.805 C 85.878 301.160, 88.604 302.263, 92.500 302.950 C 95.956 303.560, 99.030 304.724, 99.750 305.695 C 100.691 306.966, 101 315.610, 101 340.691 C 101 372.667, 100.920 374.080, 99 376 C 97.900 377.100, 96.366 378, 95.592 378 C 93.710 378, 87.379 366.316, 84.674 357.850 C 83.478 354.107, 82.216 351.034, 81.869 351.022 C 81.522 351.010, 80.701 353.137, 80.045 355.750 C 79.389 358.363, 77.576 362.750, 76.016 365.500 C 74.456 368.250, 72.647 372.503, 71.997 374.952 C 71.327 377.472, 69.118 381.331, 66.907 383.843 C 64.001 387.145, 63 389.152, 63 391.681 C 63 393.612, 62.053 396.362, 60.808 398.045 L 58.617 401.010 60.626 403.755 C 62.048 405.697, 64.862 407.234, 70.244 409.010 C 74.429 410.390, 78.121 411.787, 78.448 412.115 C 78.776 412.443, 75.044 414.141, 70.155 415.890 C 65.266 417.639, 58.619 420.654, 55.383 422.590 C 49.388 426.178, 44.238 430.572, 45.063 431.396 C 45.314 431.648, 56.091 431.417, 69.010 430.883 C 102.104 429.515, 101.570 429.503, 141.965 432.503 C 170.309 434.608, 178.521 434.937, 178.840 433.981 C 179.644 431.569, 183.038 429, 185.420 429 C 186.751 429, 204.864 433.232, 225.670 438.404 C 246.477 443.576, 268 448.785, 273.500 449.981 L 283.500 452.154 316 446.070 C 356.745 438.443, 421.762 427.286, 433 425.994 C 437.675 425.456, 447.326 425.013, 454.446 425.008 L 467.392 425 464 421.500 L 460.608 418 448.282 418 C 436.058 418, 435.948 417.979, 434.801 415.463 C 433.207 411.964, 434.625 410.851, 445 407.459 C 454.132 404.474, 460 400.014, 460 396.060 C 460 394.883, 459.100 392.156, 458 390 C 456.900 387.844, 455.993 384.824, 455.985 383.290 C 455.963 379.017, 453.734 375.462, 451.244 375.728 C 449.139 375.954, 449.133 375.900, 450.738 371.568 L 452.365 367.180 449.053 363.407 C 445.517 359.380, 438.601 345.270, 436.723 338.250 C 436.097 335.913, 435.341 334.001, 435.043 334.003 C 434.744 334.004, 433.266 337.500, 431.757 341.772 C 428.137 352.023, 420.148 365.548, 418.617 364.017 C 417.844 363.245, 417.500 353.653, 417.500 332.870 C 417.500 305.236, 417.642 302.736, 419.279 301.538 C 420.258 300.822, 425.208 299.463, 430.279 298.516 C 435.351 297.570, 440.726 295.937, 442.224 294.887 C 444.019 293.630, 447.524 292.761, 452.507 292.340 C 456.665 291.988, 460.265 291.380, 460.507 290.988 C 461.036 290.132, 445.674 282.791, 410 266.852 C 381.527 254.131, 374.349 250.721, 377.500 251.417 C 379.908 251.948, 397.327 253.682, 408.750 254.527 C 417.911 255.205, 419.174 254.251, 414.500 250.187 L 412 248.013 412 223.115 L 412 198.217 415.750 196.738 C 417.813 195.925, 426.807 193.514, 435.738 191.380 C 455.568 186.642, 455.957 186.023, 442.750 180.224 C 424.816 172.349, 385.169 156.171, 356.500 145.030 C 340.550 138.831, 323.930 132.253, 319.567 130.411 L 311.634 127.062 298.403 129.720 L 285.173 132.377 266.336 127.115 C 255.976 124.221, 241.567 120.086, 234.316 117.926 C 211.089 111.008, 196.625 106.999, 195.042 107.040 C 194.194 107.063, 180.900 118.530, 165.500 132.524 M 197.848 133.250 C 176.779 151.162, 162.048 164.381, 162.572 164.906 C 162.886 165.219, 167.653 166.903, 173.165 168.646 L 183.187 171.816 209.344 163.003 C 223.730 158.156, 239.213 152.758, 243.750 151.007 L 252 147.825 252 143.936 C 252 139.379, 250.222 137.903, 242.500 136.051 C 239.750 135.391, 230.819 132.860, 222.654 130.426 C 214.488 127.992, 207.486 126, 207.092 126 C 206.698 126, 202.539 129.262, 197.848 133.250 M 244 171.369 C 244 172.872, 248.932 173.971, 255.750 173.989 C 261.774 174.005, 261.016 172.480, 254.333 171.138 C 246.846 169.634, 244 169.698, 244 171.369 M 215.500 175.152 C 205.600 177.345, 189.400 180.831, 179.500 182.898 C 169.600 184.966, 161.629 187.072, 161.786 187.579 C 162.413 189.602, 174.798 187.910, 198.820 182.521 C 232.742 174.910, 237.289 173.711, 237.762 172.250 C 238.373 170.364, 235.314 170.762, 215.500 175.152 M 286.642 205.202 C 286.237 225.519, 286.333 239.733, 286.877 240.277 C 287.430 240.830, 294.195 239.374, 303.985 236.596 C 312.892 234.068, 320.911 232, 321.805 232 C 322.699 232, 327.355 234.265, 332.152 237.033 L 340.872 242.066 371.838 244.678 C 388.869 246.114, 403.523 247.013, 404.402 246.676 C 405.812 246.135, 406 242.848, 406 218.723 C 406 198.404, 405.679 190.955, 404.750 189.720 C 403.787 188.439, 395.471 186.806, 368.506 182.606 C 349.260 179.607, 333.312 177.355, 333.066 177.601 C 331.138 179.529, 338.303 181.292, 364.309 185.290 C 380.154 187.725, 393.572 190.172, 394.127 190.727 C 394.807 191.407, 394.567 193.006, 393.394 195.618 C 390.830 201.329, 390.086 232.461, 392.402 237.104 C 394.525 241.359, 394.452 244, 392.212 244 C 391.229 244, 385.041 243.307, 378.462 242.461 C 371.883 241.614, 361.100 240.293, 354.500 239.524 C 337.804 237.581, 334.175 236.919, 333.121 235.625 C 332.617 235.006, 332.007 224.375, 331.766 212 C 331.362 191.319, 331.138 189.027, 328.985 183.647 C 327.569 180.107, 325.826 177.464, 324.572 176.957 C 323.432 176.496, 315.525 175.183, 307 174.039 C 298.475 172.895, 290.560 171.753, 289.411 171.501 C 287.334 171.045, 287.317 171.242, 286.642 205.202 M 267.851 172.707 C 265.664 173.042, 264.824 174.123, 263.041 178.889 C 260.981 184.400, 260.890 186.094, 261.071 215.832 C 261.175 232.975, 261.623 247, 262.068 247 C 264.349 247, 276.653 243.703, 277.741 242.800 C 278.707 241.998, 279 233.999, 279 208.459 C 279 190.147, 278.727 174.452, 278.393 173.582 C 277.792 172.016, 274.256 171.723, 267.851 172.707 M 249.479 186.195 C 249.195 186.934, 249.084 198.554, 249.232 212.019 C 249.497 236.183, 249.528 236.504, 251.642 236.805 C 253.726 237.103, 253.804 236.693, 254.508 221.667 C 255.444 201.706, 254.229 185.659, 251.747 185.186 C 250.783 185.002, 249.762 185.456, 249.479 186.195 M 239.667 186.667 C 238.551 187.783, 238.876 236, 240 236 C 240.640 236, 241 227, 241 211 C 241 197.250, 240.850 186, 240.667 186 C 240.483 186, 240.033 186.300, 239.667 186.667 M 214.500 192.571 C 206.800 194.428, 198.813 196.427, 196.750 197.013 L 193 198.080 193 221.040 C 193 238.742, 193.286 244, 194.250 243.999 C 194.938 243.998, 203.306 242.648, 212.847 240.999 C 222.388 239.350, 230.375 238, 230.597 238 C 231.253 238, 231.056 192.309, 230.393 190.582 C 230.059 189.712, 229.497 189.044, 229.143 189.098 C 228.789 189.152, 222.200 190.715, 214.500 192.571 M 338.607 194.582 C 338.273 195.452, 338 203.295, 338 212.010 C 338 230.004, 338.371 231, 345.071 231 L 349 231 349 212.975 L 349 194.950 346.435 193.975 C 342.637 192.531, 339.295 192.790, 338.607 194.582 M 158.667 196.667 C 158.300 197.033, 158 209.633, 158 224.667 L 158 252 161 252 L 164 252 164 224.607 C 164 200.551, 163.807 197.140, 162.418 196.607 C 160.385 195.827, 159.492 195.841, 158.667 196.667 M 356.648 201.250 C 356.301 204.137, 356.013 211.697, 356.009 218.050 C 356 229.968, 356.610 232, 360.200 232 C 361.867 232, 362 230.667, 362 214 L 362 196 359.639 196 C 357.538 196, 357.209 196.577, 356.648 201.250 M 370.227 215.741 L 370.500 233.482 375.248 234.349 C 383.211 235.802, 383 236.271, 383 217.129 L 383 200.196 379.851 199.098 C 378.119 198.494, 375.183 198, 373.328 198 L 369.954 198 370.227 215.741 M 171.457 204.317 C 171.137 205.591, 171.016 215.283, 171.188 225.855 C 171.444 241.614, 171.770 245.247, 173 246.022 C 173.825 246.542, 174.950 246.825, 175.500 246.652 C 176.686 246.277, 177.420 217.477, 176.478 208.250 C 175.943 202.998, 175.537 202, 173.939 202 C 172.785 202, 171.810 202.911, 171.457 204.317 M 139.750 203.706 L 136 204.121 136 233.698 L 136 263.276 142.487 262.612 C 153.010 261.533, 152.066 264.634, 151.765 232.137 L 151.500 203.500 147.500 203.396 C 145.300 203.338, 141.813 203.478, 139.750 203.706 M 185.419 223 C 185.419 233.725, 185.566 238.113, 185.746 232.750 C 185.925 227.387, 185.925 218.613, 185.746 213.250 C 185.566 207.887, 185.419 212.275, 185.419 223 M 207.500 249.943 C 162.138 257.410, 164 257.039, 164 258.590 C 164 260.649, 166.421 260.430, 192.222 256.033 C 205.025 253.851, 220.225 251.372, 226 250.525 C 240.646 248.377, 242 248.030, 242 246.421 C 242 244.386, 240.043 244.586, 207.500 249.943 M 218 275.173 C 189.162 278.246, 142.151 284.186, 140.250 284.997 C 139.012 285.525, 138 286.642, 138 287.479 C 138 289.273, 141.347 289.414, 151 288.025 C 154.575 287.511, 173.907 285.249, 193.961 282.999 C 229.028 279.063, 234.870 277.980, 235.759 275.250 C 236.234 273.792, 231.167 273.770, 218 275.173 M 247 290.528 C 246.175 290.703, 236.606 291.870, 225.736 293.123 C 214.866 294.375, 205.511 295.684, 204.947 296.033 C 204.251 296.463, 204.248 297.521, 204.936 299.333 C 205.700 301.342, 206.635 301.998, 208.725 301.990 C 214.844 301.968, 250.233 297.167, 251.168 296.232 C 251.719 295.681, 252.019 294.171, 251.835 292.876 C 251.509 290.583, 250.062 289.881, 247 290.528 M 258.663 317.250 C 258.300 331.688, 258.003 354.206, 258.002 367.290 L 258 391.081 266.250 390.790 L 274.500 390.500 274.800 347 C 274.965 323.075, 274.817 300.688, 274.470 297.250 L 273.841 291 266.581 291 L 259.321 291 258.663 317.250 M 282.014 338.750 C 282.021 365.012, 282.300 387.516, 282.632 388.757 L 283.237 391.015 346.869 390.757 L 410.500 390.500 410.762 351.897 C 410.905 330.665, 410.680 310.190, 410.262 306.397 L 409.500 299.500 400.500 299.234 L 391.500 298.968 388.271 304.875 L 385.043 310.781 384.947 332.141 C 384.895 343.888, 385.165 354.304, 385.547 355.287 C 385.930 356.270, 387.538 357.744, 389.121 358.563 C 391.762 359.928, 392 360.505, 392 365.537 L 392 371.023 352.750 370.762 L 313.500 370.500 313.195 365.166 C 312.929 360.519, 313.219 359.526, 315.445 357.464 L 318 355.095 318 330.317 L 318 305.539 314.750 298.907 L 311.500 292.276 302 291.643 C 296.775 291.295, 290.137 291.008, 287.250 291.005 L 282 291 282.014 338.750 M 319 293.551 C 319 296.527, 322.639 297.306, 344.757 299.062 C 357.266 300.055, 370.229 301.149, 373.565 301.494 C 378.704 302.024, 380.003 301.818, 382.065 300.144 L 384.500 298.169 382 297.631 C 380.625 297.335, 367.125 296.163, 352 295.026 C 336.875 293.890, 323.262 292.822, 321.750 292.653 C 320.102 292.469, 319 292.829, 319 293.551 M 187.520 297.869 C 184.193 298.396, 183.394 298.993, 182.654 301.500 C 182.168 303.150, 181.147 305.978, 180.385 307.784 C 179.335 310.273, 179 316.855, 179 334.975 C 179 348.124, 179.399 359.129, 179.887 359.430 C 181.144 360.207, 182.226 366.713, 181.486 369.044 C 180.891 370.920, 179.791 371, 154.526 371 L 128.188 371 127.500 376 C 127.122 378.750, 127.122 383.250, 127.500 386 L 128.188 391 166.116 391 L 204.044 391 203.762 350.250 L 203.481 309.500 200.799 303.500 C 198.334 297.987, 197.848 297.489, 194.808 297.369 C 192.989 297.297, 189.709 297.522, 187.520 297.869 M 147.551 302.222 C 129.643 304.313, 125.991 305.161, 126.015 307.225 C 126.059 310.881, 127.159 310.976, 145.537 308.910 C 168.790 306.296, 173.399 305.211, 173.820 302.250 C 174.115 300.170, 173.775 300.009, 169.320 300.122 C 166.669 300.188, 156.873 301.133, 147.551 302.222 M 107.712 308.622 C 107.320 309.013, 107 327.700, 107 350.148 L 107 390.962 109.554 391.603 C 111.805 392.168, 119.019 391.573, 119.385 390.793 C 119.461 390.632, 119.293 372.050, 119.011 349.500 L 118.500 308.500 113.462 308.205 C 110.690 308.043, 108.103 308.230, 107.712 308.622 M 327.666 310.477 C 326.227 311.916, 326 314.762, 326 331.371 C 326 344.994, 326.350 350.950, 327.200 351.800 C 327.860 352.460, 330.753 353, 333.629 353 C 341.968 353, 342.003 352.911, 341.985 331.179 C 341.976 320.905, 341.639 311.983, 341.235 311.352 C 340.831 310.720, 337.987 309.890, 334.916 309.507 C 330.395 308.944, 329.015 309.128, 327.666 310.477 M 232.004 310.742 C 230.081 310.974, 227.944 311.632, 227.254 312.204 C 226.291 313.004, 226 321.685, 226 349.656 L 226 386.068 236.750 385.784 L 247.500 385.500 247.779 350 C 247.932 330.475, 247.811 313.488, 247.510 312.250 C 247.015 310.217, 246.409 310.015, 241.231 310.160 C 238.079 310.248, 233.927 310.510, 232.004 310.742 M 350.501 314.250 C 350.177 316.038, 350.044 325.375, 350.206 335 L 350.500 352.500 359 352.500 L 367.500 352.500 367.772 333.003 C 368.091 310.222, 368.442 311, 357.854 311 L 351.091 311 350.501 314.250 M 210.607 313.582 C 210.273 314.452, 210 330.395, 210 349.010 C 210 378.889, 210.190 383.047, 211.621 384.479 C 212.513 385.370, 213.976 385.959, 214.871 385.787 C 216.333 385.505, 216.527 381.905, 216.763 350.695 C 216.936 327.856, 216.666 315.245, 215.978 313.959 C 214.718 311.605, 211.453 311.376, 210.607 313.582 M 376.413 330.500 C 376.414 340.400, 376.564 344.315, 376.746 339.199 C 376.928 334.084, 376.927 325.984, 376.744 321.199 C 376.561 316.415, 376.412 320.600, 376.413 330.500 M 168.649 319.703 C 168.304 321.791, 168.017 330.152, 168.011 338.281 C 168.002 350.919, 168.232 353.152, 169.601 353.677 C 170.481 354.015, 171.605 353.663, 172.098 352.896 C 172.592 352.128, 172.884 343.631, 172.747 334.013 C 172.533 318.850, 172.286 316.485, 170.888 316.216 C 169.714 315.991, 169.107 316.937, 168.649 319.703 M 147.028 319.113 C 145.669 319.656, 144.213 320.640, 143.794 321.300 C 142.893 322.717, 142.755 348.483, 143.630 351.750 C 144.180 353.803, 144.828 354, 151.010 354 C 156.266 354, 157.922 353.645, 158.393 352.418 C 159.179 350.371, 159.159 323.195, 158.370 320.250 C 157.864 318.362, 157.102 318.010, 153.633 318.063 C 151.360 318.098, 148.388 318.571, 147.028 319.113 M 129.750 321.106 C 128.194 321.989, 128 323.931, 128 338.613 L 128 355.127 131.250 354.813 L 134.500 354.500 134.146 338.500 C 133.776 321.824, 133.113 319.198, 129.750 321.106 M 321.165 361.791 C 320.142 362.505, 320.375 362.868, 322.165 363.348 C 326.202 364.428, 385 364.103, 385 363 C 385 362.380, 379.581 361.999, 370.750 361.997 C 362.913 361.995, 348.850 361.739, 339.500 361.426 C 329.602 361.096, 321.942 361.248, 321.165 361.791 M 142.500 363 C 127.718 363.573, 127.830 363.585, 150.250 363.791 C 164.889 363.925, 173 363.643, 173 363 C 173 361.963, 169.244 361.963, 142.500 363 M 125.250 397.649 C 123.721 397.982, 123 398.867, 123 400.411 C 123 402.677, 123.052 402.684, 143.250 403.339 C 154.387 403.700, 183.427 403.996, 207.781 403.997 C 247.189 404, 252.129 403.826, 252.668 402.422 C 254.252 398.295, 253.274 398.222, 189 397.679 C 155.175 397.393, 126.487 397.379, 125.250 397.649 M 104.510 400.955 C 104.141 402.632, 104.159 408.504, 104.549 414.002 C 105.097 421.740, 105.585 424, 106.707 424 C 107.504 424, 113.408 424.433, 119.828 424.963 C 149.109 427.379, 175.144 429.189, 175.501 428.833 C 175.716 428.618, 175.538 427.870, 175.106 427.171 C 174.256 425.796, 141.875 423.080, 125.719 423.028 C 118.821 423.006, 116.813 422.676, 116.357 421.487 C 116.037 420.655, 116.265 419.385, 116.863 418.665 C 117.593 417.785, 117.712 414.266, 117.225 407.928 L 116.500 398.500 110.840 398.203 C 105.256 397.910, 105.171 397.947, 104.510 400.955 M 259.667 398.667 C 259.300 399.033, 259 404.902, 259 411.709 L 259 424.084 266.750 423.792 L 274.500 423.500 274.785 412.012 C 275.031 402.078, 274.836 400.354, 273.344 399.262 C 271.557 397.956, 260.844 397.489, 259.667 398.667 M 284.750 398.716 L 282 399.133 282 411.505 L 282 423.877 318.250 423.329 C 338.188 423.028, 362.600 422.449, 372.500 422.043 C 388.127 421.401, 385.326 421.284, 351.250 421.152 L 312 421 312 414.559 C 312 411.016, 312.337 407.912, 312.750 407.660 C 313.163 407.408, 332.175 407.047, 355 406.858 L 396.500 406.514 396.800 412.257 L 397.100 418 404.050 418 L 411 418 411 408 L 411 398 349.250 398.150 C 315.288 398.232, 286.262 398.487, 284.750 398.716 M 418 412.500 L 418 418 423.031 418 C 426.585 418, 428.232 417.559, 428.639 416.498 C 429.755 413.590, 428.046 410.250, 424.610 408.619 C 418.763 405.845, 418 406.293, 418 412.500 M 122.176 409.698 C 122.452 411.144, 123.668 411.560, 128.343 411.802 C 133.500 412.070, 134.128 411.899, 133.824 410.302 C 133.548 408.856, 132.332 408.440, 127.657 408.198 C 122.500 407.930, 121.872 408.101, 122.176 409.698 M 141 409.846 C 141 411.896, 141.447 412, 150.250 412.004 C 155.338 412.006, 165.238 412.301, 172.250 412.658 C 184.839 413.300, 185 413.281, 185 411.154 C 185 409.104, 184.553 409, 175.750 408.996 C 170.662 408.994, 160.762 408.699, 153.750 408.342 C 141.161 407.700, 141 407.719, 141 409.846 M 191 410.986 C 191 412.962, 191.592 413, 222.073 413 C 251.129 413, 253.125 412.886, 252.810 411.250 C 252.499 409.636, 250.093 409.480, 221.737 409.236 C 191.506 408.975, 191 409.004, 191 410.986 M 125.500 417.923 C 128.529 419.286, 182.164 421.236, 183.372 420.028 C 183.919 419.481, 184.022 418.688, 183.601 418.267 C 183.179 417.845, 169.484 417.393, 153.167 417.262 C 134.980 417.115, 124.274 417.371, 125.500 417.923 M 189 421.355 C 189 423.634, 189.321 423.727, 199.005 424.260 C 204.507 424.564, 218.907 424.561, 231.005 424.255 L 253 423.698 253 421.349 L 253 419 221 419 L 189 419 189 421.355" stroke="none" fill="black" fill-rule="evenodd"/>
</svg>