<?xml version="1.0" encoding="utf-8" ?>
<svg xmlns="http://www.w3.org/2000/svg" xmlns:xlink="http://www.w3.org/1999/xlink" width="1024" height="1024">
	<path fill="#7FB169" d="M193.289 784.971C194.658 791.531 197.001 812.291 200.071 816.424L200.64 816.43C202.514 808.198 198.361 793.971 196.533 785.445C212.094 786.037 228.106 789.875 240.109 800.348C245.045 804.655 248.386 810.906 248.67 817.5C248.951 824.053 246.273 830.104 241.957 834.926C229.297 849.067 207.642 854.36 189.434 855.294C172.018 856.187 152.3 852.051 139.135 839.943C133.094 834.387 128.5 826.766 128.271 818.378C128.093 811.87 130.844 806.015 135.377 801.436C149.858 786.808 173.994 785.117 193.289 784.971Z"/>
	<path fill="#EDC2A8" d="M162.958 376.174C157.351 365.299 150.536 355.154 145.181 344.096C131.017 314.848 119.498 280.335 130.821 248.254C143.124 213.398 178.255 189.149 210.483 173.99C255.221 152.948 319.011 137.18 366.841 154.696C404.124 168.35 421.98 195.942 437.979 230.258L305.131 245.475L274.977 248.865C265.747 249.841 256.328 250.178 247.418 253.005C240.356 255.246 233.965 260.395 229.409 266.15C219.436 278.746 220.967 295.023 220.954 310.088L220.791 337.052C206.705 344.439 194.054 354.198 181.167 363.439C175.156 367.75 168.78 371.624 162.958 376.174Z"/>
	<path fill="#78C6D3" d="M870.267 763.703C886.585 761.212 913.306 767.197 928.519 773.807C944.852 780.904 962.557 794.037 969.228 811.173C972.492 819.557 972.353 828.347 968.699 836.571C962.524 850.47 948.703 860.438 935.783 867.56C923.305 874.437 909.565 879.567 895.716 882.884C852.43 893.25 817.713 882.584 775.36 876.542C753.621 873.441 731.974 872.294 710.049 873.694C674.563 875.961 639.908 892.441 607.144 904.999C595.991 909.188 584.051 912.383 572.252 914.055C553.072 916.774 526.789 916.142 510.786 903.957C506.08 900.373 502 895.795 501.335 889.684C500.68 883.664 503.406 877.822 507.209 873.303C508.407 871.881 509.727 870.566 511.132 869.35C529.695 853.287 563.265 850.509 586.806 847.221C598.534 845.583 610.263 843.853 621.937 841.861C641.616 838.502 661.312 834.3 680.465 828.639C707.072 820.774 733.119 811.125 758.729 800.479C795.446 785.216 830.017 767.247 870.267 763.703Z"/>
	<path fill="#7FB169" d="M180.237 700.971C144.108 681.019 115.098 656.258 91.894 621.885C66.575 584.38 48.9444 536.009 57.9615 490.469C68.6801 436.336 120.312 404.892 162.835 376.544C179.876 406.416 200.037 433.927 219.535 462.163C220.343 466.288 219.728 471.408 219.646 475.621L219.039 504.159C218.791 523.196 219.911 545.232 218.455 563.808C218.397 564.541 218.374 564.35 217.932 565.147C220.149 575.945 219.376 607.065 216.617 617.52C216.721 617.732 216.829 617.942 216.931 618.156C217.418 619.173 217.757 619.648 217.421 620.736C217.475 620.978 217.532 621.22 217.584 621.462C218.608 626.29 218.239 631.736 218.789 636.681C220.092 648.396 227.697 659.157 237.344 665.648C250.187 674.29 264.117 675.057 278.87 672.06C293.2 669.148 307.474 666.19 321.861 663.562C327.992 662.442 334.66 660.748 340.873 660.612C341.144 660.762 341.411 660.919 341.685 661.062C344.629 662.596 348.725 663.004 351.983 663.666C363.238 665.954 380.193 668.799 384.953 681.028C385.524 682.494 385.644 684.066 385.753 685.62C384.533 691.146 380.134 694.898 375.568 697.838C351.362 713.428 287.379 721.915 257.951 721.479C247.619 721.326 237.318 720.027 227.232 717.799C224.672 717.233 222.136 716.555 219.609 715.862C212.163 730.267 202.184 743.979 187.962 752.283C190.788 763.345 193.86 774.344 196.533 785.445C198.361 793.971 202.514 808.198 200.64 816.43L200.071 816.424C197.001 812.291 194.658 791.531 193.289 784.971C190.528 775.386 188.35 765.585 185.629 755.963C175.191 755.975 164.762 755.203 155.074 750.987C140.562 744.672 131.348 731.784 125.628 717.479C133.868 713.674 144.324 712.599 153.155 714.686C167.845 718.159 175.912 728.216 183.464 740.497C183.809 727.449 181.724 713.934 180.237 700.971ZM140.014 473.817C138.45 482.104 138.357 490.345 138.195 498.753C137.609 529.05 143.181 550.187 160.427 575.44C163.122 579.387 165.941 583.426 169.429 586.722C170.009 595.915 170.325 605.201 171.66 614.319C152.676 584.996 145.675 582.118 117.791 563.841C113.024 560.716 106.725 555.161 101.339 553.727C101.147 553.676 100.947 553.656 100.751 553.621L99.9976 554.22C99.6682 557.481 103.681 563.78 104.991 567.035C114.941 591.762 120.363 609.732 137.834 631.185C147.827 643.455 163.409 660.995 176.434 669.411C178.107 679.883 178.591 690.501 180.237 700.971C181.724 713.934 183.809 727.449 183.464 740.497C175.912 728.216 167.845 718.159 153.155 714.686C144.324 712.599 133.868 713.674 125.628 717.479C131.348 731.784 140.562 744.672 155.074 750.987C164.762 755.203 175.191 755.975 185.629 755.963C188.35 765.585 190.528 775.386 193.289 784.971C194.658 791.531 197.001 812.291 200.071 816.424L200.64 816.43C202.514 808.198 198.361 793.971 196.533 785.445C193.86 774.344 190.788 763.345 187.962 752.283C202.184 743.979 212.163 730.267 219.609 715.862C222.136 716.555 224.672 717.233 227.232 717.799C237.318 720.027 247.619 721.326 257.951 721.479C287.379 721.915 351.362 713.428 375.568 697.838C380.134 694.898 384.533 691.146 385.753 685.62C385.644 684.066 385.524 682.494 384.953 681.028C380.193 668.799 363.238 665.954 351.983 663.666C348.725 663.004 344.629 662.596 341.685 661.062C341.411 660.919 341.144 660.762 340.873 660.612C334.66 660.748 327.992 662.442 321.861 663.562C307.474 666.19 293.2 669.148 278.87 672.06C264.117 675.057 250.187 674.29 237.344 665.648C227.697 659.157 220.092 648.396 218.789 636.681C218.239 631.736 218.608 626.29 217.584 621.462C217.532 621.22 217.475 620.978 217.421 620.736C217.757 619.648 217.418 619.173 216.931 618.156C216.829 617.942 216.721 617.732 216.617 617.52C219.376 607.065 220.149 575.945 217.932 565.147C200.101 585.612 185.784 606.963 176.502 632.615C174.561 617.656 173.412 602.8 172.472 587.756C188.274 562.548 200.872 535.562 208.906 506.888C210.043 502.83 212.496 496.648 211.635 492.531L210.946 491.87C206.973 492.593 196.036 508.401 193.331 512.287C184.289 525.275 176.318 542.006 173.854 557.826C171.183 531.299 166.578 510.424 151.284 488.017C147.88 483.031 144.441 477.958 140.014 473.817Z"/>
	<path d="M140.014 473.817C144.441 477.958 147.88 483.031 151.284 488.017C166.578 510.424 171.183 531.299 173.854 557.826C176.318 542.006 184.289 525.275 193.331 512.287C196.036 508.401 206.973 492.593 210.946 491.87L211.635 492.531C212.496 496.648 210.043 502.83 208.906 506.888C200.872 535.562 188.274 562.548 172.472 587.756C173.412 602.8 174.561 617.656 176.502 632.615C185.784 606.963 200.101 585.612 217.932 565.147C220.149 575.945 219.376 607.065 216.617 617.52C216.721 617.732 216.829 617.942 216.931 618.156C217.418 619.173 217.757 619.648 217.421 620.736C217.475 620.978 217.532 621.22 217.584 621.462C218.608 626.29 218.239 631.736 218.789 636.681C220.092 648.396 227.697 659.157 237.344 665.648C250.187 674.29 264.117 675.057 278.87 672.06C293.2 669.148 307.474 666.19 321.861 663.562C327.992 662.442 334.66 660.748 340.873 660.612C341.144 660.762 341.411 660.919 341.685 661.062C344.629 662.596 348.725 663.004 351.983 663.666C363.238 665.954 380.193 668.799 384.953 681.028C385.524 682.494 385.644 684.066 385.753 685.62C384.533 691.146 380.134 694.898 375.568 697.838C351.362 713.428 287.379 721.915 257.951 721.479C247.619 721.326 237.318 720.027 227.232 717.799C224.672 717.233 222.136 716.555 219.609 715.862C212.163 730.267 202.184 743.979 187.962 752.283C190.788 763.345 193.86 774.344 196.533 785.445C198.361 793.971 202.514 808.198 200.64 816.43L200.071 816.424C197.001 812.291 194.658 791.531 193.289 784.971C190.528 775.386 188.35 765.585 185.629 755.963C175.191 755.975 164.762 755.203 155.074 750.987C140.562 744.672 131.348 731.784 125.628 717.479C133.868 713.674 144.324 712.599 153.155 714.686C167.845 718.159 175.912 728.216 183.464 740.497C183.809 727.449 181.724 713.934 180.237 700.971C178.591 690.501 178.107 679.883 176.434 669.411C163.409 660.995 147.827 643.455 137.834 631.185C120.363 609.732 114.941 591.762 104.991 567.035C103.681 563.78 99.6682 557.481 99.9976 554.22L100.751 553.621C100.947 553.656 101.147 553.676 101.339 553.727C106.725 555.161 113.024 560.716 117.791 563.841C145.675 582.118 152.676 584.996 171.66 614.319C170.325 605.201 170.009 595.915 169.429 586.722C165.941 583.426 163.122 579.387 160.427 575.44C143.181 550.187 137.609 529.05 138.195 498.753C138.357 490.345 138.45 482.104 140.014 473.817ZM137.552 717.688C134.921 718.075 132.285 718.421 129.689 719.004C136.35 732.167 145.994 745.322 160.611 750.162C165.797 751.88 177.452 754.712 182.572 752.97L182.831 752.293C180.701 749.953 162.258 742.75 157.658 740.187C152.576 737.417 145.671 733.955 142.192 729.172L142.045 728.132C143.799 726.665 145.846 725.648 147.773 724.433C160.805 725.003 167.184 728.856 177.504 736.43C169.973 726.651 162.824 719.195 149.914 717.587C145.787 717.073 141.685 717.408 137.552 717.688ZM205.945 711.142C200.263 722.799 195.022 734.484 190.088 746.481C201.185 738.638 210.569 726.961 216.853 714.971C213.231 713.654 209.586 712.404 205.945 711.142ZM192.934 705.844C187.102 718.631 184.965 729.503 187.701 743.52C193.339 732.747 197.399 721.211 203.064 710.396C199.642 709.165 196.256 707.351 192.934 705.844ZM145.915 727.569C154.505 736.12 169.056 744.067 180.541 747.768C176.738 739.476 168.835 732.757 160.303 729.621C155.414 727.825 150.953 728.111 145.915 727.569ZM183.39 702.033C183.943 707.595 184.553 713.144 184.696 718.735C186.132 713.95 187.86 709.219 190.234 704.81C187.968 703.85 185.674 702.951 183.39 702.033Z"/>
	<path fill="#7FB169" d="M192.934 705.844C201.701 690.94 213.657 678.372 226.869 667.332C225.65 683.713 224.25 699.991 216.853 714.971C213.231 713.654 209.586 712.404 205.945 711.142C209.332 703.129 216.876 694.998 218.215 686.338L217.647 686.141C211.015 691.474 206.826 702.838 203.064 710.396C199.642 709.165 196.256 707.351 192.934 705.844Z"/>
	<path fill="#7FB169" d="M206.948 499.425L207.425 500.059C207.659 503.607 205.796 508.078 204.763 511.515C197.268 536.458 185.868 558.206 173.578 581.053C173.324 580.681 173.171 580.524 173.08 580.026C172.396 576.251 173.839 570.043 174.464 566.248C178.971 538.902 189.629 520.291 206.948 499.425Z"/>
	<path fill="#7FB169" d="M142.064 480.433C142.726 481.021 142.623 480.877 143.076 481.424C165.439 508.42 173.479 541.552 170.305 576.082C167.865 567.466 151.04 510.088 147.727 506.887L146.967 507.037C146.516 508.551 146.861 509.278 147.22 510.795C154.075 534.941 162.595 558.526 169.187 582.764L168.75 582.218C143.354 550.211 137.477 520.396 142.064 480.433Z"/>
	<path fill="#7FB169" d="M217.405 569.407C218.916 571.718 218.162 600.849 217.985 605.512C217.158 627.339 194.591 643.606 179.761 657.268C190.041 633.92 202.13 612.538 216.066 591.222C215.044 590.535 215.04 590.486 213.822 590.585C206.491 596.071 182.943 643.739 178.16 653.929C177.704 649.339 177.377 644.903 177.94 640.308C181.115 614.368 201.931 589.574 217.405 569.407Z"/>
	<path fill="#7FB169" d="M104.924 559.337C116.746 565.056 139.515 579.675 149.117 588.931C154.028 593.665 158.423 599.07 162.455 604.571C175.432 622.273 174.512 633.376 174.852 654.58C163.977 631.367 149.998 609.184 131.587 591.188C128.304 587.98 124.668 584.122 120.456 582.16L119.412 582.657C119.432 582.882 119.434 583.109 119.471 583.332C119.872 585.74 122.542 587.288 124.343 588.691C144.864 606.943 168.002 638.904 175.406 665.513C154.9 647.362 134.832 627.102 122.39 602.389C115.455 588.613 110.396 573.744 104.924 559.337Z"/>
	<path fill="#7FB169" d="M217.421 620.736C217.475 620.978 217.532 621.22 217.584 621.462C218.608 626.29 218.239 631.736 218.789 636.681C220.092 648.396 227.697 659.157 237.344 665.648C250.187 674.29 264.117 675.057 278.87 672.06C293.2 669.148 307.474 666.19 321.861 663.562C327.992 662.442 334.66 660.748 340.873 660.612C341.144 660.762 341.411 660.919 341.685 661.062C344.629 662.596 348.725 663.004 351.983 663.666C363.238 665.954 380.193 668.799 384.953 681.028C385.524 682.494 385.644 684.066 385.753 685.62C384.533 691.146 380.134 694.898 375.568 697.838C351.362 713.428 287.379 721.915 257.951 721.479C247.619 721.326 237.318 720.027 227.232 717.799C224.672 717.233 222.136 716.555 219.609 715.862C227.011 696.967 229.329 682.719 229.444 662.655C213.218 672.743 200.128 688.634 190.234 704.81C187.968 703.85 185.674 702.951 183.39 702.033C180.287 690.227 179.895 674.153 178.888 661.734C193.14 649.225 206.297 636.155 217.421 620.736Z"/>
	<path fill="#7FB169" d="M439.363 230.017C439.516 229.965 439.669 229.914 439.82 229.859C446.112 227.567 452.361 223.297 458.225 219.994L494.002 199.733C520.284 184.948 546.049 169.32 572.973 155.691C635.818 123.877 715.666 95.9096 784.242 126.988C856.214 159.605 904.767 253.78 931.139 324.1C950.965 376.966 968.342 444.644 967.397 501.539C966.851 534.383 960.494 566.938 946.832 596.892C930.312 633.114 905.365 659.93 867.282 674.034C841.248 683.675 810.796 688.52 783.089 686.431C784.122 683.282 786.263 679.973 787.784 677.003C791.069 670.589 794.336 664.176 797.275 657.593C813.01 622.349 822.118 581.515 810.22 543.699C802.687 519.756 786.55 498.864 765.15 485.776C758.359 481.623 751.065 478.569 744.031 474.884C743.782 468.56 744.603 461.966 744.994 455.643L746.66 424.761L753.71 294.914L755.762 259.093C756.247 251.523 757.111 243.814 756.995 236.234C756.893 229.536 755.799 223.062 750.655 218.294C742.297 210.547 709.272 202.352 697.463 201.96C688.378 201.658 679.299 203.078 670.297 204.14L634.63 208.317L511.16 222.236L465.138 227.468C456.852 228.39 448.346 229.78 440.015 230.005L439.363 230.017Z"/>
	<path fill="#355247" d="M439.363 230.017L440.015 230.005C448.346 229.78 456.852 228.39 465.138 227.468L511.16 222.236L634.63 208.317L670.297 204.14C679.299 203.078 688.378 201.658 697.463 201.96C709.272 202.352 742.297 210.547 750.655 218.294C755.799 223.062 756.893 229.536 756.995 236.234C757.111 243.814 756.247 251.523 755.762 259.093L753.71 294.914L746.66 424.761L744.994 455.643C744.603 461.966 743.782 468.56 744.031 474.884C751.065 478.569 758.359 481.623 765.15 485.776C786.55 498.864 802.687 519.756 810.22 543.699C822.118 581.515 813.01 622.349 797.275 657.593C794.336 664.176 791.069 670.589 787.784 677.003C786.263 679.973 784.122 683.282 783.089 686.431C781.911 688.34 780.746 690.258 779.537 692.146C788.196 694.771 796.586 698.268 805.103 701.32C817.946 705.924 842.52 713.111 853.035 721.11C856.128 723.462 858.479 726.92 858.929 730.838C859.36 734.588 857.961 738.35 855.543 741.191C851.24 746.245 844.707 748.39 838.544 750.132C813.836 757.116 788.556 762.122 763.633 768.313L550.551 820.532L455.672 844.797L428.802 851.791C423.544 853.154 417.826 855.184 412.417 855.489C405.767 855.864 401.159 854.21 395.226 851.512C388.353 848.386 381.846 843.993 375.234 840.318L331.32 815.993L286.566 791.883C278.188 787.419 268.219 783.774 261.088 777.462C260.78 771.353 259.235 750.784 262.248 746.186C263.212 744.716 266.937 743.89 268.649 743.442C276.197 741.463 284.099 740.256 291.752 738.711L341.296 729.104L461.707 707.053C455.192 704.544 448.444 702.569 441.898 700.112C428.118 694.94 414.648 688.997 401.566 682.257C396.334 683.036 390.649 683.545 385.753 685.62C385.644 684.066 385.524 682.494 384.953 681.028C380.193 668.799 363.238 665.954 351.983 663.666C348.725 663.004 344.629 662.596 341.685 661.062C341.411 660.919 341.144 660.762 340.873 660.612C334.66 660.748 327.992 662.442 321.861 663.562C307.474 666.19 293.2 669.148 278.87 672.06C264.117 675.057 250.187 674.29 237.344 665.648C227.697 659.157 220.092 648.396 218.789 636.681C218.239 631.736 218.608 626.29 217.584 621.462C217.532 621.22 217.475 620.978 217.421 620.736C217.757 619.648 217.418 619.173 216.931 618.156C216.829 617.942 216.721 617.732 216.617 617.52C219.376 607.065 220.149 575.945 217.932 565.147C218.374 564.35 218.397 564.541 218.455 563.808C219.911 545.232 218.791 523.196 219.039 504.159L219.646 475.621C219.728 471.408 220.343 466.288 219.535 462.163C200.037 433.927 179.876 406.416 162.835 376.544L162.958 376.174C168.78 371.624 175.156 367.75 181.167 363.439C194.054 354.198 206.705 344.439 220.791 337.052L220.954 310.088C220.967 295.023 219.436 278.746 229.409 266.15C233.965 260.395 240.356 255.246 247.418 253.005C256.328 250.178 265.747 249.841 274.977 248.865L305.131 245.475L437.979 230.258L439.363 230.017ZM775.931 700.653C762.469 705.37 748.324 699.693 734.36 701.231C738.02 702.845 741.647 704.53 745.278 706.205C747.352 705.491 749.517 704.651 751.696 704.357C753.085 704.17 754.933 704.03 756.074 704.869C754.865 706.733 751.203 707.241 749.141 707.734C761.073 712.674 788.123 722.903 797.197 730.396L796.838 731.931C794.966 732.124 792.889 731.514 791.154 730.861C787.311 729.415 783.515 727.026 779.716 725.328C768.297 720.224 756.605 715.279 745.534 709.464C735.376 712.957 724.52 715.436 713.963 717.369C722.002 722.066 730.789 725.737 739.226 729.669C743.561 731.689 748.627 733.708 752.434 736.618C753.642 737.541 754.495 738.522 755.091 739.929L754.481 740.486C750.547 740.154 714.662 721.871 709.494 719.125C694.859 721.897 680.807 727.285 665.969 729.231C679.179 734.853 692.596 740.311 705.626 746.334C708.381 747.608 715.581 750.761 716.4 753.781C716.845 755.42 716.511 757.858 715.536 759.243C712.441 763.641 691.356 768.427 685.605 770.08C664.1 776.262 642.603 782.399 620.848 787.653C599.314 792.854 577.495 797.172 556.209 803.324C546.872 798.886 495.824 768.519 492.627 768.533L491.333 770.707C486.868 773.756 456.762 779.446 449.414 781.051C454.204 784.032 459.657 787.212 462.181 792.484L461.392 793.475C455.737 792.073 449.856 785.917 445.45 782.227C431.424 785.701 416.933 789.599 402.645 791.713C412.891 799.467 423.042 807.386 432.468 816.134C444.897 811.544 457.734 807.906 470.272 803.593C483.963 798.882 497.49 793.428 511.252 788.97C513.244 788.324 515.397 787.725 517.501 787.781L518.17 788.576L517.774 789.582C513.256 793.489 499.003 796.935 492.754 799.134C460.257 810.567 427.531 822.233 394.332 831.493C400.695 836.587 407.747 841.004 414.36 845.787C422.38 843.508 430.763 842.1 438.865 840.037L506.939 822.66L750.278 762.452L810.585 747.829C821.147 745.328 835.942 743.151 845.448 738.624C847.442 737.674 849.957 735.619 850.501 733.373C850.805 732.116 850.419 730.943 849.708 729.913C848.45 728.089 846.438 726.804 844.513 725.788C833.638 720.05 816.722 714.822 804.726 710.477C795.232 707.037 785.856 702.626 775.931 700.653ZM627.804 723.102C580.811 733.53 533.605 743.512 486.835 754.887C495.37 760.288 504.44 764.867 513.276 769.752C527.584 777.662 541.848 785.727 555.983 793.942L561.601 792.497C589.337 785.798 617.171 779.395 644.755 772.097C664.467 766.882 683.959 760.939 703.58 755.416C696.588 751.237 688.55 748.324 681.082 745.055C667.856 739.267 654.65 733.421 641.293 727.941C637.742 726.484 633.346 723.911 629.697 723C629.034 722.834 628.457 722.961 627.804 723.102ZM430.409 721.198C379.739 729.822 329.415 740.37 278.963 750.102C286.391 754.71 293.896 759.896 300.81 765.244C313.112 762.588 325.493 760.201 337.852 757.824C342.646 756.931 347.39 756.002 352.119 754.796C347.257 751.308 340.916 746.947 337.835 741.734L337.929 740.873C341.273 740.623 345.711 744.712 348.134 746.798C350.934 749.209 353.688 751.678 356.442 754.141L397.982 745.592C394.304 742.928 387.525 738.948 385.71 734.793L385.94 734.189C387.356 733.893 388.399 734.04 389.638 734.783C393.938 737.365 398.081 741.404 401.965 744.63C416.609 740.875 431.564 738.027 446.33 734.764C441.687 731.887 433.487 727.395 431.211 722.405C431.08 722.118 430.702 721.409 430.409 721.198ZM398.301 793.055C384.037 796.68 369.637 800.546 355.196 803.356C365.639 811.322 376.396 818.886 387.154 826.419C389.648 828.297 390.854 828.614 393.926 828.141C405.217 826.401 417.292 821.225 427.942 817.117C424.017 813.508 402.626 793.93 398.301 793.055ZM570.503 711.143C560.302 713.194 549.966 715.35 539.917 718.06C543.598 720.378 552.891 724.909 554.094 728.842L553.733 729.704C552.24 730.146 550.736 729.21 549.455 728.518C544.571 725.883 539.385 722.108 535.09 718.583C521.53 721.89 507.941 724.863 494.278 727.723L502.251 733.178C505.99 735.715 509.76 738.214 513.427 740.854C525.846 737.894 538.242 734.716 550.703 731.944C565.15 728.73 579.673 725.924 594.108 722.626C589.929 720.301 574.189 710.446 570.503 711.143ZM657.468 692.168C642.008 695.093 626.19 698.016 611.065 702.374C613.782 703.807 618.824 705.791 620.214 708.676L619.789 709.461C619.196 709.61 618.621 709.902 618.009 709.908C615.83 709.931 607.56 704.824 605.118 703.686C595.729 705.787 586.025 707.254 576.794 709.906L588.16 715.739C591.82 717.596 595.467 719.606 599.22 721.264C625.404 714.802 651.979 709.582 678.067 702.829C671.524 699.451 664.454 694.275 657.468 692.168ZM629.77 680.614C604.433 685.926 579.106 691.705 554.038 698.163C560.247 700.893 566.068 704.299 572.136 707.301C573.789 707.011 575.48 706.619 577.146 706.446C602.579 700.673 628.008 694.906 653.538 689.575C647.755 687.032 635.69 679.671 629.77 680.614ZM269.508 754.33L269.494 773.305C285.952 781.514 302.296 790.067 318.476 798.812L352.29 817.359C358.763 820.982 381.128 835.196 386.933 836.072C358.167 816.344 329.879 796.009 301.384 775.9C290.966 768.547 279.594 762.029 269.508 754.33ZM352.701 758.65C342.711 760.367 332.681 761.979 322.739 763.956C316.895 765.119 310.767 767.045 304.882 767.667L327.645 783.733C342.896 779.494 359.576 776.03 375.261 773.789C371.412 770.604 358.083 758.166 353.845 758.514C353.463 758.546 353.082 758.599 352.701 758.65ZM448.976 737.149C434.323 740.375 419.563 743.266 405.062 747.129C408.615 749.617 424.02 762.591 427.118 762.368C441.441 759.274 456.639 757.087 470.598 752.76C464.432 748.335 455.911 739.406 448.976 737.149ZM376.607 776.636C361.372 779.739 346.173 783.072 330.91 786.026C338.224 790.837 344.997 796.423 352.257 801.293C357.227 800.348 362.18 798.641 367.094 797.364C376.624 794.889 386.276 792.561 395.913 790.54C392.823 787.825 380.943 776.583 377.724 776.461C377.295 776.445 377.007 776.539 376.607 776.636ZM400.466 748.167C386.956 750.482 373.526 753.807 360.171 756.887C363.214 759.425 377.844 772.592 381.179 772.368C381.271 772.362 381.36 772.337 381.45 772.321C395.057 769.903 408.651 766.895 422.115 763.78C418.312 761.14 403.442 748.323 400.466 748.167ZM680.326 705.549L634.89 716.396C643.694 719.907 652.377 723.567 661.032 727.433C675.815 724.408 690.246 719.485 705.006 716.666C700.415 714.328 684.421 704.727 680.326 705.549ZM423.411 766.151C409.847 768.88 396.273 771.938 382.839 775.248C386.706 778.385 397.438 788.589 401.616 788.848C414.78 786.574 429.479 783.691 442.244 779.686C439.057 777.095 426.564 765.99 423.411 766.151ZM471.979 756.14C457.819 758.441 442.904 761.206 429.164 765.3C433.474 768.77 443.246 778.493 448.937 777.95C449.091 777.936 449.244 777.911 449.398 777.892L492.26 767.785C488.956 765.905 474.305 756.18 471.979 756.14ZM487.337 729.133C476.132 731.196 464.909 734.715 453.696 736.31C457.05 738.963 469.425 749.437 472.921 749.537C473.073 749.404 473.223 749.269 473.377 749.139C474.113 748.516 474.928 747.844 475.778 747.385C477.305 747.979 478.859 748.535 480.34 749.233C490.136 747.506 500.317 744.936 509.745 741.757C506.042 739.237 491.844 728.303 488.137 728.959C487.869 729.007 487.604 729.075 487.337 729.133ZM464.774 715.648C454.07 717.272 443.232 718.687 432.679 721.131C435.461 723.585 448.325 733.772 451.335 733.737C451.944 733.73 452.553 733.552 453.139 733.411C463.924 731.086 474.762 728.902 485.512 726.425C480.967 723.19 471.23 714.641 465.525 715.507C465.273 715.545 465.024 715.601 464.774 715.648ZM513.325 707.1C500.08 709.849 486.147 713.665 472.614 714.21C477.325 717.044 486.568 724.096 491.599 725.013C504.835 722.276 518.053 719.103 531.345 716.69C527.79 714.334 517.402 706.664 513.325 707.1ZM704.364 699.158C698.517 700.41 692.783 701.876 687.016 703.45C694.462 707.876 702.041 711.878 709.945 715.426C719.935 712.476 730.166 711.558 739.906 707.519C735.218 705.586 730.468 703.407 725.577 702.058C722.324 699.78 718.938 698.377 715.164 697.218C710.98 696.531 708.116 697.449 704.364 699.158ZM685.116 684.641C677.709 687.283 669.843 688.759 662.171 690.448C668.304 693.995 678.108 701.179 685.399 700.553C685.9 701.557 686.343 702.548 687.016 703.45C692.783 701.876 698.517 700.41 704.364 699.158C708.116 697.449 710.98 696.531 715.164 697.218C714.39 696.476 714.175 696.31 713.846 695.252C714.585 694.696 715.243 694.133 715.885 693.47L716.551 692.776C715.097 692.485 713.645 692.064 712.205 691.701C713.048 692.898 713.351 692.953 713.156 694.379C710.117 695.229 705.904 691.951 703.01 690.774C701.557 690.183 700.967 690.06 699.534 690.674L692.488 687.682C690.041 686.699 687.475 685.813 685.116 684.641ZM545.846 699.57C536.989 701.645 528.124 703.763 519.194 705.502C524.646 708.751 530.431 711.836 535.446 715.74L540.103 714.526L566.927 708.566C561.857 705.82 551.658 698.849 545.846 699.57ZM661.954 674.614C655.099 676.221 648.245 677.957 641.35 679.379C644.476 680.935 656.818 688.266 659.024 688.332L659.921 687.964C666.952 685.762 674.124 684.38 681.233 682.505C675.295 679.835 669.266 677.46 663.259 674.963C662.337 674.58 662.744 674.66 661.954 674.614ZM585.991 681.202C568.64 683.778 551.445 688.688 534.305 692.483L487.152 702.853C483.373 703.708 479.42 704.215 475.691 705.164C474.295 705.519 472.507 706.061 471.587 707.217L471.836 707.52C472.74 707.461 473.747 707.488 474.626 707.285C504.81 701.347 534.541 694.371 564.443 687.212C569.326 686.043 586.093 683.64 589.073 681.116C588.032 681.104 587.025 681.064 585.991 681.202Z"/>
	<path fill="#A9A681" d="M250.496 467.007L251.998 466.37C253.038 467.166 253.19 467.859 253.361 469.123C253.609 470.951 253.553 472.921 253.6 474.768C253.487 478.944 253.338 483.122 253.366 487.299C252.636 484.441 252.918 482.997 250.493 480.886C250.311 476.236 250.349 471.656 250.496 467.007Z"/>
	<path fill="#CD9072" d="M672.567 672.098C682.595 670.963 691.121 674.425 700.503 677.456L695.58 679.253C694.181 679.569 692.723 679.94 691.289 680.026C687.855 680.232 672.332 675.411 669.718 673.153L672.567 672.098Z"/>
	<path fill="#CD9072" d="M708.613 678.76C718.411 681.417 728.1 684.511 737.74 687.689C731.863 688.913 721.397 689.24 716.551 692.776C715.097 692.485 713.645 692.064 712.205 691.701C708.145 690.337 704.291 688.38 700.421 686.558C698.177 685.435 695.946 684.241 693.657 683.214C698.619 681.562 703.547 680.063 708.613 678.76Z"/>
	<path fill="#CD9072" d="M741.642 689.191C752.936 693.359 764.782 696.05 775.931 700.653C762.469 705.37 748.324 699.693 734.36 701.231C729.692 700.168 724.247 696.825 719.837 694.791C727.232 693.264 734.498 691.697 741.642 689.191Z"/>
	<path fill="#CD9072" d="M712.338 585.822C725.748 563.089 729.17 530.163 731.563 504.254C732.545 493.615 733.064 482.87 734.931 472.339C735.191 489.431 733.33 506.41 732.46 523.471C731.824 535.941 731.949 555.71 729.563 567.227C728.562 572.058 727.164 576.084 723.612 579.706C720.448 582.933 716.779 585.005 712.338 585.822Z"/>
	<path d="M699.534 690.674C700.967 690.06 701.557 690.183 703.01 690.774C705.904 691.951 710.117 695.229 713.156 694.379C713.351 692.953 713.048 692.898 712.205 691.701C713.645 692.064 715.097 692.485 716.551 692.776L715.885 693.47C715.243 694.133 714.585 694.696 713.846 695.252C714.175 696.31 714.39 696.476 715.164 697.218C710.98 696.531 708.116 697.449 704.364 699.158C698.517 700.41 692.783 701.876 687.016 703.45C686.343 702.548 685.9 701.557 685.399 700.553C693.15 698.937 700.856 697.014 708.541 695.111C705.568 693.577 702.54 692.142 699.534 690.674Z"/>
	<path fill="#FEFEFE" d="M422.747 645.618C423.074 645.568 423.642 645.72 423.976 645.772C426.356 650.764 425.317 676.222 425.302 683.75L416.168 679.799C413.602 678.636 411.257 677.248 408.854 675.787C409.65 666.409 410.704 657.058 412.049 647.741L422.747 645.618Z"/>
	<path fill="#CD9072" d="M704.364 699.158C708.116 697.449 710.98 696.531 715.164 697.218C718.938 698.377 722.324 699.78 725.577 702.058C718.431 701.325 711.444 700.368 704.364 699.158Z"/>
	<path fill="#FEFEFE" d="M542.216 228.913C547.504 228.954 552.806 229.029 558.092 228.874C566.923 228.616 580.297 226.584 588.593 229.388L478.713 242.731C468.588 244.011 458.335 244.76 448.245 246.23C447.613 246.184 447.14 246.164 446.502 246.046C443.399 245.469 441.811 241.932 440.321 239.482C474.094 235.071 508.217 230.905 542.216 228.913Z"/>
	<path fill="#7FB169" d="M542.216 228.913C554.676 225.9 567.53 225.028 580.253 223.637L634.907 217.668L673.054 213.139C681.152 212.173 689.435 210.868 697.599 210.894C703.946 210.913 710.333 213.048 716.421 214.668L627.013 225.121C619.627 225.969 612.241 226.773 604.866 227.72C599.617 228.395 593.882 229.543 588.593 229.388C580.297 226.584 566.923 228.616 558.092 228.874C552.806 229.029 547.504 228.954 542.216 228.913Z"/>
	<path fill="#FEFEFE" d="M340.873 660.612C361.496 656.334 382.165 652.603 402.913 648.986C401.342 660.127 399.088 670.855 401.767 681.97L401.566 682.257C396.334 683.036 390.649 683.545 385.753 685.62C385.644 684.066 385.524 682.494 384.953 681.028C380.193 668.799 363.238 665.954 351.983 663.666C348.725 663.004 344.629 662.596 341.685 661.062C341.411 660.919 341.144 660.762 340.873 660.612Z"/>
	<path fill="#FEFEFE" d="M544.95 624.701C552.739 623.711 560.544 622.151 568.292 620.854C583.458 618.313 598.601 615.74 613.679 612.71C612.798 620.333 611.752 628.329 616.937 634.773C618.702 636.968 621.1 638.934 623.469 640.441C617.018 640.586 604.099 635.777 596.744 634.644C580.05 632.072 562.187 633.939 545.444 635.398C545.493 631.86 545.138 628.239 544.95 624.701Z"/>
	<path fill="#FEFEFE" d="M542.327 668.123C555.363 668.657 568.2 672.191 580.981 674.552C565.846 676.293 550.739 680.643 535.908 684.06L474.825 697.595L466.371 699.523C456.234 695.842 446.65 691.79 436.091 689.376C446.965 688.258 458.044 685.481 468.786 683.389C493.389 678.597 517.803 673.245 542.327 668.123Z"/>
	<path fill="#CD9072" d="M241.904 336.094C241.924 330.808 241.472 324.93 242.365 319.73C242.765 354.763 241.898 389.949 241.59 424.991C241.395 447.264 241.974 469.604 241.343 491.862C239.129 490.837 230.901 476.634 228.501 473.438C228.539 427.105 229.494 380.725 230.011 334.391C233.984 334.398 238.029 335.298 241.904 336.094Z"/>
	<path fill="#EDC2A8" d="M230.011 334.391L230.31 309.656C230.411 297.066 228.901 282.383 237.149 271.813C240.937 266.958 246.509 263.017 252.491 261.448C259.012 259.737 266.228 259.495 272.924 258.821L301.179 255.702L440.321 239.482C441.811 241.932 443.399 245.469 446.502 246.046C447.14 246.164 447.613 246.184 448.245 246.23C433.722 246.983 419.258 248.605 404.79 250.024L333.169 257.361L299.141 260.82C289.296 261.793 279.167 262.322 269.601 265.003C263.103 266.824 256.976 270.95 252.459 275.921C241.432 288.057 242.54 304.472 242.365 319.73C241.472 324.93 241.924 330.808 241.904 336.094C238.029 335.298 233.984 334.398 230.011 334.391Z"/>
	<path fill="#7FB169" d="M228.501 473.438C230.901 476.634 239.129 490.837 241.343 491.862C241.576 505.854 241.037 519.905 240.999 533.904L240.513 657.131C234.895 651.326 230.017 645.801 228.08 637.75C225.335 626.342 226.614 613.645 226.853 601.978C227.023 593.625 226.997 585.265 227.114 576.909L228.501 473.438Z"/>
	<path fill="#7FB169" d="M700.574 225.71C709.601 225.024 737.268 218.768 743.701 223.834C746.461 226.008 747.371 229.625 747.675 232.958C748.43 241.239 747.13 250.336 746.584 258.629L744.193 299.315C743.134 318.915 741.954 338.522 741.161 358.134C740.714 369.194 741.345 387.521 738.696 397.69L738.549 398.266C737.054 390.546 737.025 382.159 736.172 374.308C735.135 364.757 733.335 355.427 731.975 345.954C731.453 342.317 731.389 333.803 729.155 331.077L728.441 332.516C728.451 325.88 729.414 319.008 729.754 312.356L731.51 271.166C731.856 263.857 732.709 256.137 732.224 248.842C732.056 246.325 731.769 243.465 730.303 241.353C725.339 238.755 713.779 241.758 708.5 242.965C705.662 237.367 703.795 231.08 700.574 225.71Z"/>
	<path fill="#FEFEFE" d="M545.444 635.398C562.187 633.939 580.05 632.072 596.744 634.644C604.099 635.777 617.018 640.586 623.469 640.441C628.175 642.739 633.978 644.91 637.542 648.815C642.147 651.034 663.378 660.622 664.915 663.478C664.973 663.585 664.994 663.708 665.034 663.823C643.039 670.139 620.025 674.416 597.681 679.429C598.258 678.119 599.101 676.574 599.312 675.153C599.489 673.963 599.367 672.672 598.564 671.707C594.101 666.346 556.268 661.195 547.583 659.741L545.776 639.767C545.486 638.375 545.518 636.824 545.444 635.398Z"/>
	<path fill="#C2DB92" d="M545.444 635.398C562.187 633.939 580.05 632.072 596.744 634.644C604.099 635.777 617.018 640.586 623.469 640.441C628.175 642.739 633.978 644.91 637.542 648.815C629.275 646.966 621.683 642.757 613.253 641.4C597.491 638.863 581.758 640.394 565.919 640.611C559.177 640.703 552.496 640.273 545.776 639.767C545.486 638.375 545.518 636.824 545.444 635.398Z"/>
	<path fill="#CD9072" d="M162.958 376.174C168.78 371.624 175.156 367.75 181.167 363.439C194.054 354.198 206.705 344.439 220.791 337.052C220.215 378.728 219.482 420.485 219.535 462.163C200.037 433.927 179.876 406.416 162.835 376.544L162.958 376.174Z"/>
	<path fill="#FEFEFE" d="M533.22 627.181C534.154 626.972 534.803 626.933 535.753 627.055C537.693 630.78 538.392 654.638 538.791 660.266C526.136 662.416 513.541 665.381 500.979 668.023L440.373 680.658C438.346 681.104 436.434 681.741 434.403 681.047C432.787 676.97 433.519 650.062 433.479 643.64C444.657 642.414 455.995 639.898 467.097 637.996C489.114 634.225 511.121 630.449 533.22 627.181Z"/>
	<path fill="#EDC2A8" d="M250.496 467.007C251.513 426.322 251.095 385.599 251.607 344.906C251.781 331.161 250.594 311.058 252.5 298.058C253.342 292.312 255.425 287.192 259.257 282.779C262.822 278.675 267.784 275.369 273.006 273.839C283.928 270.638 305.377 269.619 317.381 268.378C343.577 265.67 369.684 262.414 395.955 260.48C395.804 260.625 395.656 260.773 395.503 260.917C389.128 266.917 379.487 270.63 375.12 278.492L375.263 279.389L376.401 279.721C376.254 279.755 376.108 279.794 375.96 279.822C370.209 280.887 363.741 281.004 357.882 281.616L311.899 286.354C300.894 287.407 289.451 287.913 278.619 290.197C276.456 290.653 271.904 291.557 270.666 293.499C268.21 297.352 270.517 345.279 269.838 354.387C268.788 351.777 269.306 347.166 269.278 344.277C259.098 366.032 264.363 392.671 262.131 416.027C261.044 427.392 259.082 438.601 257.326 449.872C256.035 458.159 254.985 466.499 253.6 474.768C253.553 472.921 253.609 470.951 253.361 469.123C253.19 467.859 253.038 467.166 251.998 466.37L250.496 467.007Z"/>
	<path fill="#7FB169" d="M250.493 480.886C252.918 482.997 252.636 484.441 253.366 487.299C254.902 500.236 258.914 516.536 267.58 526.675L268.411 526.881C268.135 538.612 268.266 550.354 268.147 562.087C268.052 571.439 266.97 582.11 268.827 591.297C269.331 593.792 270.448 596.018 272.255 597.83C275.066 600.648 278.859 601.079 282.677 600.974C287.548 600.839 292.64 599.534 297.439 598.698C300.04 613.648 302.683 633.136 315.85 642.728C322.397 647.497 330.616 647.975 337.641 651.592C323.965 654.136 310.183 656.564 296.564 659.361C286.194 661.491 275.268 664.96 264.65 664.968C259.252 664.972 254.426 663.593 249.481 661.534L250.493 480.886Z"/>
	<path fill="#FEFEFE" d="M700.574 225.71C703.795 231.08 705.662 237.367 708.5 242.965C647.451 250.606 586.117 256.663 524.969 263.527L412.344 275.951C400.38 277.173 388.382 278.764 376.401 279.721L375.263 279.389L375.12 278.492C379.487 270.63 389.128 266.917 395.503 260.917C395.656 260.773 395.804 260.625 395.955 260.48C410.456 259.626 424.869 257.408 439.295 255.747L506.267 248.232L700.574 225.71Z"/>
	<path fill="#CD9072" d="M744.031 474.884C751.065 478.569 758.359 481.623 765.15 485.776C786.55 498.864 802.687 519.756 810.22 543.699C822.118 581.515 813.01 622.349 797.275 657.593C794.336 664.176 791.069 670.589 787.784 677.003C786.263 679.973 784.122 683.282 783.089 686.431C781.911 688.34 780.746 690.258 779.537 692.146C774.948 691.762 767.485 687.613 762.759 686.033L717.844 670.694C707.439 667.118 695.314 661.419 684.306 660.626C678.004 660.172 671.113 662.401 665.034 663.823C664.994 663.708 664.973 663.585 664.915 663.478C663.378 660.622 642.147 651.034 637.542 648.815C633.978 644.91 628.175 642.739 623.469 640.441C621.1 638.934 618.702 636.968 616.937 634.773C611.752 628.329 612.798 620.333 613.679 612.71C633.452 610.098 653.286 605.935 672.965 602.565C686.805 600.195 701.238 598.851 714.771 595.097C719.274 593.848 723.511 592.171 727.123 589.119C732.557 584.525 736.053 578.112 737.863 571.296C741.254 558.524 740.46 542.417 740.955 529.112C741.629 510.999 742.373 492.941 744.031 474.884Z"/>
	<path fill="#FEFEFE" d="M728.441 332.516L729.155 331.077C731.389 333.803 731.453 342.317 731.975 345.954C733.335 355.427 735.135 364.757 736.172 374.308C737.025 382.159 737.054 390.546 738.549 398.266C738.446 422.789 736.903 447.884 734.931 472.339C733.064 482.87 732.545 493.615 731.563 504.254C729.17 530.163 725.748 563.089 712.338 585.822C683.758 591.826 654.714 596.111 625.951 601.177L437.393 633.053C416.614 636.425 395.873 640.402 375.217 644.464C362.724 646.922 350.235 649.7 337.641 651.592C330.616 647.975 322.397 647.497 315.85 642.728C302.683 633.136 300.04 613.648 297.439 598.698C306.86 596.495 316.793 595.336 326.343 593.719L380.969 584.318C455.205 571.404 529.544 559.509 604.006 547.987C622.172 545.175 640.327 542.25 658.532 539.701C675.179 537.37 691.972 535.464 708.484 532.291C711.441 531.723 714.107 530.801 716.246 528.595C718.92 525.836 719.743 522.268 720.21 518.574C721.479 508.548 721.398 498.109 721.765 487.998L723.78 435.791L726.972 367.42C727.512 355.861 728.619 344.076 728.441 332.516Z"/>
	<path fill="#355247" d="M503.742 576.026C506.324 576.041 508.962 576.049 511.433 576.901C514.604 577.995 517.256 580.26 518.607 583.354C520.494 587.68 520.01 592.896 518.252 597.178C515.696 603.406 511.018 607.211 504.994 609.818C502.114 610.06 499.302 610.135 496.573 609.053C493.276 607.746 490.848 605.328 489.586 602.003C487.76 597.19 488.67 591.679 490.895 587.16C493.619 581.627 498.022 578.091 503.742 576.026Z"/>
	<path fill="#355247" d="M708.5 242.965C713.779 241.758 725.339 238.755 730.303 241.353C731.769 243.465 732.056 246.325 732.224 248.842C732.709 256.137 731.856 263.857 731.51 271.166L729.754 312.356C729.414 319.008 728.451 325.88 728.441 332.516C728.619 344.076 727.512 355.861 726.972 367.42L723.78 435.791L721.765 487.998C721.398 498.109 721.479 508.548 720.21 518.574C719.743 522.268 718.92 525.836 716.246 528.595C714.107 530.801 711.441 531.723 708.484 532.291C691.972 535.464 675.179 537.37 658.532 539.701C640.327 542.25 622.172 545.175 604.006 547.987C529.544 559.509 455.205 571.404 380.969 584.318L326.343 593.719C316.793 595.336 306.86 596.495 297.439 598.698C292.64 599.534 287.548 600.839 282.677 600.974C278.859 601.079 275.066 600.648 272.255 597.83C270.448 596.018 269.331 593.792 268.827 591.297C266.97 582.11 268.052 571.439 268.147 562.087C268.266 550.354 268.135 538.612 268.411 526.881L267.58 526.675C258.914 516.536 254.902 500.236 253.366 487.299C253.338 483.122 253.487 478.944 253.6 474.768C254.985 466.499 256.035 458.159 257.326 449.872C259.082 438.601 261.044 427.392 262.131 416.027C264.363 392.671 259.098 366.032 269.278 344.277C269.306 347.166 268.788 351.777 269.838 354.387C270.517 345.279 268.21 297.352 270.666 293.499C271.904 291.557 276.456 290.653 278.619 290.197C289.451 287.913 300.894 287.407 311.899 286.354L357.882 281.616C363.741 281.004 370.209 280.887 375.96 279.822C376.108 279.794 376.254 279.755 376.401 279.721C388.382 278.764 400.38 277.173 412.344 275.951L524.969 263.527C586.117 256.663 647.451 250.606 708.5 242.965Z"/>
	<path fill="#7FB169" d="M709.016 251.971C713.665 251.499 718.307 251.006 722.944 250.42C722.197 261.331 721.701 272.25 721.37 283.18C721.169 289.796 721.719 297.524 720.348 303.952C716.721 286.429 714.364 269.13 709.016 251.971Z"/>
	<path fill="#7FB169" d="M277.551 542.195C280.675 548.784 284.59 555.068 287.286 561.842C290.896 570.912 292.872 580.316 295.81 589.577C291.359 590.477 286.68 591.663 282.139 591.85C280.749 591.907 279.909 592.01 278.823 591.062C275.351 582.441 277.3 552.558 277.551 542.195Z"/>
	<path fill="#FEFEFE" d="M269.278 344.277C269.306 347.166 268.788 351.777 269.838 354.387C270.229 371.79 269.362 389.359 269.233 406.786L268.411 526.881L267.58 526.675C258.914 516.536 254.902 500.236 253.366 487.299C253.338 483.122 253.487 478.944 253.6 474.768C254.985 466.499 256.035 458.159 257.326 449.872C259.082 438.601 261.044 427.392 262.131 416.027C264.363 392.671 259.098 366.032 269.278 344.277Z"/>
	<path fill="#EDC2A8" d="M279.479 299.601C288.997 299.219 298.827 297.487 308.332 296.454L368.042 289.944C338.854 326.939 316.295 315.854 279.174 334.393C280.078 322.897 279.618 311.132 279.479 299.601Z"/>
	<path fill="#FEFEFE" d="M368.042 289.944L709.016 251.971C714.364 269.13 716.721 286.429 720.348 303.952C720.834 316.515 719.326 329.62 718.697 342.207L715.987 405.632L713.14 477.402C712.57 491.97 712.603 506.689 710.755 521.157C709.3 522.312 707.827 522.844 706.013 523.218C697.837 524.903 689.266 525.274 680.995 526.486L624.562 535.299L508.904 553.068L295.81 589.577C292.872 580.316 290.896 570.912 287.286 561.842C284.59 555.068 280.675 548.784 277.551 542.195C277.117 531.038 277.448 519.723 277.477 508.555L278.312 430.694C278.676 398.576 277.594 366.497 279.174 334.393C316.295 315.854 338.854 326.939 368.042 289.944Z"/>
	<path fill="#763517" d="M637.513 472.261C642.516 473.148 650.708 477.877 654.338 481.525C652.137 481.776 650.314 482.098 648.166 481.36L648.385 481C647.352 479.182 638.696 475.207 636.252 473.594L637.513 472.261Z"/>
	<path fill="#844828" d="M636.252 473.594C638.696 475.207 647.352 479.182 648.385 481L648.166 481.36C650.314 482.098 652.137 481.776 654.338 481.525C656.445 486.614 656.962 492.271 657.713 497.69C645.045 501.177 631.168 502.224 618.17 504.31C581.333 510.223 544.248 514.913 507.302 520.125C472.635 525.015 437.977 530.009 403.408 535.559C382.512 538.913 361.518 543.276 340.514 545.722C340.365 540.223 338.399 524.983 342.157 521.415C342.672 520.927 343.404 520.507 343.988 520.127C347.738 516.79 351.204 513.136 354.722 509.558C355.902 509.858 356.734 510.041 357.731 510.778C366.626 509.572 375.585 508.823 384.474 507.605C391.23 506.68 397.795 505.127 404.618 504.629C414.376 504.496 424.633 502.017 434.336 500.685L497.801 492.088L585.654 480.589C602.549 478.415 619.545 476.994 636.252 473.594Z"/>
	<path fill="#FEFEFE" d="M636.252 473.594C638.696 475.207 647.352 479.182 648.385 481L648.166 481.36C619.264 486.426 589.953 489.599 560.871 493.521L412.351 513.768C401.226 515.297 390.086 516.719 378.999 518.503C368.812 520.143 358.569 522.179 348.339 523.443C346.893 523.622 345.585 523.876 344.165 523.391C348.425 518.928 353.141 514.894 357.731 510.778C366.626 509.572 375.585 508.823 384.474 507.605C391.23 506.68 397.795 505.127 404.618 504.629C414.376 504.496 424.633 502.017 434.336 500.685L497.801 492.088L585.654 480.589C602.549 478.415 619.545 476.994 636.252 473.594Z"/>
	<path fill="#FEFEFE" d="M649.813 483.638C650.397 483.543 650.823 483.692 651.393 483.819C653.907 486.736 654.145 492.054 654.78 495.798L468.779 523.131L397.513 533.767C380.707 536.304 363.856 538.63 347.17 541.884L342.942 542.742L342.881 527.831C351.189 524.988 360.341 524.395 368.99 523.088L410.38 516.785C463.759 508.738 517.406 502.071 570.909 494.887C597.18 491.359 623.752 488.495 649.813 483.638Z"/>
	<path fill="#78C6D3" d="M366.422 398.005C399.906 374.9 432.817 350.99 466.007 327.466C482.986 315.432 500.499 304.023 517.278 291.74C525.733 295.706 533.78 300.776 541.854 305.47L574.563 324.198L613.226 345.853C622.578 351.083 632.09 356.195 640.963 362.22C639.661 366.194 638.144 372.863 634.178 374.965C632.419 375.897 630.479 375.694 628.659 375.061C623.777 373.363 619.449 369.609 614.914 367.14C613.119 398.83 610.621 430.606 609.971 462.34C615.216 461.872 625.045 460.531 629.229 464.206C631.856 466.514 634.288 470.98 637.513 472.261L636.252 473.594C619.545 476.994 602.549 478.415 585.654 480.589L497.801 492.088L434.336 500.685C424.633 502.017 414.376 504.496 404.618 504.629C397.795 505.127 391.23 506.68 384.474 507.605C375.585 508.823 366.626 509.572 357.731 510.778C356.734 510.041 355.902 509.858 354.722 509.558L374.658 491.28C380.02 490.295 385.551 489.853 390.967 489.211C391.384 471.478 392.903 453.639 394.293 435.956C395.102 425.669 395.472 415.007 397.089 404.824L397.013 396.98C395.373 398.124 393.697 399.216 392.026 400.315C386.329 405.443 379.695 409.721 373.408 414.082C370.978 408.758 368.623 403.428 366.422 398.005Z"/>
	<path fill="#763517" d="M415.036 406.544C437.639 404.937 460.342 403.62 482.991 403.004C482.264 414.945 481.916 426.941 481.474 438.896C481.24 445.231 481.25 451.682 480.568 457.982C480.748 463.807 479.146 474.002 480.999 479.12L480.967 479.685C479.962 479.295 479.532 479.117 478.722 478.366C476.847 472.961 479.093 457.038 479.209 450.185C479.035 441.365 479.69 432.78 479.968 423.993C480.17 417.605 479.958 411.29 480.817 404.938C459.571 404.832 438.261 407.918 417.023 408.018C416.366 415.877 417.027 423.648 416.91 431.504C416.746 442.469 415.807 453.41 415.638 464.408C415.578 468.26 413.664 479.688 414.977 482.152L416.747 483.149C415.955 484.071 415.478 483.913 414.321 484.143C413.387 483.173 413.175 482.523 413.091 481.189C412.591 473.228 413.602 464.635 413.848 456.605L415.036 406.544Z"/>
	<path fill="#763517" d="M402.454 390.166C404.32 387.085 504.198 317.423 515.704 309.447C516.313 309.945 517.203 310.501 517.664 311.123L429.684 373.579C424.408 377.296 411.571 387.919 406.527 389.745C404.323 391.574 401.859 393.34 399.823 395.346C399.861 398.594 399.985 401.859 399.721 405.099C399.16 415.214 398.007 425.288 397.3 435.396C396.157 451.741 395.365 468.161 393.89 484.477C400.75 484.63 407.586 484.826 414.443 484.45L424.096 483.961L424.528 482.978C430.563 481.307 452.991 479.447 457.764 481.921C458.301 482.199 458.498 482.423 458.907 482.805L459.072 483.818C441.792 486.222 424.509 488.379 407.178 490.389C396.828 491.59 386.232 492.401 375.973 494.244C370.78 498.458 365.955 503.229 361.068 507.796C368.237 506.875 375.353 505.623 382.515 504.665C387.814 503.957 393.158 503.572 398.44 502.754C400.607 504.819 401.643 504.683 404.618 504.629C397.795 505.127 391.23 506.68 384.474 507.605C375.585 508.823 366.626 509.572 357.731 510.778C356.734 510.041 355.902 509.858 354.722 509.558L374.658 491.28C380.02 490.295 385.551 489.853 390.967 489.211C391.384 471.478 392.903 453.639 394.293 435.956C395.102 425.669 395.472 415.007 397.089 404.824L397.013 396.98C395.373 398.124 393.697 399.216 392.026 400.315C392.361 399.476 392.611 399.151 393.276 398.502C394.005 397.791 394.651 397.102 395.311 396.322C394.239 397.029 393.277 397.334 392.058 397.671L391.576 397.801C394.961 394.995 398.815 392.635 402.454 390.166Z"/>
	<path fill="#FEFEFE" d="M424.096 483.961C427.312 484.029 430.584 483.943 433.755 484.532L406.717 487.462C402.724 487.877 398.522 488.708 394.513 488.511C393.619 487.336 393.86 485.933 393.89 484.477C400.75 484.63 407.586 484.826 414.443 484.45L424.096 483.961Z"/>
	<path fill="#763517" d="M534.515 340.693C535.776 340.494 536.758 340.484 538.026 340.639C539.792 344.078 535.395 372.226 534.797 377.819L504.144 381.803C502.799 382.013 502.02 382.228 500.729 381.664C498.969 372.533 502.949 354.877 504.032 345.037C514.047 342.741 524.321 341.855 534.515 340.693Z"/>
	<path fill="#844828" d="M519.597 345.19C520.413 344.879 521.707 345.029 522.596 345.01C522.059 349.885 521.633 354.803 520.895 359.652C524.442 359.357 531.701 359.495 534.686 357.544L535 357.053C534.864 358.372 534.791 359.685 534.368 360.949C530.587 361.243 523.662 360.738 520.76 363.326C520.452 364.314 520.224 365.256 520.051 366.276C519.959 366.003 519.863 365.732 519.773 365.458C519.491 364.599 519.45 363.954 519.517 363.045C518.797 361.949 518.663 361.384 517.255 361.183C513.881 360.703 508.793 361.652 505.497 362.534L505.459 362.944L505.871 362.419L505.875 363.359C506.142 363.214 506.406 363.061 506.677 362.923C509.789 361.337 514.194 361.345 517.515 362.175C518.615 363.145 518.443 363.261 518.577 364.749C518.128 365.488 518.44 365.293 517.737 365.464C517.774 364.362 517.877 364.356 517.315 363.312C516.51 362.993 515.834 362.786 514.962 362.723C511.344 362.46 506.815 363.303 504.012 365.691C503.951 364.075 504.054 362.655 504.306 361.059C509.109 361.013 513.827 360.717 518.592 360.111C519.042 356.103 520.988 348.921 519.597 345.19Z"/>
	<path fill="#FEFEFE" d="M520.051 366.276C520.224 365.256 520.452 364.314 520.76 363.326C523.662 360.738 530.587 361.243 534.368 360.949C533.249 365.588 532.601 370.521 532.406 375.289L518.928 377.209C519.411 373.572 519.954 369.949 520.051 366.276Z"/>
	<path fill="#FEFEFE" d="M504.012 365.691C506.815 363.303 511.344 362.46 514.962 362.723C515.834 362.786 516.51 362.993 517.315 363.312C517.877 364.356 517.774 364.362 517.737 365.464C517.125 369.406 516.67 373.339 516.276 377.308C511.824 377.84 507.38 378.601 502.944 379.261C503.538 374.753 503.798 370.231 504.012 365.691Z"/>
	<path fill="#FEFEFE" d="M522.596 345.01L536.1 343.057C535.662 347.609 534.799 352.495 535 357.053L534.686 357.544C531.701 359.495 524.442 359.357 520.895 359.652C521.633 354.803 522.059 349.885 522.596 345.01Z"/>
	<path fill="#FEFEFE" d="M519.597 345.19C520.988 348.921 519.042 356.103 518.592 360.111C513.827 360.717 509.109 361.013 504.306 361.059C505.743 357.428 505.681 351.973 506.255 348.011C510.646 345.837 514.8 345.603 519.597 345.19Z"/>
	<path fill="#FEFEFE" d="M509.113 400.788C522.388 398.744 535.656 397.728 548.973 396.142C558.438 395.015 581.066 390.006 589.288 391.92C591.078 400.491 588.084 420.705 587.473 430.649C586.749 442.438 586.336 454.192 586.094 466.001L572.861 467.667C574.76 446.262 576.989 424.863 578.196 403.406C566.172 404.332 554.247 406.253 542.317 407.969C535.132 409.002 527.588 409.69 520.509 411.292L517.942 449.474C517.338 457.675 516.397 466.028 516.446 474.252C512.24 474.762 508.036 475.281 503.823 475.728C503.197 475.613 503.607 475.721 502.66 475.21C503.964 468.673 503.847 461.788 504.373 455.154L506.681 427.764C507.355 418.783 507.785 409.699 509.113 400.788Z"/>
	<path fill="#844828" d="M417.023 408.018C438.261 407.918 459.571 404.832 480.817 404.938C479.958 411.29 480.17 417.605 479.968 423.993C479.69 432.78 479.035 441.365 479.209 450.185C479.093 457.038 476.847 472.961 478.722 478.366C479.532 479.117 479.962 479.295 480.967 479.685L481.084 481.168C473.71 482.434 466.519 483.209 459.072 483.818L458.907 482.805C458.498 482.423 458.301 482.199 457.764 481.921C452.991 479.447 430.563 481.307 424.528 482.978L424.096 483.961L414.443 484.45L414.321 484.143C415.478 483.913 415.955 484.071 416.747 483.149L414.977 482.152C413.664 479.688 415.578 468.26 415.638 464.408C415.807 453.41 416.746 442.469 416.91 431.504C417.027 423.648 416.366 415.877 417.023 408.018Z"/>
	<path fill="#844828" d="M366.422 398.005C399.906 374.9 432.817 350.99 466.007 327.466C482.986 315.432 500.499 304.023 517.278 291.74C525.733 295.706 533.78 300.776 541.854 305.47L574.563 324.198L613.226 345.853C622.578 351.083 632.09 356.195 640.963 362.22C639.661 366.194 638.144 372.863 634.178 374.965C632.419 375.897 630.479 375.694 628.659 375.061C623.777 373.363 619.449 369.609 614.914 367.14C613.119 398.83 610.621 430.606 609.971 462.34C615.216 461.872 625.045 460.531 629.229 464.206C631.856 466.514 634.288 470.98 637.513 472.261L636.252 473.594C619.545 476.994 602.549 478.415 585.654 480.589L497.801 492.088L434.336 500.685C424.633 502.017 414.376 504.496 404.618 504.629C401.643 504.683 400.607 504.819 398.44 502.754C393.158 503.572 387.814 503.957 382.515 504.665C375.353 505.623 368.237 506.875 361.068 507.796C365.955 503.229 370.78 498.458 375.973 494.244C386.232 492.401 396.828 491.59 407.178 490.389C424.509 488.379 441.792 486.222 459.072 483.818C466.519 483.209 473.71 482.434 481.084 481.168L480.967 479.685L480.999 479.12C488.575 477.167 496.223 477.198 503.823 475.728C508.036 475.281 512.24 474.762 516.446 474.252C516.397 466.028 517.338 457.675 517.942 449.474L520.509 411.292C527.588 409.69 535.132 409.002 542.317 407.969C554.247 406.253 566.172 404.332 578.196 403.406C576.989 424.863 574.76 446.262 572.861 467.667L586.094 466.001C593.347 465.374 600.422 464.627 607.533 462.974C607.072 449.705 608.518 436.469 609.096 423.228C609.938 403.945 610.253 384.486 612.403 365.294C590.469 353.377 568.815 340.98 547.163 328.563C538.297 323.479 525.529 317.297 517.664 311.123C517.203 310.501 516.313 309.945 515.704 309.447C504.198 317.423 404.32 387.085 402.454 390.166C398.815 392.635 394.961 394.995 391.576 397.801L392.058 397.671C393.277 397.334 394.239 397.029 395.311 396.322C394.651 397.102 394.005 397.791 393.276 398.502C392.611 399.151 392.361 399.476 392.026 400.315C386.329 405.443 379.695 409.721 373.408 414.082C370.978 408.758 368.623 403.428 366.422 398.005Z"/>
	<path fill="#FEFEFE" d="M481.084 481.168C512.305 478.126 543.667 474.597 574.754 470.422C583.86 469.199 592.95 467.81 602.025 466.376C607.876 465.452 614.119 464.001 620.047 464.061C623.402 464.094 626.481 465.352 629.129 467.395C630.068 468.12 630.914 469.193 631.205 470.364C631.318 470.82 631.249 471.094 631.19 471.524C631.046 471.496 630.903 471.463 630.758 471.441C630.123 471.346 629.592 471.405 628.96 471.476L628.766 472.4C628.561 472.341 628.364 472.242 628.153 472.223C624.911 471.933 618.744 473.569 615.285 474.068L579.679 478.953L457.572 494.703L419.315 499.8C412.399 500.732 405.259 501.303 398.44 502.754C393.158 503.572 387.814 503.957 382.515 504.665C375.353 505.623 368.237 506.875 361.068 507.796C365.955 503.229 370.78 498.458 375.973 494.244C386.232 492.401 396.828 491.59 407.178 490.389C424.509 488.379 441.792 486.222 459.072 483.818C466.519 483.209 473.71 482.434 481.084 481.168Z"/>
	<path fill="#FEFEFE" d="M571.823 406.697C573.079 406.501 573.801 406.367 575.044 406.768C577.027 411.03 570.708 458.827 570.392 467.997C554.995 469.92 539.553 471.797 524.119 473.385C522.496 473.631 521.009 473.988 519.397 473.506C518.334 470.483 522.388 421.203 522.963 413.607C536.97 410.081 557.052 408.454 571.823 406.697Z"/>
	<path fill="#FEFEFE" d="M370.045 398.736C385.8 389.362 400.424 377.817 415.324 367.129L468.235 329.511C484.614 317.852 500.891 306.055 517.873 295.279C531.519 302.218 544.799 310.419 558.128 317.981L637.895 363.199C636.106 366.654 634.488 370.164 632.899 373.715C621.065 367.568 609.517 360.618 597.895 354.066L542.876 323.12C535.706 319.034 528.982 314.225 521.704 310.312C519.114 308.919 518.527 308.609 515.704 309.447C504.198 317.423 404.32 387.085 402.454 390.166C398.815 392.635 394.961 394.995 391.576 397.801C386.821 399.92 379.011 406.611 374.482 409.936C372.791 406.305 371.465 402.48 370.045 398.736Z"/>
</svg>
