<?xml version="1.0" encoding="utf-8" ?>
<svg xmlns="http://www.w3.org/2000/svg" xmlns:xlink="http://www.w3.org/1999/xlink" width="1024" height="1024">
	<path fill="#82B26B" d="M817.495 727.011C829.894 726.929 838.389 728.374 849.405 734.318C838.906 732.613 828.123 734.139 817.564 734.802L817.472 734.366C817.612 731.936 817.498 729.448 817.495 727.011Z"/>
	<path fill="#82B26B" d="M185.926 244.364C187.29 244.443 187.254 244.455 188.245 245.402C188.32 245.888 188.392 246.159 188.307 246.688C187.006 254.766 171.294 269.211 165.02 275.165L164.213 275.651C164.186 275.333 164.105 275.015 164.132 274.698C164.266 273.157 165.522 270.816 166.097 269.343C170.104 259.078 176.317 249.961 185.926 244.364Z"/>
	<path fill="#82B26B" d="M766.356 809.695C768.49 809.283 770.946 809.396 773.13 809.292C762.784 815.565 748.023 822.483 736.399 825.356C735.09 825.608 733.599 825.953 732.261 825.819C730.87 825.681 729.891 825.26 728.952 824.212C728.843 823.278 729.145 822.732 729.735 822.017C736.105 814.292 756.588 810.91 766.356 809.695Z"/>
	<path fill="#82B26B" d="M761.422 826.328C762.343 827.344 762.573 828.421 762.564 829.781C762.505 838.788 753.482 853.382 747.424 859.802C745.678 856.179 745.008 852.634 745.556 848.614C746.909 838.675 753.757 831.958 761.422 826.328Z"/>
	<path fill="#82B26B" d="M817.059 709.46C832.298 708.055 852.714 709.481 865.163 719.411C849.429 717.493 833.09 717.108 817.237 717.502C816.947 715.848 817.021 714.074 816.975 712.394L817.059 709.46Z"/>
	<path fill="#82B26B" d="M858.951 730.219C862.306 732.606 865.267 739.321 867.644 742.871C873.29 751.304 880.068 758.943 885.674 767.401C888.183 771.186 890.432 775.047 892.442 779.117C887.773 777.598 883.695 773.873 880.293 770.441C869.719 759.773 858.916 745.982 858.951 730.219Z"/>
	<path fill="#82B26B" d="M846.868 743.723C850.744 745.716 868.364 772.238 871.395 777.511C873.753 781.612 875.734 785.729 877.238 790.215C875.838 789.471 874.483 788.56 873.199 787.629C858.457 776.942 849.641 761.524 846.868 743.723Z"/>
	<path fill="#82B26B" d="M873.073 718.313C875.545 720.726 877.59 726.223 879.474 729.328C886.704 741.242 897.057 752.241 900.347 766.097C895.469 764.294 890.881 759.554 887.465 755.744C877.63 744.776 872.198 733.14 873.073 718.313Z"/>
	<path fill="#82B26B" d="M835.87 753.714C839.139 756.047 842.007 762.022 844.302 765.402C853.049 778.288 865.216 792.341 869.131 807.696C866.495 805.926 863.966 803.86 861.629 801.713C849.941 790.978 836.599 769.928 835.87 753.714Z"/>
	<path fill="#82B26B" d="M816.831 692.155C836.402 694.945 859.178 697.56 874.003 711.961C872.019 710.997 870.058 710.103 867.912 709.56C861.651 707.975 820.788 700.048 816.934 700.81L816.435 700.805C816.447 697.891 816.533 695.055 816.831 692.155Z"/>
	<path fill="#82B26B" d="M829.476 676.544C842.291 676.251 853.584 680.067 864.711 686.225C868.961 688.577 878.519 695.645 879.845 700.269L878.739 700.021C872.767 696.939 866.618 694.358 860.253 692.199C853.042 689.753 830.67 684.914 826.26 681.239C825.689 680.763 825.912 680.239 825.904 679.551C826.803 678.053 828.028 677.42 829.476 676.544Z"/>
	<path fill="#82B26B" d="M887.491 707.916C889.632 707.988 891.713 708.196 893.619 709.261C901.367 713.589 905.627 728.168 907.759 736.407C908.407 738.914 909.157 741.75 907.779 744.08C905.939 743.286 904.116 742.382 902.464 741.241C894.906 736.022 889.022 725.556 887.22 716.678C886.721 714.219 886.043 710.11 887.491 707.916Z"/>
	<path fill="#82B26B" d="M814.518 777.812C817.405 783.783 820.483 789.235 824.355 794.651C833.242 807.086 842.66 816.714 846.313 832.084C830.637 819.958 816.11 805.672 813.485 784.966C813.226 782.927 813.157 781.027 813.408 778.982L814.518 777.812Z"/>
	<path fill="#82B26B" d="M237.776 280.702C253.302 277.996 273.836 285.064 288.494 290.025C282.636 289.677 276.794 289.244 270.924 289.473C260.843 291.028 234.346 293.243 225.793 286.883C224.685 286.06 224.235 285.648 224.023 284.281C226.805 281.007 233.829 281.073 237.776 280.702Z"/>
	<path fill="#82B26B" d="M826.598 767.222C831.548 771.065 847.786 798.493 850.782 805.18C852.822 809.732 854.129 814.312 855.005 819.212C851.295 818.482 848.376 817.59 845.432 815.107C833.626 805.153 827.83 782.077 826.598 767.222Z"/>
	<path fill="#82B26B" d="M838.69 746.202C844.769 736.937 877.028 705.908 887.193 702.805L887.834 703.182C886.967 706.611 881.295 709.775 878.512 711.735C864.376 721.697 850.223 734.352 839.769 748.153C834.327 755.193 821.764 773.527 814.786 777.565C815.967 775.294 817.53 773.254 818.692 770.921C818.179 764.159 818.476 757.345 817.931 750.554C817.606 747.858 817.526 745.33 817.611 742.62C819.784 744.549 824.193 743.605 826.986 743.9C830.562 744.279 834.226 745.949 837.717 746.822L838.69 746.202ZM817.931 750.554C818.476 757.345 818.179 764.159 818.692 770.921C821.759 770.266 833.795 752.601 836.358 749.06C830.274 750.314 824.117 750.46 817.931 750.554Z"/>
	<path fill="#82B26B" d="M795.043 786.541L795.409 786.662C795.779 786.889 796.239 787.044 796.632 787.224C809.512 793.115 813.856 811.868 818.386 823.965C814.665 818.366 810.196 813.256 806.375 807.707C802.035 801.405 798.788 794.717 795.568 787.809C793.366 789.562 791.434 791.482 789.463 793.483C796.847 811.424 811.231 825.734 819.357 843.505C812.25 838.107 805.51 832.148 799.993 825.091C794.649 818.256 786.936 805.968 788.127 796.901C788.154 796.697 788.188 796.494 788.218 796.291L786.787 795.286L787.447 795.367C786.826 795.66 786.467 795.94 786.064 796.504C776.438 809.959 786.714 819.12 791.836 831.535C794.898 838.955 796.593 846.581 797.88 854.467C789.46 845.489 782 832.448 780.304 820.118C779.742 816.038 779.951 811.753 779.979 807.638C777.503 809.863 775.378 812.217 773.248 814.773C774.175 828.736 778.142 841.449 777.775 855.838C775.478 852.12 773.415 848.278 771.721 844.244C767.796 834.901 765.555 822.968 772.332 814.296C778.342 806.604 780.581 806.745 784.641 796.714C772.895 798.662 742.165 809.422 732.195 805.299C731.013 804.81 730.597 804.384 730.119 803.232C730.401 802.336 730.623 801.912 731.342 801.265C741.089 792.484 773.158 793.969 785.968 794.582C789.269 792.319 792.139 789.29 795.043 786.541Z"/>
	<path fill="#82B26B" d="M249.475 166.744C250.71 167.135 251.402 167.829 252.065 168.917C258.302 179.154 250.789 204.85 248.113 216.315C252.151 225.408 258.88 233.557 264.911 241.414C267.692 227.527 266.084 215.333 271.515 201.47C273.229 197.095 275.82 190.849 280.36 188.887C281.759 188.987 281.668 189.005 282.625 190.044C285.229 198.762 269.688 233.017 266.108 242.987C270.298 252.77 275.34 262.323 279.868 271.964C279.888 266.835 281.075 261.519 281.847 256.453C283.889 243.053 285.209 227.889 293.784 216.757C295.798 214.142 299.698 209.633 303.116 209.463C303.964 209.421 304.11 209.85 304.681 210.384C306.33 217.054 289.433 248.622 286.225 257.263C284.034 263.162 282.779 269.091 281.766 275.281C283.763 281.112 286.807 286.708 289.557 292.224C294.49 280.488 298.76 268.475 305.663 257.687C312.596 246.853 321.782 238.414 334.621 235.655C329.965 248.411 315.836 260.299 307.183 270.845C301.214 278.119 295.692 285.795 290.061 293.334C294.878 300.552 297.517 309.211 301.481 316.931C302.619 313.416 303.743 309.892 305.296 306.533C311.095 293.993 323.582 278.222 337.134 273.549C339.618 272.692 342.608 272.153 345.043 273.395L345.403 274.508C344.84 276.618 343.458 278.344 342.212 280.108C335.226 289.996 325.022 297.431 315.753 305.061C311.606 308.474 306.788 311.933 303.859 316.498C303.759 316.654 303.663 316.813 303.565 316.971L303.329 324.975C300.241 320.124 298.414 314.398 295.84 309.246C292.209 309.988 288.684 310.867 285.13 311.916C277.779 314.332 270.334 316.826 262.606 317.667C256.644 318.315 240.385 318.3 235.894 314.28C235.103 313.572 234.545 312.791 234.453 311.713C234.841 311.171 234.838 311.104 235.463 310.64C243.914 304.361 283.518 307.055 295.184 308.007C293.051 304.053 291.391 299.774 289.487 295.697C286.697 289.725 283.683 283.849 280.688 277.978C278.863 274.399 277.124 270.381 274.575 267.253C273.27 265.652 270.655 265.413 268.696 265.306C257.546 264.698 246.462 267.678 235.166 266.438C226.817 265.522 219.041 262.863 211.578 259.094C212.113 258.851 212.65 258.618 213.198 258.405C231.982 251.121 256.401 257.423 274.116 264.942C270.932 256.764 267.678 247.483 261.497 241.077C252.337 238.386 243.272 239.414 233.888 239.23C227.114 239.097 220.042 238.151 213.525 236.296C211.758 235.793 209.094 235.177 207.701 233.97C206.697 233.1 206.585 232.902 206.541 231.672C206.984 231.126 207.395 230.684 208.04 230.369C220.096 224.49 248.847 235.434 261.506 239.751C257.239 232.96 252.806 225.851 247.817 219.582C234.691 217.414 216.659 221.069 204.755 215.233C202.179 213.971 198.499 211.349 197.601 208.526C197.85 207.803 197.763 207.532 198.496 207.137C207.199 202.449 238.53 215.769 248.009 218.867C243.166 213.579 238.437 208.319 232.547 204.155C221.669 196.463 208.931 191.652 198.877 182.682C196.237 180.328 191.213 175.538 191.542 171.727C191.611 170.929 191.711 170.263 192.338 169.731C193.269 168.942 194.456 168.698 195.65 168.737C207.834 169.141 222.517 188.77 230.043 197.241L246.991 216.035C247.169 208.495 245.79 201.215 244.808 193.765C243.575 184.417 243.453 174.581 249.475 166.744Z"/>
	<path fill="#CD9072" d="M483.789 68.685C489.356 67.9412 495.356 68.2587 500.866 69.3232C514.566 71.9699 526.012 79.6625 533.79 91.2127C543.929 106.27 549.269 127.702 545.548 145.65C542.942 158.216 535.686 169.396 524.86 176.375C505.087 189.122 481.39 186 459.61 181.341C440.538 176.901 420.66 170.213 404.838 158.341C398.997 153.958 393.404 148.111 392.467 140.54C391.565 133.26 395.088 126.539 399.379 120.939C412.091 104.346 437.401 85.4592 456.407 76.7109C465.261 72.6351 474.122 69.9217 483.789 68.685Z"/>
	<path d="M675.791 115.888C689.739 125.278 706.178 138.969 719.02 150.103C719.071 145.193 717.556 123.477 720.196 120.743C721.519 119.372 724.219 119.005 726.019 118.75C732.241 117.869 744.104 116.803 749.32 120.775C750.082 121.977 750.175 123.019 750.266 124.404C750.587 129.291 750.112 134.426 750.083 139.341C750.037 147.158 750.282 154.989 750.445 162.805L750.475 175.495L783.025 201.661C789.523 206.945 796.419 212.147 802.346 218.072C799.547 223.061 796.624 226.578 792.04 230.045C781.92 222.037 771.575 214.085 761.988 205.44C763.339 240.451 763.385 275.485 764.794 310.499L661.329 311.638C636.54 311.897 611.769 312.565 586.977 312.495C587.162 297.705 586.519 282.887 586.647 268.081C586.819 248.132 587.705 228.054 586.979 208.116C578.654 214.716 570.256 221.138 561.489 227.145C557.111 224.089 553.543 219.511 550.053 215.506C559.399 205.911 574.063 195.858 584.76 187.281C614.847 163.158 645.446 139.683 675.791 115.888Z"/>
	<path fill="#77C6D3" d="M721.569 272.244L729.489 272.28C729.511 278.08 729.65 283.88 729.758 289.679C725.47 289.919 721.168 290.034 716.875 290.205L708.519 290.502C708.475 284.526 708.216 278.537 708.04 272.563C712.528 272.238 717.069 272.303 721.569 272.244Z"/>
	<path fill="#77C6D3" d="M722.328 250.283L728.635 250.055C729 256.706 729.254 263.362 729.526 270.017C724.049 270.364 718.586 270.811 713.118 271.283C711.568 271.661 709.662 271.51 708.06 271.554C707.784 264.618 707.723 257.669 707.597 250.729C712.5 250.507 717.421 250.429 722.328 250.283Z"/>
	<defs>
		<linearGradient id="gradient_0" gradientUnits="userSpaceOnUse" x1="734.26526" y1="169.88321" x2="735.73627" y2="143.08943">
			<stop offset="0" stop-color="#0E929E"/>
			<stop offset="1" stop-color="#2FB8AB"/>
		</linearGradient>
	</defs>
	<path fill="url(#gradient_0)" d="M723.717 139.831C726.211 142.786 730.011 143.541 733.733 143.849C738.232 144.22 742.587 143.64 747.001 142.829L746.963 173.146C739.421 166.738 731.85 160.377 724.027 154.312C723.835 149.478 723.721 144.669 723.717 139.831Z"/>
	<path fill="#77C6D3" d="M723.496 123.036C731.233 122.78 738.952 122.737 746.694 122.768C747.104 129.45 747.022 136.138 747.001 142.829C742.587 143.64 738.232 144.22 733.733 143.849C730.011 143.541 726.211 142.786 723.717 139.831C723.617 134.233 723.51 128.636 723.496 123.036Z"/>
	<path fill="#BADEE3" d="M675.298 120.083L679.424 123.31C666.516 131.197 655.136 141.306 643.267 150.641L582.054 198.907C573.613 205.576 565.487 213.885 556.348 219.424L552.914 215.648C559.244 210.408 565.987 205.572 572.494 200.549L606.215 174.213C629.176 156.179 651.825 137.428 675.298 120.083Z"/>
	<path fill="#77C6D3" d="M679.424 123.31L763.75 191.379C769.824 196.247 775.908 201.102 781.857 206.124C787.341 210.753 792.732 215.791 798.743 219.727C797.387 222.024 796.053 224.331 794.583 226.557C769.424 207.786 745.433 187.31 720.83 167.798L693.575 146.377C687.793 141.851 681.499 137.46 676.362 132.204C668.036 137.248 660.615 143.962 653.081 150.106L618.842 177.95L581.977 207.356C574.904 213.005 567.221 218.526 560.849 224.959L556.348 219.424C565.487 213.885 573.613 205.576 582.054 198.907L643.267 150.641C655.136 141.306 666.516 131.197 679.424 123.31Z"/>
	<path fill="#77C6D3" d="M676.052 137.039C689.033 145.465 700.604 155.974 712.527 165.8L757.461 202.09C757.538 236.88 758.869 271.716 759.612 306.498C734.256 306.553 708.882 307.261 683.529 307.689C683.519 289.128 683.277 270.588 682.917 252.031C689.447 251.613 695.984 251.323 702.52 251.017L703.18 294.519C713.422 294.145 723.665 293.947 733.911 293.751C733.717 288.878 733.621 284.001 733.506 279.125C733.539 268.15 732.739 257.161 732.398 246.19C722.697 244.121 689.182 246.355 677.478 247.031C677.343 267.288 678.266 287.459 679.004 307.695L590.599 308.494L591.966 204.621C601.447 196.484 611.465 188.854 621.212 181.033L676.052 137.039Z"/>
	<path d="M624.298 245.71C630.969 245.318 637.718 245.488 644.401 245.49C645.018 259.699 645.154 273.775 644.933 287.989L635.125 288.468C628.134 288.637 621.122 289.146 614.139 289.529C613.392 275.096 613.901 261.004 614.778 246.593C617.903 246.078 621.139 245.952 624.298 245.71Z"/>
	<path fill="#77C6D3" d="M623.418 249.26C629.101 249.004 634.792 249.037 640.479 249.016L640.672 263.463C633.012 264.177 625.452 263.693 618.044 266.112C618.653 266.203 619.265 266.277 619.872 266.372C624.481 267.095 637.976 265.368 640.593 267.555L640.796 283.495C633.317 283.466 625.838 283.887 618.368 284.224C618.09 272.602 618.074 260.973 618 249.348L623.418 249.26Z"/>
	<path d="M673.564 176.071C677.665 176.004 681.4 176.112 685.159 178.021C689.642 180.298 692.744 184.536 694.299 189.244C696.431 195.7 695.733 202.946 692.512 208.923C688.953 215.529 683.452 218.557 676.502 220.534C672.185 220.428 668.095 220.025 664.203 217.947C659.39 215.376 656.111 210.914 654.738 205.661C653.125 199.489 654.108 192.723 657.377 187.25C661.144 180.945 666.652 177.824 673.564 176.071Z"/>
	<path fill="#19608A" d="M674.436 180.571C678.121 180.279 681.269 180.668 684.395 182.796C687.96 185.224 689.958 189.251 690.608 193.434C691.484 199.073 690.259 205.356 686.677 209.891C683.511 213.9 679.956 215.171 675.115 215.87C672.546 215.955 669.654 215.576 667.32 214.489C663.564 212.74 660.928 209.913 659.537 205.998C657.81 201.139 658.194 195.631 660.553 191.052C663.576 185.184 668.451 182.573 674.436 180.571Z"/>
	<path fill="#CD9072" d="M750.445 162.805C759.338 157.549 768.223 152.164 777.7 148.01C800.52 138.006 826.889 135.899 850.993 142.148C887.016 151.488 914.535 180.264 932.8 211.509C958.796 255.978 965.923 310.355 952.766 360.07C942.812 397.684 920.263 430.017 907.235 466.425C901.865 481.433 897.069 496.711 893.378 512.224C888.102 534.397 884.547 557.433 874.731 578.209C867.84 592.793 858.018 607.509 843.751 615.747C834.888 620.865 824.954 622.516 814.812 622.516C813.978 616.709 814.216 610.262 813.999 604.364C813.351 586.733 813.414 569.104 813.018 551.47L809.131 402.036C808.904 391.009 808.563 379.99 808.465 368.961C808.375 358.877 808.926 348.237 807.147 338.302C806.28 333.463 804.111 329.255 800.59 325.788C797.405 322.653 793.845 320.889 789.444 320.246C781.722 319.119 773.463 319.745 765.672 319.847L735.083 319.985L625.165 320.899C612.44 321.038 599.721 321.534 586.995 321.528L586.977 312.495C611.769 312.565 636.54 311.897 661.329 311.638L764.794 310.499C763.385 275.485 763.339 240.451 761.988 205.44C771.575 214.085 781.92 222.037 792.04 230.045C796.624 226.578 799.547 223.061 802.346 218.072C796.419 212.147 789.523 206.945 783.025 201.661L750.475 175.495L750.445 162.805Z"/>
	<path fill="#82B26B" d="M154.229 254.578C151.522 245.261 146.07 236.993 143.093 227.818C141.384 222.554 139.448 215.018 142.279 209.889C143.058 208.477 144.27 207.236 145.902 206.889C147.463 206.557 148.981 207.231 150.127 208.251C159.638 216.714 155.736 243.131 156.181 254.905C159.206 271.839 165.102 294.218 171.138 310.409C171.303 310.139 171.473 309.872 171.634 309.599C177.495 299.645 176.164 288.414 185.867 278.267C187.182 276.892 189.003 275.222 190.855 274.616C191.835 274.296 192.408 274.316 193.4 274.472C194.362 275.417 194.54 275.623 194.554 277.073C194.609 282.703 176.463 306.497 171.57 311.294C174.281 322.683 181.275 332.701 185.643 343.416C185.74 343.278 185.84 343.141 185.935 343.002C188.128 339.798 188.947 336.087 189.954 332.396C192.48 323.137 194.926 313.509 201.4 306.121C202.501 304.865 203.949 303.152 205.572 302.646C205.737 302.594 205.912 302.586 206.082 302.556C206.962 303.414 206.912 303.518 206.953 304.709C207.231 312.808 192.395 337.761 186.586 343.746C186.423 343.914 186.256 344.078 186.09 344.243C189.681 351.056 193.673 357.609 197.803 364.107C200.373 367.585 202.551 371.16 205.44 374.414C208.58 358.916 206.664 351.124 216.224 336.985C218.021 333.475 221.523 327.389 225.228 325.783C226.505 325.229 226.796 325.284 228.023 325.706L228.878 327.67C223.324 331.011 218.576 333.9 216.667 340.502C216.429 342.933 216.277 346.333 215.132 348.475L214.953 369.914C216.082 420.331 215.789 470.725 215.974 521.149L217.495 668.598L217.995 735.421C218 747.831 217.006 761.007 218.456 773.319C219.113 778.904 221.367 784.269 225.458 788.227C233.23 795.747 244.469 795.133 254.503 794.727C270.477 794.079 286.37 794.222 302.343 793.882C314.788 793.617 327.379 792.8 339.816 793.057C308.889 821.58 277.742 843.488 233.698 843.862C194.35 844.195 157.042 827.164 129.243 799.811C79.8981 751.255 46.3638 653.795 46.0027 585.448C45.7477 537.197 61.2012 499.164 100.637 469.8C114.042 459.82 128.61 451.93 141.488 441.118C161.206 424.564 176.822 404.196 194.863 385.98L193.793 386.193C184.983 387.863 161.028 390.077 153.493 384.968L153.371 384.264C153.814 383.753 153.833 383.683 154.476 383.226C156.157 382.032 158.79 381.3 160.757 380.68C173.898 376.538 187.44 378.193 200.687 380.84L204.853 377.058C202.055 372.984 199.546 368.715 196.981 364.491C194.243 360.283 191.947 355.691 186.74 354.39C162.485 351.695 146.451 356.83 122.289 344.844C123.443 338.962 123.291 329.256 124.912 324.459C124.317 330.06 124.277 335.857 123.875 341.493C141.302 336.655 157.635 343.668 173.888 349.372C178.72 351.067 183.827 353.121 188.974 353.463C187.146 348.269 183.485 342.972 180.975 338.004C178.362 332.831 176.329 327.381 173.403 322.371C170.914 321.903 168.453 321.449 166.021 320.732C153.14 319.563 124.633 311.149 116.225 301.544C133.708 299.52 153.243 308.556 167.353 318.174L172.681 320.219C168.374 308.236 164.826 296.138 160.831 284.065L156.072 281.51C145.183 276.827 125.896 264.964 120.353 254.759C119.645 253.456 119.51 252.509 119.97 251.12L121.219 250.524C130.153 250.749 149.729 273.227 157.072 280.113C158.146 280.915 158.942 281.475 160.228 281.919C160.151 278.565 158.342 274.283 157.565 270.94C156.305 265.525 155.302 260.033 154.229 254.578ZM206.43 375.955C209.272 373.95 212.162 371.989 214.953 369.914L215.132 348.475C209.002 354.335 208.894 367.956 206.43 375.955Z"/>
	<path fill="#FEFEFE" d="M441.679 323.413C443.173 310.543 443.876 295.672 451.768 284.81C456.125 278.814 463.314 276.478 470.33 275.382C485.436 273.024 523.915 270.643 536.276 280.019C547.631 288.632 550.135 308.838 551.721 322.007C563.481 322.11 575.228 321.422 586.995 321.528C599.721 321.534 612.44 321.038 625.165 320.899L735.083 319.985L765.672 319.847C773.463 319.745 781.722 319.119 789.444 320.246C793.845 320.889 797.405 322.653 800.59 325.788C804.111 329.255 806.28 333.463 807.147 338.302C808.926 348.237 808.375 358.877 808.465 368.961C808.563 379.99 808.904 391.009 809.131 402.036L813.018 551.47C813.414 569.104 813.351 586.733 813.999 604.364C814.216 610.262 813.978 616.709 814.812 622.516C815.327 638.178 815.375 653.827 815.716 669.488C815.874 676.76 816.777 684.22 816.454 691.466L816.831 692.155C816.533 695.055 816.447 697.891 816.435 700.805L816.934 700.81L817.059 709.46L816.975 712.394C817.021 714.074 816.947 715.848 817.237 717.502C817.423 720.677 817.483 723.832 817.495 727.011C817.498 729.448 817.612 731.936 817.472 734.366L817.564 734.802L817.611 742.62C817.526 745.33 817.606 747.858 817.931 750.554C818.476 757.345 818.179 764.159 818.692 770.921C817.53 773.254 815.967 775.294 814.786 777.565L814.518 777.812L813.408 778.982C807.871 783.108 802.455 786.182 795.409 786.662L795.043 786.541L691.516 787.483C655.881 787.716 620.014 787.487 584.439 789.593C588.608 803.146 591.006 817.595 594.151 831.431C597.985 848.296 602.749 865.413 605.206 882.515C609.907 882.48 625.915 881.471 628.957 883.791C629.08 883.885 629.177 884.009 629.286 884.118C629.122 885.165 629.037 885.242 628.202 885.863C626.689 886.988 624.427 887.026 622.618 887.063C572.372 888.097 522.017 887.998 471.75 888.634C456.553 888.826 441.375 889.483 426.174 889.617C419.547 889.675 412.368 890.202 405.827 889.1C405.089 888.976 404.471 888.773 403.799 888.449L403.446 887.682C404.88 885.955 407.273 885.489 409.407 885.276C414.801 884.738 420.31 884.768 425.73 884.759C433.358 853.726 439.348 822.385 447.67 791.5C422.67 791.43 397.696 792.216 372.702 792.522C363.867 792.63 348.035 791.17 339.816 793.057C327.379 792.8 314.788 793.617 302.343 793.882C286.37 794.222 270.477 794.079 254.503 794.727C244.469 795.133 233.23 795.747 225.458 788.227C221.367 784.269 219.113 778.904 218.456 773.319C217.006 761.007 218 747.831 217.995 735.421L217.495 668.598L215.974 521.149C215.789 470.725 216.082 420.331 214.953 369.914L215.132 348.475C216.277 346.333 216.429 342.933 216.667 340.502C218.576 333.9 223.324 331.011 228.878 327.67C242.374 323.22 261.154 325.023 275.369 324.93L324.296 324.448L441.679 323.413ZM441.679 323.413L324.296 324.448L275.369 324.93C261.154 325.023 242.374 323.22 228.878 327.67C223.324 331.011 218.576 333.9 216.667 340.502C216.429 342.933 216.277 346.333 215.132 348.475L214.953 369.914C216.082 420.331 215.789 470.725 215.974 521.149L217.495 668.598L217.995 735.421C218 747.831 217.006 761.007 218.456 773.319C219.113 778.904 221.367 784.269 225.458 788.227C233.23 795.747 244.469 795.133 254.503 794.727C270.477 794.079 286.37 794.222 302.343 793.882C314.788 793.617 327.379 792.8 339.816 793.057C348.035 791.17 363.867 792.63 372.702 792.522C397.696 792.216 422.67 791.43 447.67 791.5C439.348 822.385 433.358 853.726 425.73 884.759C420.31 884.768 414.801 884.738 409.407 885.276C407.273 885.489 404.88 885.955 403.446 887.682L403.799 888.449C404.471 888.773 405.089 888.976 405.827 889.1C412.368 890.202 419.547 889.675 426.174 889.617C441.375 889.483 456.553 888.826 471.75 888.634C522.017 887.998 572.372 888.097 622.618 887.063C624.427 887.026 626.689 886.988 628.202 885.863C629.037 885.242 629.122 885.165 629.286 884.118C629.177 884.009 629.08 883.885 628.957 883.791C625.915 881.471 609.907 882.48 605.206 882.515C602.749 865.413 597.985 848.296 594.151 831.431C591.006 817.595 588.608 803.146 584.439 789.593C620.014 787.487 655.881 787.716 691.516 787.483L795.043 786.541L795.409 786.662C802.455 786.182 807.871 783.108 813.408 778.982L814.518 777.812L814.786 777.565C815.967 775.294 817.53 773.254 818.692 770.921C818.179 764.159 818.476 757.345 817.931 750.554C817.606 747.858 817.526 745.33 817.611 742.62L817.564 734.802L817.472 734.366C817.612 731.936 817.498 729.448 817.495 727.011C817.483 723.832 817.423 720.677 817.237 717.502C816.947 715.848 817.021 714.074 816.975 712.394C815.397 712.212 814.057 711.748 812.567 711.211L808.65 709.435C806.128 710.934 804.924 712.102 803.54 714.651L805.149 716.766C802.74 717.515 800.497 718.151 798.286 719.356C798.228 719.388 798.156 719.384 798.091 719.398L798.333 720.483L796.488 722.301C797.912 723.698 798.075 724.428 798.091 726.414C798.105 728.242 798.056 730.074 798.015 731.902C798.335 734.852 798.695 737.672 799.404 740.56C798.784 741.837 798.296 742.379 797.157 743.223L798.673 744.459L798.448 745.147L799.385 746.194L799.538 752.114C795.77 753.893 792.83 753.81 788.808 754.441C784.142 754.572 779.419 754.989 774.761 754.973L771.897 755.014L769.619 755.041C767.398 756.812 765.016 758.363 762.177 758.891C747.301 761.657 729.167 759.792 713.847 760.178L579.536 763.013C565.233 763.384 546.977 762.199 533.294 763.764C518.521 764.539 503.79 764.213 489.012 764.434L382.765 765.284L296.589 765.993C286.11 765.98 275.453 766.352 264.991 765.888C263.749 765.833 262.499 765.811 261.445 765.087C257.014 764.503 246.873 766.3 243.585 763.541C240.254 760.746 240.976 752.352 240.946 748.326L236.486 385.91C238.189 378.953 236.899 354.202 236.797 345.658C238.265 344.243 239.762 343.124 241.466 342.007C250.588 341.977 259.702 342.821 268.786 342.74C274.341 342.691 279.954 341.983 285.481 341.441C366.96 342.009 448.491 340.397 529.968 339.639L692.874 337.593C723.673 337.201 754.49 337.327 785.28 336.432L786.259 337.628L787.046 337.454C789.111 340.182 790.291 342.41 791.039 345.753C792.706 353.202 792.206 361.445 792.362 369.062C792.613 381.266 792.75 393.603 793.523 405.779C795.345 417.275 795.207 428.184 794.611 439.763C797.477 439.741 799.973 439.216 802.728 438.506C803.869 433.166 803.246 427.826 803.565 422.424C804.122 427.812 804.039 433.252 804.307 438.66C805.445 461.618 805.285 484.642 806.132 507.606L809.144 607.248C809.971 634.753 811.076 662.119 810.977 689.65L816.454 691.466C816.777 684.22 815.874 676.76 815.716 669.488C815.375 653.827 815.327 638.178 814.812 622.516C813.978 616.709 814.216 610.262 813.999 604.364C813.351 586.733 813.414 569.104 813.018 551.47L809.131 402.036C808.904 391.009 808.563 379.99 808.465 368.961C808.375 358.877 808.926 348.237 807.147 338.302C806.28 333.463 804.111 329.255 800.59 325.788C797.405 322.653 793.845 320.889 789.444 320.246C781.722 319.119 773.463 319.745 765.672 319.847L735.083 319.985L625.165 320.899C612.44 321.038 599.721 321.534 586.995 321.528C575.228 321.422 563.481 322.11 551.721 322.007C550.135 308.838 547.631 288.632 536.276 280.019C523.915 270.643 485.436 273.024 470.33 275.382C463.314 276.478 456.125 278.814 451.768 284.81C443.876 295.672 443.173 310.543 441.679 323.413Z"/>
	<path d="M261.518 391.622C264.917 391.432 269.582 390.929 272.44 393.125C272.073 393.791 272.088 393.973 271.399 394.354C268.519 394.65 264.212 395.583 261.534 394.339C260.725 393.963 260.967 394 260.639 393.046L261.518 391.622Z"/>
	<path d="M262.37 423.152C265.229 423.036 269.236 422.347 271.646 424.142C271.859 425.428 271.612 425.482 270.896 426.598C267.947 426.739 263.174 427.231 260.841 425.311C261.069 423.949 261.372 424.021 262.37 423.152Z"/>
	<path d="M270.368 546.729C271.427 546.735 272.737 546.693 273.753 547.024C274.858 547.384 275.62 547.947 276.108 548.989C273.797 550.773 269.318 550.281 266.477 550.311C265.743 550.255 265.009 550.197 264.278 550.107C262.618 549.904 261.65 549.582 260.568 548.218L260.99 547.487C263.862 546.552 267.347 546.801 270.368 546.729Z"/>
	<path d="M259.718 453.766C261.664 453.633 263.663 453.433 265.613 453.522C267.964 453.628 271.507 453.956 273.15 455.774C272.46 456.537 271.838 456.729 270.882 457.065C270.264 457.156 269.644 457.224 269.022 457.282C265.503 457.612 260.934 457.693 258.099 455.314C258.643 454.21 258.581 454.217 259.718 453.766Z"/>
	<path d="M261.052 516.67C264.677 516.454 268.591 515.988 272.16 516.867C273.861 517.287 274.118 517.635 275.045 519.106L274.356 518.491L273.72 519.815L272.609 519.917C269.128 520.294 262.439 520.853 259.58 518.71L259.528 517.895L261.052 516.67Z"/>
	<path d="M259.379 485.58C263.09 485.45 270.086 484.236 273.157 486.351C273.494 487.645 273.338 487.671 272.736 488.89C269.436 489.115 265.579 489.683 262.309 489.175C260.758 488.934 259.968 488.535 259.063 487.27L259.379 485.58Z"/>
	<path d="M463.811 684.651C469.785 680.33 519.229 649.706 523.497 648.985C522.785 652.185 519.348 653.936 516.689 655.619C511.14 659.131 467.919 685.673 465.672 686.162C464.541 685.739 464.497 685.655 463.811 684.651Z"/>
	<path fill="#82B26B" d="M799.48 705.269C797.423 706.205 795.166 707.201 792.973 707.766C785.927 709.582 775.134 708.87 768.893 704.914C767.757 704.194 767.447 703.755 767.161 702.469C767.465 701.968 767.466 701.895 767.98 701.455C773.607 696.642 790.913 700.755 797.688 702.155C798.187 703.341 798.596 704.301 799.48 705.269Z"/>
	<path fill="#82B26B" d="M762.611 730.677C773.628 729.846 784.808 730.392 795.799 731.365C788.369 732.793 781.047 734.493 773.721 736.378C767.058 738.477 755.341 742.385 748.335 740.21C747.072 739.817 746.733 739.417 746.108 738.293C746.23 737.312 746.381 736.889 747.015 736.089C750.297 731.947 757.721 731.235 762.611 730.677Z"/>
	<path fill="#82B26B" d="M804.495 707.317C805.909 707.967 807.357 708.561 808.65 709.435C806.128 710.934 804.924 712.102 803.54 714.651L805.149 716.766C802.74 717.515 800.497 718.151 798.286 719.356C798.228 719.388 798.156 719.384 798.091 719.398L798.333 720.483L796.488 722.301C795.968 721.546 795.223 720.283 794.324 719.919C790.06 718.189 755.806 724.252 750.288 718.719C749.734 718.163 749.953 718.187 750.033 717.29C750.587 716.57 751.096 715.945 751.841 715.411C759.842 709.675 788.153 711.319 797.824 713.284C798.284 713.108 798.744 712.934 799.197 712.741C802.149 711.486 803.295 710.297 804.495 707.317Z"/>
	<path d="M798.091 719.398C797.969 717.712 797.637 716.04 798.413 714.474C799.867 713.745 801.968 714.389 803.54 714.651L805.149 716.766C802.74 717.515 800.497 718.151 798.286 719.356C798.228 719.388 798.156 719.384 798.091 719.398Z"/>
	<path fill="#82B26B" d="M797.157 743.223L798.673 744.459L798.448 745.147L799.385 746.194L799.538 752.114C795.77 753.893 792.83 753.81 788.808 754.441C784.142 754.572 779.419 754.989 774.761 754.973L771.897 755.014L769.619 755.041C759.824 754.816 749.986 755.003 740.185 755C750.321 746.088 770.188 745.859 783.18 744.966C787.82 744.648 792.699 744.639 797.157 743.223Z"/>
	<path fill="#FEFEFE" d="M798.448 745.147L799.385 746.194L799.538 752.114C795.77 753.893 792.83 753.81 788.808 754.441C784.142 754.572 779.419 754.989 774.761 754.973C778.734 751.604 792.455 747.888 798.448 745.147Z"/>
	<path d="M366.671 588.592C366.592 588.417 366.51 588.243 366.435 588.066C366.142 587.38 366.197 587.668 366.206 587.033L366.892 586.068C375.406 585.088 393.877 592.979 401.24 597.387C404.372 599.262 407.474 601.603 410.34 603.856C428.024 617.755 435.666 637 438.104 658.877C438.42 661.715 439.085 665.484 437.851 668.143C436.291 668.799 434.174 668.264 432.539 667.952C426.377 666.776 420.305 664.721 414.214 663.203C400.147 659.696 386.021 656.307 371.868 653.17C368.041 651.728 363.93 650.797 359.988 649.699C360.034 641.145 357.795 611.975 359.745 605.906C361.091 606.568 361.832 606.63 362.304 608.21C364.92 616.978 359.559 643.286 365.382 648.612C368.54 648.536 375.375 650.96 378.784 651.743L435.753 665.183C434.264 650.807 431.991 636.267 424.361 623.708C410.931 601.603 390.496 594.399 366.671 588.592Z"/>
	<path d="M320.879 509.75C327.899 509.426 334.948 509.518 341.975 509.51C341.962 521.163 342.441 532.831 342.502 544.49L331.875 544.501C325.264 544.505 318.629 544.822 312.02 545.016C311.535 533.355 311.424 521.689 311.28 510.02L320.879 509.75Z"/>
	<path fill="#CD9072" d="M317.202 512.764C324.468 512.434 331.765 512.518 339.038 512.495C339.834 521.348 340.88 532.032 339.409 540.809C338.49 541.697 337.852 541.447 336.625 541.495L314.692 542.014C314.528 536.941 312.803 516.195 314.98 513.051L317.202 512.764Z"/>
	<path d="M786.259 337.628L787.046 337.454C789.111 340.182 790.291 342.41 791.039 345.753C792.706 353.202 792.206 361.445 792.362 369.062C792.613 381.266 792.75 393.603 793.523 405.779C792.251 415.657 793.668 425.614 793.921 435.505L795.883 505.359L798.863 638.501L799.832 676.502C799.983 680.969 799.223 686.521 800.326 690.815L801.01 691.309C804.358 689.255 807.228 689.41 810.977 689.65L816.454 691.466L816.831 692.155C816.533 695.055 816.447 697.891 816.435 700.805L816.934 700.81L817.059 709.46L816.975 712.394C815.397 712.212 814.057 711.748 812.567 711.211L808.65 709.435C807.357 708.561 805.909 707.967 804.495 707.317L802.7 706.306L799.48 705.269C798.596 704.301 798.187 703.341 797.688 702.155C795.956 673.382 796.225 644.443 795.392 615.63L789.926 433.214L788.215 374.927C787.904 362.56 788.547 349.832 786.259 337.628Z"/>
	<path fill="#FEFEFE" d="M801.01 691.309C804.358 689.255 807.228 689.41 810.977 689.65L816.454 691.466L816.831 692.155C816.533 695.055 816.447 697.891 816.435 700.805C810.764 698.113 805.871 695.302 801.01 691.309Z"/>
	<path fill="#345146" d="M801.397 693.173L810.714 699.606C811.883 703.455 812.539 707.176 812.567 711.211L808.65 709.435C807.357 708.561 805.909 707.967 804.495 707.317L802.7 706.306C802.319 701.921 801.872 697.549 801.397 693.173Z"/>
	<path d="M684.171 575.137C684.973 575.192 685.773 575.251 686.572 575.334C704.325 577.188 725.409 589.734 736.575 603.475C744.891 613.71 754.898 632.305 753.477 645.957C752.701 646.966 752.698 647.074 751.485 647.398C748.547 644.83 748.874 635.301 747.599 631.313C745.872 625.913 743.706 620.703 740.808 615.822C728.582 595.229 709.264 584.695 686.688 578.83C681.799 603.065 679.788 628.441 675.558 652.975C683.319 653.082 732.294 651.408 735.414 654.163C735.951 655.654 736.084 656.906 736.038 658.495C735.567 674.594 728.212 691.136 716.669 702.297C705.726 712.876 691.301 718.515 676.084 718.194C658.152 717.815 641.823 710.353 629.575 697.297C617.41 684.329 610.761 667.256 611.435 649.451C612.037 633.535 618.884 618.275 630.675 607.508C639.2 599.723 659.199 589.948 670.636 590.74C673.014 590.904 674.046 591.621 675.546 593.433C675.262 593.564 674.98 593.699 674.694 593.825C670.058 595.853 663.597 595.926 658.576 597.117C640.738 601.349 626.488 612.384 619.333 629.444C613.307 643.812 613.574 660.727 619.458 675.099C625.888 690.804 638.455 703.278 654.116 709.794C667.993 715.568 683.598 716.248 697.575 710.401C711.259 704.676 721.729 693.623 727.282 679.925C730.366 672.319 731.859 664.146 732.68 656.009C721.644 656.009 710.594 655.905 699.561 656.109C690.698 656.274 681.782 657.281 672.973 656.034C672.881 636.056 678.296 616.269 680.46 596.478C680.78 589.432 681.601 581.733 684.171 575.137Z"/>
	<path d="M384.686 479.713C385.395 479.712 385.652 479.855 386.281 480.149C387.604 486.936 387.461 494.425 387.726 501.336C388.258 515.188 388.977 529.153 387.868 542.99C379.2 544.636 369.221 543.87 360.375 543.972L358.546 543.857C356.723 541.268 356.561 488.573 356.515 480.715C365.908 480.479 375.297 480.085 384.686 479.713Z"/>
	<path fill="#CD9072" d="M380.4 482.717C381.188 482.712 381.961 482.823 382.743 482.907C384.996 485.887 384.877 533.529 384.987 540.506L363.875 541.003C362.883 541.042 362.282 540.987 361.355 540.625C359.499 536.118 359.621 492.302 359.473 483.762L380.4 482.717Z"/>
	<path d="M740.185 755C749.986 755.003 759.824 754.816 769.619 755.041C767.398 756.812 765.016 758.363 762.177 758.891C747.301 761.657 729.167 759.792 713.847 760.178L579.536 763.013C565.233 763.384 546.977 762.199 533.294 763.764C518.521 764.539 503.79 764.213 489.012 764.434L382.765 765.284L296.589 765.993C286.11 765.98 275.453 766.352 264.991 765.888C263.749 765.833 262.499 765.811 261.445 765.087L542.062 758.698L650 756.672C680.081 756.235 710.112 756.09 740.185 755Z"/>
	<path d="M691.064 587.284C694.625 587.544 697.953 588.651 701.233 590.005C718.102 596.966 731.956 610.728 738.852 627.603C740.658 632.022 744.681 642.272 742.766 646.842C740.174 648.619 735.654 647.89 732.626 647.742C716.294 648.573 697.659 650.211 681.533 648.194C681.252 630.482 686.977 604.701 691.064 587.284Z"/>
	<path fill="#CD9072" d="M693.796 591.207C699.278 593.37 704.642 595.531 709.662 598.663C726.778 609.342 735.518 624.96 739.911 644.29L729.498 644.497C714.531 644.923 699.365 645.642 684.406 644.896C688.134 627.168 690.427 609.033 693.796 591.207Z"/>
	<path d="M689.693 632.196C690.46 632.338 691.188 632.503 691.912 632.803C694.146 633.726 696.1 635.548 696.978 637.81C697.816 639.972 697.355 641.341 696.443 643.332C694.06 641.786 691.319 638.078 689.885 635.599C689.091 634.226 689.315 633.705 689.693 632.196Z"/>
	<path d="M691.475 622.308C692.62 622.411 693.717 622.579 694.816 622.932C700.16 624.649 705.807 628.587 708.319 633.736C709.644 636.452 709.767 638.287 708.783 641.105C704.65 639.877 703.213 633.237 700.391 630.129C698.466 628.008 694.934 627.626 692.774 625.704C691.57 624.632 691.594 623.846 691.475 622.308Z"/>
	<path d="M693.436 611.201C701.5 613.643 708.78 618.141 714.203 624.646C718.007 629.211 720.341 634.117 719.81 640.173C714.239 637.235 712.345 628.1 707.857 623.474C704.482 619.995 699.409 619.265 695.699 616.299C693.774 614.759 693.633 613.516 693.436 611.201Z"/>
	<path d="M693.333 600.977C694.151 601.036 694.967 601.1 695.781 601.2C706.612 602.527 717.3 612.143 723.601 620.492C727.787 626.038 731.681 632.692 730.685 639.859L729.567 639.704C724.563 633.959 722.626 623.999 716.38 617.853C713.971 615.483 711.204 613.341 708.33 611.568C703.943 608.862 695.451 605.955 693.333 600.977Z"/>
	<path fill="#345146" d="M793.523 405.779C795.345 417.275 795.207 428.184 794.611 439.763C797.477 439.741 799.973 439.216 802.728 438.506C803.869 433.166 803.246 427.826 803.565 422.424C804.122 427.812 804.039 433.252 804.307 438.66C805.445 461.618 805.285 484.642 806.132 507.606L809.144 607.248C809.971 634.753 811.076 662.119 810.977 689.65C807.228 689.41 804.358 689.255 801.01 691.309L800.326 690.815C799.223 686.521 799.983 680.969 799.832 676.502L798.863 638.501L795.883 505.359L793.921 435.505C793.668 425.614 792.251 415.657 793.523 405.779Z"/>
	<path d="M412.219 457.28C419.76 456.876 427.281 456.785 434.773 457.85C436.405 466.036 438.867 536.025 437.364 541.667C435.095 543.829 430.572 543.358 427.625 543.46C419.758 543.704 412.022 543.86 404.169 543.101C402.375 534.205 403.052 523.986 402.797 514.885C402.454 502.643 401.749 490.414 401.435 478.176C401.355 475.064 400.417 460.228 402.456 458.516C404.559 456.75 409.577 457.308 412.219 457.28Z"/>
	<path fill="#BEA3CF" d="M406.708 461.257C415.252 460.988 423.803 461.028 432.35 461.015C432.773 470.453 435.522 536.794 434.4 539.345L433.125 539.519C424.426 539.543 415.715 539.827 407.017 540.002C406.718 530.857 404.068 465.086 405.384 461.619L406.708 461.257Z"/>
	<path fill="#767699" d="M366.671 588.592C390.496 594.399 410.931 601.603 424.361 623.708C431.991 636.267 434.264 650.807 435.753 665.183L378.784 651.743C375.375 650.96 368.54 648.536 365.382 648.612L366.32 647.857C368.526 642.465 368.561 594.068 366.671 588.592Z"/>
	<path fill="#82B26B" d="M463.811 684.651C463.9 673.693 459.062 663.14 459.384 651.54C459.848 634.795 467.515 618.705 479.642 607.259C491.834 595.751 506.628 588.97 523.508 589.479L523.497 648.985C519.229 649.706 469.785 680.33 463.811 684.651Z"/>
	<path d="M449.774 411.644C457.279 411.351 465.481 410.609 472.94 411.587C474.618 411.807 475.816 412.004 476.884 413.352C478.563 420.551 477.713 429.588 477.814 437.006C477.954 447.382 478.275 457.753 478.598 468.124C479.046 482.501 479.358 496.888 479.973 511.258C480.225 517.17 480.301 523.083 480.532 528.994C480.654 532.106 481.125 535.318 480.967 538.424C480.924 539.265 480.755 540.215 480.288 540.933C479.453 542.22 478.251 542.085 476.889 542.293C467.845 542.745 458.32 543.355 449.31 542.273C447.737 533.615 448.345 523.981 448.059 515.14L446.381 457.529C446.116 447.002 443.412 421.941 445.58 413.142C446.761 412.067 448.261 411.949 449.774 411.644Z"/>
	<path fill="#4182C1" d="M448.268 415.011L473.514 415.009C473.604 427.523 474.286 440.116 474.703 452.628L476.546 514.633C476.77 522.712 477.564 530.743 477.525 538.831C469.08 539.241 460.629 540.065 452.212 538.895C451.285 522.674 451.041 506.381 450.556 490.138L448.268 415.011Z"/>
	<path fill="#3CA59F" d="M531.013 589.739C551.469 593.165 568.812 600.986 581.12 618.293C591.906 633.46 596.613 652.627 593.484 671.003C592.048 679.432 589.216 687.945 584.511 695.131C580.924 691.607 576.808 688.442 572.944 685.213C564.474 678.134 555.906 671.161 547.313 664.231C541.809 659.792 536.085 655.521 530.929 650.682C532.601 630.617 531.084 609.9 531.013 589.739Z"/>
	<path fill="#3CA59F" d="M530.929 650.682C536.085 655.521 541.809 659.792 547.313 664.231C555.906 671.161 564.474 678.134 572.944 685.213C576.808 688.442 580.924 691.607 584.511 695.131L582.518 697.41C577.281 701.517 573.386 707.693 568.103 712.038C555.167 722.681 537.032 727.055 520.56 725.317C498.51 722.989 484.06 710.523 470.542 693.982C489.356 679.589 508.898 666.364 528.162 652.6L530.929 650.682Z"/>
	<path d="M530.929 650.682C536.085 655.521 541.809 659.792 547.313 664.231C555.906 671.161 564.474 678.134 572.944 685.213C576.808 688.442 580.924 691.607 584.511 695.131L582.518 697.41C570.366 688.484 558.937 678.137 547.285 668.546C541.101 663.456 533.437 658.59 528.162 652.6L530.929 650.682Z"/>
	<path fill="#BEA3CF" d="M414.839 674.484C412.85 681.086 410.536 687.464 407.122 693.48C399.458 706.988 386.306 716.752 371.356 720.771C356.155 724.858 340.237 722.811 326.634 714.797C312.993 706.762 303.105 693.225 299.188 677.919C295.297 662.712 297.959 646.743 306.055 633.351C314.298 619.718 329.847 608.465 345.88 606.543C350.004 606.049 355.295 607.16 359.103 606.1C359.318 606.04 359.531 605.97 359.745 605.906C357.795 611.975 360.034 641.145 359.988 649.699C363.93 650.797 368.041 651.728 371.868 653.17C371.439 653.495 371.345 653.494 371.085 654.005C370.227 655.695 369.931 659.865 370.822 661.638C373.095 666.163 407.01 671.962 413.983 674.204L414.839 674.484Z"/>
	<path fill="#CD9072" d="M675.546 593.433C676.297 594.932 677.294 596.526 678.888 597.224C679.079 597.308 679.285 597.353 679.484 597.418C680.347 596.731 680.068 597.086 680.46 596.478C678.296 616.269 672.881 636.056 672.973 656.034C681.782 657.281 690.698 656.274 699.561 656.109C710.594 655.905 721.644 656.009 732.68 656.009C731.859 664.146 730.366 672.319 727.282 679.925C721.729 693.623 711.259 704.676 697.575 710.401C683.598 716.248 667.993 715.568 654.116 709.794C638.455 703.278 625.888 690.804 619.458 675.099C613.574 660.727 613.307 643.812 619.333 629.444C626.488 612.384 640.738 601.349 658.576 597.117C663.597 595.926 670.058 595.853 674.694 593.825C674.98 593.699 675.262 593.564 675.546 593.433Z"/>
	<path d="M752.675 363.144L753.993 363.782C756.238 366.756 755.533 371.352 755.486 374.884C758.088 374.754 761.141 374.297 763.55 375.491C764.525 375.974 764.202 375.652 764.537 376.734C764.404 376.858 764.284 376.998 764.137 377.104C761.926 378.71 758.108 378.096 755.518 377.971C755.45 399.797 756.362 421.651 756.838 443.473L758.655 547.984C761.294 547.964 765.366 547.527 767.515 549.265L767.021 549.959C764.359 550.857 761.735 550.745 758.961 550.758C759.238 555.092 760.189 560.418 758.131 564.411L757.516 564.154C756.015 559.694 756.044 555.412 756.068 550.764C743.367 550.717 730.637 551.165 717.933 551.315L610.259 552.87C581.126 553.268 551.893 552.254 522.783 553.34C522.93 559.326 523.288 565.421 523.043 571.399C522.964 573.344 523.009 577.258 521.6 578.57C518.223 573.988 519.809 559.272 519.987 553.298C488.545 552.922 457.072 554.056 425.636 554.432C379.091 554.988 332.598 555.044 286.065 556.514C286.23 559.822 286.501 563.541 284.396 566.348C283.8 565.283 283.926 565.728 283.736 564.607C282.316 556.192 282.638 546.933 282.372 538.393L280.967 491.25L279.247 420.935C278.981 409.378 278.067 397.43 278.517 385.903C278.595 383.886 278.889 381.507 280.087 379.835L280.711 380.199C283.729 391.597 282.275 416.25 282.61 428.989L285.905 553.014L404.002 551.355C442.644 550.435 481.299 550.407 519.949 549.992L517.454 380.541C498.414 379.683 479.116 380.453 460.064 380.985C459.133 383.067 458.084 385.346 456 386.506C453.791 387.737 451.427 387.049 449.155 386.444L434.251 408.266C434.479 410.053 434.817 412.031 434.428 413.809C433.953 415.978 432.519 418.334 430.613 419.528C429.006 420.535 427.235 420.744 425.422 420.205C422.029 419.194 420.516 416.392 418.991 413.461L409.829 410.447C407.144 413.02 404.42 414.407 401.028 415.78C396.164 425.583 391.684 435.578 387.084 445.507C387.625 446.497 388.126 447.657 388.343 448.769C388.8 451.118 388.354 453.853 386.861 455.763C385.664 457.294 383.918 458.223 381.982 458.368C379.961 458.52 378.081 457.817 376.582 456.458C374.094 454.203 373.946 451.602 373.762 448.454L356.59 442.001C356.359 442.195 356.132 442.393 355.897 442.583C352.734 445.149 350.007 445.431 346.098 444.924C341.151 450.514 336.555 456.463 331.855 462.264C332.232 463.686 332.541 465.29 332.541 466.765C332.541 468.941 331.68 472.455 329.905 473.884C328.484 475.03 326.782 475.255 325.02 474.987C322.152 474.551 319.587 472.883 318.02 470.446C317.007 468.872 316.231 466.568 316.873 464.715C317.431 463.103 318.931 462.098 320.397 461.415C320.599 461.321 320.805 461.236 321.008 461.144C323.374 460.071 325.686 460.359 328.212 460.49C334.368 455.837 338.939 448.703 343.507 442.584C343.083 441.546 342.777 440.489 342.59 439.383C342.159 436.842 342.802 434.201 344.335 432.129C345.505 430.546 347.259 429.5 349.223 429.287C351.163 429.076 353.106 429.736 354.577 431.005C357.374 433.415 357.604 436.334 357.877 439.756C363.692 441.864 369.613 443.74 375.475 445.716C376.017 445.217 376.55 444.72 377.138 444.274C379.858 442.213 382.061 442.496 385.305 442.974C388.869 433.067 393.626 423.654 398.193 414.183C397.481 413.212 396.791 412.25 396.241 411.174C395.101 408.944 394.798 406.39 395.719 404.024C396.436 402.185 397.911 400.729 399.749 400.014C401.723 399.246 403.868 399.425 405.73 400.408C408.855 402.056 409.719 404.915 410.617 408.088C413.669 408.697 416.595 409.859 419.528 410.885C421.037 409.166 422.656 407.081 424.798 406.141C427.28 405.052 429.297 405.792 431.701 406.698L446.544 385.073C445.45 382.851 444.54 380.864 444.903 378.33C445.177 376.41 446.128 374.541 447.723 373.393C449.38 372.198 451.326 371.899 453.312 372.256C456.852 372.892 458.561 375.212 460.467 378.011C479.342 377.549 498.218 377.439 517.097 377.313C516.992 374.037 516.717 371.099 517.96 367.991L518.71 367.674C520.772 370.13 520.119 374.485 520.016 377.488L752.512 375.285C752.46 371.229 752.527 367.197 752.675 363.144Z"/>
	<path fill="#FEFEFE" d="M731.101 378.25L752.733 378.015C754.68 434.66 755.192 491.348 756.005 548.018C685.857 549.805 615.555 549.55 545.383 550.304L522.656 550.281L520.3 380.498L731.101 378.25Z"/>
	<path fill="#82B26B" d="M618.746 490.693L666.99 490.48C667.177 494.967 667.475 499.482 667.326 503.972L618.97 504.447C618.478 499.868 618.341 495.282 618.746 490.693Z"/>
	<path fill="#82B26B" d="M679.617 509.856C696.556 510.161 713.609 511.339 730.55 512.01C730.743 516.063 730.934 519.938 730.455 523.979C713.62 524.025 696.821 524.436 679.996 525.005C679.746 519.945 679.568 514.926 679.617 509.856Z"/>
	<path fill="#82B26B" d="M637.716 509.757L667.64 509.483C667.605 514.598 667.839 519.72 668.001 524.832C661.759 524.449 655.501 524.513 649.25 524.5C639.69 524.46 630.117 524.691 620.556 524.784C619.884 519.812 619.604 514.816 619.458 509.805L637.716 509.757Z"/>
	<path fill="#345146" d="M617.264 469.502L666.434 469.298L666.509 483.955C650.32 484.033 634.128 484.052 617.944 484.498C617.356 479.56 617.419 474.472 617.264 469.502Z"/>
	<path fill="#345146" d="M684.208 469.255L729.487 469.022L729.526 483.677L723.25 483.679L679.053 483.491C678.978 478.761 678.747 474.025 678.58 469.297L684.208 469.255Z"/>
	<path fill="#77C6D3" d="M602.432 490.778C604.038 492.916 603.44 501.597 603.516 504.584C586.052 504.902 568.585 504.861 551.118 504.866C549.507 503.231 550.012 493.691 549.94 491.017L602.432 490.778Z"/>
	<path fill="#E9C68D" d="M636.64 427.766C646.226 427.426 655.834 427.513 665.425 427.488C665.451 432.505 665.574 437.486 665.827 442.498L643.75 442.496L615.509 442.503C615.484 437.653 615.362 432.87 614.982 428.03L636.64 427.766Z"/>
	<path fill="#3CA59F" d="M614.561 406.024L664.507 406.011L664.671 420.964L614.901 421.244L614.561 406.024Z"/>
	<path fill="#82B26B" d="M678.991 491.479L730.253 491.995L730.463 507.979C713.351 507.546 696.268 506.085 679.197 504.89L678.991 491.479Z"/>
	<path fill="#CD9072" d="M726.666 447.741C727.179 447.739 727.632 447.981 728.109 448.158C730.192 451.824 729.425 458.521 729.409 462.729L680.375 462.982C679.638 462.887 679.346 462.705 678.715 462.341C676.67 458.447 677.445 452.377 677.497 448.038L726.666 447.741Z"/>
	<path fill="#CD9072" d="M615.972 448.028L666.007 448.013L666.287 463.498L616.608 463.999C616.528 458.658 616.317 453.358 615.972 448.028Z"/>
	<path fill="#345146" d="M584.15 470.27C590.21 469.992 596.293 470.055 602.359 470.025L602.515 484.958L566.75 484.978L549.304 484.987C549.086 480.246 549.091 475.485 549.018 470.74C560.721 470.462 572.443 470.453 584.15 470.27Z"/>
	<path fill="#E9C68D" d="M594.593 428.279L601.487 427.98L601.547 442.986C585.598 443.038 569.64 442.987 553.694 443.301L547.567 443.505C547.528 438.659 547.523 433.854 546.961 429.032L594.593 428.279Z"/>
	<path fill="#CD9072" d="M676.695 426.501C693.98 426.579 711.18 427.125 728.484 426.803C728.527 431.814 728.831 436.972 728.377 441.962L677.041 442.492C677.045 437.165 676.829 431.827 676.695 426.501Z"/>
	<path fill="#77C6D3" d="M560.652 510.755C575.084 510.437 589.529 510.516 603.964 510.498L603.993 524.958C600.765 525.201 597.532 525.339 594.299 525.492L551.016 525.745C551.055 520.836 550.703 515.923 550.441 511.023L560.652 510.755Z"/>
	<path fill="#E9C68D" d="M591.135 448.776C594.739 448.627 598.353 448.581 601.959 448.487L601.998 463.997C587.403 463.975 572.86 464.144 558.27 464.499L548.506 464.503C548.532 459.349 548.176 454.18 547.932 449.033C562.329 449.04 576.742 449.162 591.135 448.776Z"/>
	<path fill="#E9C68D" d="M552.101 406.215C568.198 405.067 584.86 405.706 600.999 406C601.031 411.169 602.472 416.728 600.516 421.647C599.185 422.704 598.294 422.448 596.625 422.501L546.747 423.003C546.505 417.797 546.024 412.114 546.674 406.948C548.178 406.138 550.397 406.315 552.101 406.215Z"/>
	<path d="M441.679 323.413C443.173 310.543 443.876 295.672 451.768 284.81C456.125 278.814 463.314 276.478 470.33 275.382C485.436 273.024 523.915 270.643 536.276 280.019C547.631 288.632 550.135 308.838 551.721 322.007C563.481 322.11 575.228 321.422 586.995 321.528C599.721 321.534 612.44 321.038 625.165 320.899L735.083 319.985L765.672 319.847C773.463 319.745 781.722 319.119 789.444 320.246C793.845 320.889 797.405 322.653 800.59 325.788C804.111 329.255 806.28 333.463 807.147 338.302C808.926 348.237 808.375 358.877 808.465 368.961C808.563 379.99 808.904 391.009 809.131 402.036L813.018 551.47C813.414 569.104 813.351 586.733 813.999 604.364C814.216 610.262 813.978 616.709 814.812 622.516C815.327 638.178 815.375 653.827 815.716 669.488C815.874 676.76 816.777 684.22 816.454 691.466L810.977 689.65C811.076 662.119 809.971 634.753 809.144 607.248L806.132 507.606C805.285 484.642 805.445 461.618 804.307 438.66C804.039 433.252 804.122 427.812 803.565 422.424C803.246 427.826 803.869 433.166 802.728 438.506C799.973 439.216 797.477 439.741 794.611 439.763C795.207 428.184 795.345 417.275 793.523 405.779C792.75 393.603 792.613 381.266 792.362 369.062C792.206 361.445 792.706 353.202 791.039 345.753C790.291 342.41 789.111 340.182 787.046 337.454L786.259 337.628L785.28 336.432C754.49 337.327 723.673 337.201 692.874 337.593L529.968 339.639C448.491 340.397 366.96 342.009 285.481 341.441C279.954 341.983 274.341 342.691 268.786 342.74C259.702 342.821 250.588 341.977 241.466 342.007C239.762 343.124 238.265 344.243 236.797 345.658C236.899 354.202 238.189 378.953 236.486 385.91L240.946 748.326C240.976 752.352 240.254 760.746 243.585 763.541C246.873 766.3 257.014 764.503 261.445 765.087C262.499 765.811 263.749 765.833 264.991 765.888C275.453 766.352 286.11 765.98 296.589 765.993L382.765 765.284L489.012 764.434C503.79 764.213 518.521 764.539 533.294 763.764C546.977 762.199 565.233 763.384 579.536 763.013L713.847 760.178C729.167 759.792 747.301 761.657 762.177 758.891C765.016 758.363 767.398 756.812 769.619 755.041L771.897 755.014L774.761 754.973C779.419 754.989 784.142 754.572 788.808 754.441C792.83 753.81 795.77 753.893 799.538 752.114L799.385 746.194L798.448 745.147L798.673 744.459L797.157 743.223C798.296 742.379 798.784 741.837 799.404 740.56C798.695 737.672 798.335 734.852 798.015 731.902C798.056 730.074 798.105 728.242 798.091 726.414C798.075 724.428 797.912 723.698 796.488 722.301L798.333 720.483L798.091 719.398C798.156 719.384 798.228 719.388 798.286 719.356C800.497 718.151 802.74 717.515 805.149 716.766L803.54 714.651C804.924 712.102 806.128 710.934 808.65 709.435L812.567 711.211C814.057 711.748 815.397 712.212 816.975 712.394C817.021 714.074 816.947 715.848 817.237 717.502C817.423 720.677 817.483 723.832 817.495 727.011C817.498 729.448 817.612 731.936 817.472 734.366L817.564 734.802L817.611 742.62C817.526 745.33 817.606 747.858 817.931 750.554C818.476 757.345 818.179 764.159 818.692 770.921C817.53 773.254 815.967 775.294 814.786 777.565L814.518 777.812L813.408 778.982C807.871 783.108 802.455 786.182 795.409 786.662L795.043 786.541L691.516 787.483C655.881 787.716 620.014 787.487 584.439 789.593C588.608 803.146 591.006 817.595 594.151 831.431C597.985 848.296 602.749 865.413 605.206 882.515C609.907 882.48 625.915 881.471 628.957 883.791C629.08 883.885 629.177 884.009 629.286 884.118C629.122 885.165 629.037 885.242 628.202 885.863C626.689 886.988 624.427 887.026 622.618 887.063C572.372 888.097 522.017 887.998 471.75 888.634C456.553 888.826 441.375 889.483 426.174 889.617C419.547 889.675 412.368 890.202 405.827 889.1C405.089 888.976 404.471 888.773 403.799 888.449L403.446 887.682C404.88 885.955 407.273 885.489 409.407 885.276C414.801 884.738 420.31 884.768 425.73 884.759C433.358 853.726 439.348 822.385 447.67 791.5C422.67 791.43 397.696 792.216 372.702 792.522C363.867 792.63 348.035 791.17 339.816 793.057C327.379 792.8 314.788 793.617 302.343 793.882C286.37 794.222 270.477 794.079 254.503 794.727C244.469 795.133 233.23 795.747 225.458 788.227C221.367 784.269 219.113 778.904 218.456 773.319C217.006 761.007 218 747.831 217.995 735.421L217.495 668.598L215.974 521.149C215.789 470.725 216.082 420.331 214.953 369.914L215.132 348.475C216.277 346.333 216.429 342.933 216.667 340.502C218.576 333.9 223.324 331.011 228.878 327.67C242.374 323.22 261.154 325.023 275.369 324.93L324.296 324.448L441.679 323.413ZM559.316 789.732C523.304 790.669 487.141 789.839 451.165 791.481C446.279 815.329 441.016 838.959 435.455 862.659C433.712 870.088 432.266 877.646 430.371 885.026L472.285 884.313L600.973 882.496C596.692 860.482 591.842 838.437 586.736 816.598C584.622 807.557 582.091 798.598 580.088 789.537C573.171 789.594 566.229 789.526 559.316 789.732ZM498.623 278.214C485.737 278.772 465.678 276.903 456.3 287.22C448.568 295.728 447.297 312.078 446.383 323.065L495.568 322.538C512.672 322.486 529.756 321.853 546.854 321.497C545.501 309.558 543.06 292.187 533.017 284.099C524.486 277.228 509.058 277.237 498.623 278.214Z"/>
	<path fill="#345146" d="M802.586 748.214C805.764 747.081 808.863 745.631 811.965 744.301L812.42 755.25L804.074 755.671C804.059 753.047 804.404 750.343 802.586 748.214Z"/>
	<path fill="#5D8135" d="M808.65 709.435L812.567 711.211C814.057 711.748 815.397 712.212 816.975 712.394C817.021 714.074 816.947 715.848 817.237 717.502C817.423 720.677 817.483 723.832 817.495 727.011C817.498 729.448 817.612 731.936 817.472 734.366C816.048 729.675 817.316 723.254 816.781 718.219L815.425 717.432C814.458 717.411 814 717.239 813.324 718.066C812.183 719.46 812.43 721.439 812.448 723.123L811.855 719.969L811.119 719.554L808.668 720.334C807.457 719.175 806.292 717.992 805.149 716.766L803.54 714.651C804.924 712.102 806.128 710.934 808.65 709.435Z"/>
	<path fill="#82B26B" d="M802.122 740.096C806.053 738.488 810.256 737.516 814.407 736.675C815.354 738.153 816.197 739.602 815.786 741.451C815.585 742.354 815.104 742.844 814.493 743.486C813.614 743.846 812.903 744.116 811.965 744.301C808.863 745.631 805.764 747.081 802.586 748.214L799.385 746.194L798.448 745.147L798.673 744.459L797.157 743.223C798.296 742.379 798.784 741.837 799.404 740.56L802.122 740.096Z"/>
	<path fill="#345146" d="M798.091 719.398C798.156 719.384 798.228 719.388 798.286 719.356C800.497 718.151 802.74 717.515 805.149 716.766C806.292 717.992 807.457 719.175 808.668 720.334L811.119 719.554L811.855 719.969L812.448 723.123L812.471 724.75C812.419 727.703 811.782 733.694 813.773 736.139C813.947 736.354 814.196 736.496 814.407 736.675C810.256 737.516 806.053 738.488 802.122 740.096L799.404 740.56C798.695 737.672 798.335 734.852 798.015 731.902C798.056 730.074 798.105 728.242 798.091 726.414C798.075 724.428 797.912 723.698 796.488 722.301L798.333 720.483L798.091 719.398Z"/>
	<path d="M800.401 730.558C801.66 731.651 802.079 732.464 802.215 734.147C802.374 736.115 802.229 738.128 802.122 740.096L799.404 740.56C798.695 737.672 798.335 734.852 798.015 731.902L800.401 730.558Z"/>
	<path fill="#82B26B" d="M798.091 719.398C798.156 719.384 798.228 719.388 798.286 719.356C800.497 718.151 802.74 717.515 805.149 716.766C806.292 717.992 807.457 719.175 808.668 720.334L811.119 719.554L811.855 719.969L812.448 723.123L812.471 724.75C808.152 726.246 803.836 727.382 800.401 730.558L798.015 731.902C798.056 730.074 798.105 728.242 798.091 726.414C798.075 724.428 797.912 723.698 796.488 722.301L798.333 720.483L798.091 719.398Z"/>
	<path fill="#345146" d="M798.091 719.398C798.156 719.384 798.228 719.388 798.286 719.356C800.497 718.151 802.74 717.515 805.149 716.766C806.292 717.992 807.457 719.175 808.668 720.334C804.44 720.591 800.534 721.963 796.488 722.301L798.333 720.483L798.091 719.398Z"/>
	<path fill="#345146" d="M799.538 752.114L799.99 758.284C804.152 757.631 808.304 756.962 812.496 756.526L812.454 773.941C811.037 775.045 809.831 776.087 808.093 776.613C806.805 777.086 805.619 777.517 804.462 778.274C801.412 780.5 789.206 779.718 785.184 779.911C785.538 777.651 785.406 775.394 785.735 773.139C786.467 768.121 789.142 763.975 791.829 759.815C793.683 758.52 794.941 756.123 796.197 754.26C793.662 754.516 791.353 754.574 788.808 754.441C792.83 753.81 795.77 753.893 799.538 752.114Z"/>
	<path fill="#FEFEFE" d="M804.462 778.274C801.902 776.548 799.456 774.565 797.31 772.34C795.629 770.597 793.353 767.964 793.571 765.377C793.644 764.515 794.003 764.446 794.595 763.909C795.357 763.815 796.035 763.746 796.785 763.979C802.077 765.62 805.876 771.857 808.093 776.613C806.805 777.086 805.619 777.517 804.462 778.274Z"/>
	<defs>
		<linearGradient id="gradient_1" gradientUnits="userSpaceOnUse" x1="722.30115" y1="834.7981" x2="603.09027" y2="704.15112">
			<stop offset="0" stop-color="#3B4057"/>
			<stop offset="1" stop-color="#68747A"/>
		</linearGradient>
	</defs>
	<path fill="url(#gradient_1)" d="M788.808 754.441C791.353 754.574 793.662 754.516 796.197 754.26C794.941 756.123 793.683 758.52 791.829 759.815C789.142 763.975 786.467 768.121 785.735 773.139C785.406 775.394 785.538 777.651 785.184 779.911C767.347 780.067 749.542 780.841 731.712 781.213L600.728 783.612C579.726 783.9 558.44 785.332 537.466 784.59C539.535 783.104 541.721 781.427 542.466 778.867C543.366 775.772 542.69 772.214 541.011 769.499C539.14 766.475 536.758 764.481 533.294 763.764C546.977 762.199 565.233 763.384 579.536 763.013L713.847 760.178C729.167 759.792 747.301 761.657 762.177 758.891C765.016 758.363 767.398 756.812 769.619 755.041L771.897 755.014L774.761 754.973C779.419 754.989 784.142 754.572 788.808 754.441Z"/>
	<path d="M788.808 754.441C791.353 754.574 793.662 754.516 796.197 754.26C794.941 756.123 793.683 758.52 791.829 759.815C783.973 759.961 775.643 760.85 767.844 760.388L764.793 759.574C767.629 758.61 769.703 757.018 771.897 755.014L774.761 754.973C779.419 754.989 784.142 754.572 788.808 754.441Z"/>
	<path fill="#345146" d="M767.844 760.388C766.008 763.757 762.761 766.722 760.044 769.378C757.319 772.04 751.713 777.541 747.579 776.903C746.153 776.683 745.958 776.461 745.152 775.382C745.135 774.252 745.31 773.485 745.906 772.506C748.644 768.006 759.583 760.91 764.793 759.574L767.844 760.388Z"/>
	<path fill="#767699" d="M537.466 784.59C523.132 784.489 508.666 785.167 494.32 785.418L406.249 786.959L249.271 789.77C241.532 789.966 234.626 790.019 228.731 784.169C224.52 779.988 223.544 774.022 223.071 768.337C221.738 752.323 222.59 734.577 222.493 718.372L221.435 633.266L218.221 431.869C217.92 412.06 217.111 392.241 216.973 372.435C216.89 360.421 215.54 344.655 224.811 335.637C228.962 331.599 234.216 329.553 239.931 329.084C249.207 328.324 258.726 328.533 268.037 328.446L317.977 328.4L443.178 329.017L784.145 326.111C789.465 326.112 792.921 327.11 796.691 331.057C798.847 333.315 800.229 336.028 800.824 339.089C801.993 345.098 801.727 351.497 801.828 357.598L802.301 379.838C802.587 394.019 803.598 408.259 803.565 422.424C803.246 427.826 803.869 433.166 802.728 438.506C799.973 439.216 797.477 439.741 794.611 439.763C795.207 428.184 795.345 417.275 793.523 405.779C792.75 393.603 792.613 381.266 792.362 369.062C792.206 361.445 792.706 353.202 791.039 345.753C790.291 342.41 789.111 340.182 787.046 337.454L786.259 337.628L785.28 336.432C754.49 337.327 723.673 337.201 692.874 337.593L529.968 339.639C448.491 340.397 366.96 342.009 285.481 341.441C279.954 341.983 274.341 342.691 268.786 342.74C259.702 342.821 250.588 341.977 241.466 342.007C239.762 343.124 238.265 344.243 236.797 345.658C236.899 354.202 238.189 378.953 236.486 385.91L240.946 748.326C240.976 752.352 240.254 760.746 243.585 763.541C246.873 766.3 257.014 764.503 261.445 765.087C262.499 765.811 263.749 765.833 264.991 765.888C275.453 766.352 286.11 765.98 296.589 765.993L382.765 765.284L489.012 764.434C503.79 764.213 518.521 764.539 533.294 763.764C536.758 764.481 539.14 766.475 541.011 769.499C542.69 772.214 543.366 775.772 542.466 778.867C541.721 781.427 539.535 783.104 537.466 784.59Z"/>
	<path d="M240.224 752.958C239.721 742.788 239.808 732.608 239.524 722.432C238.239 676.347 238.294 630.253 237.551 584.162C236.657 528.66 235.459 473.051 235.984 417.544C236.071 408.406 235.342 399.206 235.599 390.097C235.643 388.525 235.666 387.297 236.486 385.91L240.946 748.326L240.224 752.958Z"/>
	<path d="M285.481 341.441C287.976 339.868 297.922 340.122 301.429 340.073L767.266 335.004C770.945 334.979 782.767 333.95 785.28 336.432C754.49 337.327 723.673 337.201 692.874 337.593L529.968 339.639C448.491 340.397 366.96 342.009 285.481 341.441Z"/>
</svg>
