<?xml version="1.0" encoding="utf-8" ?>
<svg xmlns="http://www.w3.org/2000/svg" xmlns:xlink="http://www.w3.org/1999/xlink" width="1024" height="1024">
	<path fill="#CD9072" d="M550.121 843.943C558.883 837.15 571.259 832.753 581.281 827.952L635.511 801.846L862.301 691.942C862.845 698.396 863.528 704.896 863.508 711.377C863.38 753.339 848.819 794.327 821.709 826.45C814.994 834.407 807.924 842.079 800.061 848.923C771.296 873.962 732.562 890.981 694.455 894.114C645.573 898.133 597.537 884.93 559.954 852.813C556.598 849.945 553.305 847.001 550.121 843.943Z"/>
	<path fill="#78C6D3" d="M267.735 527.511C226.924 507.442 197.4 482.056 173.066 443.374C145.195 399.07 134.865 342.434 146.629 291.319C158.066 241.623 189.218 198.312 232.474 171.355C275.825 144.34 326.984 137.529 376.468 149.009C418.349 158.725 455.649 185.536 481.844 219.195C489.515 229.051 495.949 239.722 502.555 250.3C489.348 252.384 476.884 256.774 463.974 260.074L385.145 280.194L327.73 294.92C315.177 298.022 301.546 300.115 289.597 305.151C280.107 309.15 272.393 315.729 266.339 324.015C260.889 331.474 256.748 340.431 255.688 349.663C254.192 362.695 255.822 375.858 257.066 388.844C257.936 397.927 258.652 407.02 259.346 416.117L266.206 504.57C266.812 512.207 267.055 519.886 267.735 527.511Z"/>
	<path fill="#2E532D" d="M502.555 250.3L627.954 218.432C641.925 215.029 661.768 208.262 675.709 207.982C688.217 207.731 702.816 211.848 713.538 218.237C719.889 222.021 725.359 227.308 727.196 234.706C728.361 239.401 728.455 244.428 728.258 249.234C727.564 266.161 725.532 283.13 724.141 300.015L716.408 395.486L712.02 449.714C710.904 464.721 711.265 484.951 706.43 499.047C753.974 521.161 801.065 544.32 848.32 567.046L886.91 585.424C897.648 590.42 908.864 595.073 918.938 601.33C924.392 604.718 930.554 609.087 932.803 615.354C935.969 624.174 934.603 643.616 930.275 651.804C922.926 665.704 888.736 678.943 874.134 685.903C870.637 687.57 865.159 689.485 862.301 691.942L635.511 801.846L581.281 827.952C571.259 832.753 558.883 837.15 550.121 843.943C549.997 844.021 549.875 844.103 549.748 844.177C537.986 851.033 525.198 856.518 513.011 862.626C500.732 868.781 485.205 878.521 472.202 881.965C462.667 884.49 451.222 885.054 441.662 882.385C428.822 878.8 416.485 869.321 405.245 862.281L372.269 841.685L283.743 787.079L160.717 711.04C143.201 700.206 123.855 689.481 106.944 678.063C101.969 674.705 96.6929 670.953 93.8039 665.566C88.7838 656.206 88.5092 639.217 91.8996 629.281C93.4074 624.863 97.4384 620.174 101.498 617.797C113.886 610.545 129.31 606.505 142.734 601.332C166.386 592.216 189.925 582.701 213.652 573.803C232.295 566.812 251.696 560.537 269.63 551.896C269.15 544.086 269.388 535.139 267.735 527.511C267.055 519.886 266.812 512.207 266.206 504.57L259.346 416.117C258.652 407.02 257.936 397.927 257.066 388.844C255.822 375.858 254.192 362.695 255.688 349.663C256.748 340.431 260.889 331.474 266.339 324.015C272.393 315.729 280.107 309.15 289.597 305.151C301.546 300.115 315.177 298.022 327.73 294.92L385.145 280.194L463.974 260.074C476.884 256.774 489.348 252.384 502.555 250.3ZM517.046 282.32L386.156 317.279L353.969 325.659C344.394 328.101 334.545 330.09 325.585 334.379C315.74 339.092 307.485 346.415 301.932 355.856C298.063 362.432 295.816 369.479 295.204 377.082C294.443 386.533 295.491 396.131 296.246 405.555L298.689 436.013C300.654 460.661 302.143 485.338 303.84 510.005C304.536 520.125 305.592 530.235 306.191 540.357C307.508 555.289 308.448 570.293 309.37 585.255C309.9 593.851 309.954 602.698 311.391 611.188C312.806 619.545 316.075 626.483 323.294 631.363C329.178 635.341 337.169 636.932 344.097 635.455C350.086 634.178 356.087 631.432 361.792 629.211L390.432 617.963L492.268 577.985L608.226 533.801L643.057 521.141C650.287 518.535 657.869 516.144 664.766 512.735C673.678 508.331 680.989 501.785 686.375 493.437C689.948 487.897 692.098 482.169 693.067 475.662C694.58 465.491 694.901 455.218 695.495 444.966C696.107 434.402 696.918 423.852 697.733 413.302L704.316 328.23C705.433 314.354 710.818 270.719 708.258 259.734C706.686 252.986 702.2 246.751 696.241 243.24C692.607 241.098 686.788 239.007 682.511 239.379C674.728 240.056 666.706 242.836 659.186 244.873L624.838 254.083L517.046 282.32ZM95.6857 634.191L96.6136 640.813C103.996 649.512 122.423 659.237 132.6 665.525L169.023 687.99L280.728 757.042C320.361 781.64 359.581 807.011 399.534 831.073C409.422 837.029 419.039 843.677 429.114 849.285C435.893 853.058 442.702 855.936 450.508 856.542C472.467 858.246 492.573 845.084 511.308 835.311C518.542 831.537 526.229 828.222 533.148 823.911L531.76 821.542C530.478 821.903 529.584 822.123 528.233 822.048C525.341 820.043 524.962 815.906 520.947 813.2C509.012 805.155 410.598 745.38 407.873 740.23C407.385 739.308 407.025 737.99 407.501 737.002C408.34 735.263 410.328 734.075 411.95 733.149C421.345 727.789 432.023 723.761 441.923 719.324C455.903 713.059 471.449 705.015 486.023 700.78C493.191 702.971 499.341 707.961 505.404 712.212C505.98 704.775 506.521 697.336 507.295 689.917L506.993 689.233C505.961 688.483 505.031 688.522 503.774 688.385C499.55 687.927 495.537 686.516 491.682 684.756C482.768 680.686 474.381 674.998 465.935 670.039C451.589 661.614 437.058 653.261 422.471 645.266C407.175 651.775 391.505 657.413 376.091 663.644C363.519 668.725 350.581 675.349 337.39 678.509C332.39 679.707 326.431 680.551 321.533 678.673C315.274 676.273 311.4 670.687 308.65 664.859C296.527 659.639 282.522 653.424 277.242 640.325C272.681 629.012 273.487 611.185 272.669 598.782L269.865 558.183L160.246 600.423L129.487 612.051C121.043 615.229 111.821 618.146 104.149 622.95C100.156 625.451 97.9524 628.941 96.1289 633.167C95.9815 633.508 95.8388 633.852 95.6857 634.191ZM512.498 716.313L505.404 712.212C499.341 707.961 493.191 702.971 486.023 700.78C471.449 705.015 455.903 713.059 441.923 719.324C432.023 723.761 421.345 727.789 411.95 733.149C410.328 734.075 408.34 735.263 407.501 737.002C407.025 737.99 407.385 739.308 407.873 740.23C410.598 745.38 509.012 805.155 520.947 813.2C524.962 815.906 525.341 820.043 528.233 822.048C529.584 822.123 530.478 821.903 531.76 821.542C558.399 806.617 585.94 793.439 613.333 779.97L765.733 705.988C784.525 696.726 803.716 687.849 822.13 677.86C824.38 676.639 827.73 675.177 829.043 672.891C829.595 671.93 829.747 670.87 829.282 669.842C828.295 667.656 825.508 665.911 823.509 664.775C819.52 662.51 815.09 660.8 810.932 658.856C801.74 654.561 792.53 650.272 783.433 645.78L752.891 630.383C746.032 626.888 739.121 622.929 731.856 620.353C728.135 619.034 724.769 618.71 720.921 619.803C712.505 622.193 704.154 627.041 696.26 630.798C687.254 635.084 678.093 639.051 669 643.152C616.492 666.835 564.519 691.586 512.498 716.313ZM510.023 267.026C512.299 272.102 514.41 277.431 517.046 282.32L624.838 254.083L659.186 244.873C666.706 242.836 674.728 240.056 682.511 239.379C686.788 239.007 692.607 241.098 696.241 243.24C702.2 246.751 706.686 252.986 708.258 259.734C710.818 270.719 705.433 314.354 704.316 328.23L697.733 413.302C696.918 423.852 696.107 434.402 695.495 444.966C694.901 455.218 694.58 465.491 693.067 475.662C692.098 482.169 689.948 487.897 686.375 493.437C680.989 501.785 673.678 508.331 664.766 512.735C657.869 516.144 650.287 518.535 643.057 521.141L608.226 533.801L492.268 577.985L390.432 617.963L361.792 629.211C356.087 631.432 350.086 634.178 344.097 635.455C337.169 636.932 329.178 635.341 323.294 631.363C316.075 626.483 312.806 619.545 311.391 611.188C309.954 602.698 309.9 593.851 309.37 585.255C308.448 570.293 307.508 555.289 306.191 540.357L291.916 536.689C291.124 540.218 294.683 574.409 295.18 581.958C295.944 593.58 296.706 605.215 297.254 616.85C297.71 626.527 297.67 636.458 299.362 646.022C300.084 650.106 302.402 654.527 305.935 656.847C310.509 659.851 315.304 659.986 320.497 658.894C326.696 657.59 332.846 654.454 338.687 652.006C346.234 648.843 353.805 645.76 361.417 642.756L457.691 605.305L607.122 546.946L649.816 530.574C660.734 526.473 672.031 522.642 682.539 517.586C688.688 514.627 694.049 509.664 697.631 503.872C700.739 498.848 703.038 492.94 703.918 487.09C705.228 478.383 705.391 469.466 705.937 460.686C706.643 449.334 707.557 438.003 708.487 426.668L717.782 312.468C719.023 297.044 725 248.57 721.975 236.67C720.631 231.381 717.893 226.982 713.046 224.294C708.252 221.636 703.219 221.058 697.856 221.462C675 223.182 646.004 232.123 623.251 237.897L510.023 267.026ZM704.07 503.589C699.028 511.853 693.703 516.983 685.591 522.291C688.863 524.493 694.387 527.3 695.179 531.589C695.554 533.617 694.833 536.053 693.534 537.637C691.761 539.799 688.682 541.023 686.169 542.08C667.314 550.005 647.61 556.121 628.567 563.62C617.227 568.086 605.967 572.782 594.673 577.365C588.658 579.806 582.576 582.563 576.391 584.514C578.329 585.658 583.251 589.28 585.4 588.819C602.001 582.162 617.538 572.988 633.989 565.916C675.939 547.883 721.711 546.065 764.059 564.091C793.879 576.784 820.73 599.575 837.999 627.113C844.619 637.671 849.767 649.113 854.376 660.669C855.236 662.824 856.014 665.047 856.948 667.168L857.368 667.193C870.915 658.901 885.616 652.305 899.927 645.427C906.722 642.161 913.8 639.165 920.137 635.049C922.841 633.293 925.399 631.328 927.064 628.506C928.777 625.601 929.314 621.877 928.333 618.634C926.66 613.102 921.5 609.576 916.837 606.68C907.368 600.799 897.071 596.35 886.965 591.705L859.004 578.516L788.249 544.546C760.016 531.328 731.426 518.568 704.07 503.589ZM95.7478 647.696C96.2314 655.389 96.6829 662.774 102.914 668.255C107.741 672.501 113.981 675.754 119.477 679.066L145.38 694.745L242.8 754.74L381.131 840.315C398.475 850.867 416.086 863.972 434.089 872.858C443.135 877.323 451.906 878.886 461.966 878.002C478.814 876.522 496.14 864.935 510.983 857.353L545.479 839.789C542.215 836.242 538.91 832.772 535.507 829.358C526.111 834.004 516.728 838.675 507.418 843.493C486.572 854.281 462.292 868.178 438.191 860.003C427.361 856.33 417.744 849.428 408.198 843.298L385.622 829.071L292.947 771.575L167.909 694.217L127.069 668.968C116.365 662.282 105.486 655.768 95.7478 647.696ZM571.509 587.941C560.259 591.621 549.263 596.36 538.264 600.728L483.384 622.512C473.11 626.578 462.841 630.666 452.496 634.55C445.223 637.28 437.484 639.654 430.543 643.142C444.486 650.428 458.107 658.566 471.65 666.575C479.924 671.468 488.153 676.914 496.998 680.732C500.636 682.302 504.654 683.798 508.666 683.368C510.824 672.825 512.68 662.373 516.804 652.359C524.323 634.098 537.269 615.37 554.297 604.822C562.411 599.795 571.479 596.106 580.271 592.438L571.509 587.941ZM273.478 530.378C273.534 538.364 274.451 546.416 275.053 554.379L277.807 592.806C278.314 600.294 278.735 607.782 279.086 615.28C279.409 622.17 279.369 629.246 280.972 635.989C281.869 639.758 284.281 642.886 287.009 645.56C289.784 648.28 292.896 650.743 295.861 653.258C294.699 647.571 293.593 641.942 293.068 636.15C292.073 625.155 287.886 536.481 285.785 534.477L285.597 534.44C281.524 533.193 277.409 532.03 273.478 530.378ZM504.812 255.819C505.957 257.673 506.977 259.511 507.898 261.488C508.175 261.801 507.948 261.594 508.789 261.72C513.151 259.569 519.18 258.724 523.94 257.517L555.012 249.624L628.786 230.573C650.367 225.062 672.287 219.3 694.445 216.684C686.83 214.246 679.368 212.668 671.332 213.494C662.402 214.413 653.45 217.46 644.775 219.744L609.896 228.594L554.301 242.56C537.725 246.637 521.023 250.434 504.812 255.819ZM858.129 672.309C859.275 676.688 860.141 681.504 861.825 685.692C865.708 683.024 871.089 681.202 875.426 679.192C889.159 672.827 910.709 663.977 921.747 653.765C927.406 648.531 928.145 643.278 928.474 635.972C920.04 642.584 908.93 646.983 899.314 651.657C885.491 658.376 871.675 665.041 858.129 672.309Z"/>
	<path fill="#78C6D3" d="M308.65 664.859C313.778 665.367 318.206 664.83 323.15 663.473C336.04 659.935 348.696 653.604 361.065 648.52C378.438 641.378 395.953 634.816 413.748 628.807C415.887 634.706 418.015 640.678 422.471 645.266C407.175 651.775 391.505 657.413 376.091 663.644C363.519 668.725 350.581 675.349 337.39 678.509C332.39 679.707 326.431 680.551 321.533 678.673C315.274 676.273 311.4 670.687 308.65 664.859Z"/>
	<path fill="#78C6D3" d="M555.372 573.368C566.752 567.822 579.573 563.904 591.43 559.357L650.389 536.273C662.094 531.677 674.123 527.438 685.591 522.291C688.863 524.493 694.387 527.3 695.179 531.589C695.554 533.617 694.833 536.053 693.534 537.637C691.761 539.799 688.682 541.023 686.169 542.08C667.314 550.005 647.61 556.121 628.567 563.62C617.227 568.086 605.967 572.782 594.673 577.365C588.658 579.806 582.576 582.563 576.391 584.514C569.496 580.552 562.535 576.823 555.372 573.368Z"/>
	<path fill="#78C6D3" d="M548.244 576.228C556.022 580.084 563.831 583.889 571.509 587.941C560.259 591.621 549.263 596.36 538.264 600.728L483.384 622.512C473.11 626.578 462.841 630.666 452.496 634.55C445.223 637.28 437.484 639.654 430.543 643.142C429.376 642.893 428.476 642.392 427.448 641.791C422.403 638.839 421.049 631.563 419.682 626.355C435.416 619.565 451.821 613.823 467.795 607.586C494.612 597.115 521.308 586.398 548.244 576.228Z"/>
	<path fill="#78C6D3" d="M504.812 255.819C505.957 257.673 506.977 259.511 507.898 261.488C507.756 261.541 507.615 261.596 507.473 261.648C501.638 263.781 495.276 265.019 489.246 266.541L458.385 274.413L352.45 301.686C337.966 305.383 314.342 309.69 301.706 316.483C291.41 322.018 283.204 331.534 278.19 342.002C275.006 348.65 273.479 355.152 273.137 362.502C272.385 378.686 275.194 399.521 276.516 415.986L283.749 511.301C284.06 515.846 286.555 531.22 285.597 534.44C281.524 533.193 277.409 532.03 273.478 530.378L264.186 406.862L262.052 378.048C261.404 369.715 260.497 361.229 261.109 352.874C261.676 345.126 264.157 337.8 268.185 331.17C273.405 322.578 280.903 315.533 290.035 311.278C299.608 306.818 310.329 304.948 320.53 302.45L358.817 292.886L504.812 255.819Z"/>
	<path fill="#CD9072" d="M858.129 672.309C859.275 676.688 860.141 681.504 861.825 685.692C853.098 690.769 843.652 694.981 834.57 699.402L788.054 722.058L612.93 806.447L568.972 828.113C561.152 831.976 553.145 835.645 545.479 839.789C542.215 836.242 538.91 832.772 535.507 829.358C546.094 822.406 558.165 817.517 569.478 811.888C594.216 799.579 619.06 787.615 644.037 775.801L776.47 711.901C803.671 698.736 831.265 686.13 858.129 672.309Z"/>
	<path fill="#CD9072" d="M580.271 592.438C589.549 596.73 598.493 601.658 607.578 606.333C617.075 611.221 633.099 617.636 640.463 624.848C640.635 625.546 640.885 625.819 640.499 626.498C639.545 628.173 637.472 629.185 635.805 629.998C630.98 632.351 625.77 634.128 620.821 636.233L590.381 649.547L548.301 668.489C537.492 673.4 525.644 680.018 513.97 682.414C512.211 682.776 510.439 683.078 508.666 683.368C510.824 672.825 512.68 662.373 516.804 652.359C524.323 634.098 537.269 615.37 554.297 604.822C562.411 599.795 571.479 596.106 580.271 592.438Z"/>
	<path fill="#78C6D3" d="M291.916 536.689C291.56 536.343 291.462 535.775 291.359 535.292C290.246 530.105 290.666 523.628 290.29 518.235L286.953 473.553L281.487 405.601C280.305 391.92 277.925 377.87 278.619 364.131C279.074 355.122 281.326 346.804 286.038 339.08C290.711 331.42 297.659 324.475 305.819 320.612C313.892 316.79 322.843 315.116 331.477 313.038C340.354 310.903 349.202 308.703 358.021 306.335C408.553 292.771 459.144 279.234 510.023 267.026C512.299 272.102 514.41 277.431 517.046 282.32L386.156 317.279L353.969 325.659C344.394 328.101 334.545 330.09 325.585 334.379C315.74 339.092 307.485 346.415 301.932 355.856C298.063 362.432 295.816 369.479 295.204 377.082C294.443 386.533 295.491 396.131 296.246 405.555L298.689 436.013C300.654 460.661 302.143 485.338 303.84 510.005C304.536 520.125 305.592 530.235 306.191 540.357L291.916 536.689Z"/>
	<path fill="#CD9072" d="M585.4 588.819C602.001 582.162 617.538 572.988 633.989 565.916C675.939 547.883 721.711 546.065 764.059 564.091C793.879 576.784 820.73 599.575 837.999 627.113C844.619 637.671 849.767 649.113 854.376 660.669C855.236 662.824 856.014 665.047 856.948 667.168C845.079 672.086 833.523 678.524 822.003 684.236L767.078 710.92L594.558 793.164C581.115 799.654 567.73 806.267 554.43 813.043C547.418 816.616 540.368 820.853 533.148 823.911L531.76 821.542C558.399 806.617 585.94 793.439 613.333 779.97L765.733 705.988C784.525 696.726 803.716 687.849 822.13 677.86C824.38 676.639 827.73 675.177 829.043 672.891C829.595 671.93 829.747 670.87 829.282 669.842C828.295 667.656 825.508 665.911 823.509 664.775C819.52 662.51 815.09 660.8 810.932 658.856C801.74 654.561 792.53 650.272 783.433 645.78L752.891 630.383C746.032 626.888 739.121 622.929 731.856 620.353C728.135 619.034 724.769 618.71 720.921 619.803C712.505 622.193 704.154 627.041 696.26 630.798C687.254 635.084 678.093 639.051 669 643.152C616.492 666.835 564.519 691.586 512.498 716.313L505.404 712.212C505.98 704.775 506.521 697.336 507.295 689.917L507.387 689.447C508.416 688.393 511.211 688.532 512.753 688.432C514.142 688.342 515.493 688.287 516.846 687.919C525.172 685.656 533.4 681.28 541.24 677.715L577.277 661.468L615.321 644.746C623.554 641.224 632.099 638.117 639.994 633.871C642.092 632.742 643.962 631.265 645.108 629.125C646.135 627.206 646.457 624.813 645.739 622.731C644.942 620.423 642.94 618.707 641.004 617.35C636.048 613.876 630.211 611.76 624.85 609.006L585.4 588.819Z"/>
	<path fill="#2E532D" d="M512.498 716.313C564.519 691.586 616.492 666.835 669 643.152C678.093 639.051 687.254 635.084 696.26 630.798C704.154 627.041 712.505 622.193 720.921 619.803C724.769 618.71 728.135 619.034 731.856 620.353C739.121 622.929 746.032 626.888 752.891 630.383L783.433 645.78C792.53 650.272 801.74 654.561 810.932 658.856C815.09 660.8 819.52 662.51 823.509 664.775C825.508 665.911 828.295 667.656 829.282 669.842C829.747 670.87 829.595 671.93 829.043 672.891C827.73 675.177 824.38 676.639 822.13 677.86C803.716 687.849 784.525 696.726 765.733 705.988L613.333 779.97C585.94 793.439 558.399 806.617 531.76 821.542C530.478 821.903 529.584 822.123 528.233 822.048C525.341 820.043 524.962 815.906 520.947 813.2C509.012 805.155 410.598 745.38 407.873 740.23C407.385 739.308 407.025 737.99 407.501 737.002C408.34 735.263 410.328 734.075 411.95 733.149C421.345 727.789 432.023 723.761 441.923 719.324C455.903 713.059 471.449 705.015 486.023 700.78C493.191 702.971 499.341 707.961 505.404 712.212L512.498 716.313ZM479.184 737.985C466.134 743.825 453.12 749.764 439.897 755.203C447.957 760.054 456.037 764.902 463.714 770.35C473.812 766.078 483.855 761.683 493.861 757.2C493.958 754.306 494.191 751.818 494.937 748.999C491.897 745.317 483.317 741.248 479.184 737.985ZM484.439 706.458C473.775 711.41 462.967 716.069 452.512 721.453C458.467 725.661 465.521 731.851 472.289 734.351L473.621 734.008L494.038 724.653C498.165 722.768 502.617 721.062 506.484 718.689C502.459 716.283 487.926 706.414 484.439 706.458ZM445.599 723.941C434.766 728.665 423.256 732.91 412.78 738.306L434.754 751.632C445.432 747.433 455.77 742.377 466.123 737.444C460.361 733.565 451.654 726.7 445.599 723.941ZM494.61 762.957L469.625 774.156C476.455 778.399 483.247 782.683 489.975 787.086C492.568 788.811 495.139 790.594 497.774 792.251C501.29 790.611 504.79 788.907 508.4 787.483C506.591 784.095 496.536 763.971 494.721 762.981C494.688 762.963 494.647 762.965 494.61 762.957ZM485.116 735.257C489.152 737.946 493.272 740.56 497.169 743.446C498.176 738.313 499.31 733.232 500.525 728.145C495.228 730.211 490.197 732.721 485.116 735.257ZM511.772 791.552C508.833 793.066 505.918 794.607 502.863 795.877C508.275 799.487 513.627 803.289 519.362 806.373C518.656 801.201 514.539 795.898 511.772 791.552Z"/>
	<path fill="#CD9072" d="M494.937 748.999C497.56 749.906 500.05 751.952 502.214 753.676C499.451 754.909 496.705 756.165 493.861 757.2C493.958 754.306 494.191 751.818 494.937 748.999Z"/>
	<path fill="#DA582E" d="M511.772 791.552L516.388 789.239C520.584 796.36 524.754 803.602 527.378 811.474C524.586 810.131 521.679 808.431 519.362 806.373C518.656 801.201 514.539 795.898 511.772 791.552Z"/>
	<path fill="#CD9072" d="M505.809 757.972C513.742 760.162 527.782 769.241 535.49 773.555L523.834 779.253C520.114 781.276 516.302 783.12 512.506 784.993C507.825 777.253 503.196 769.538 498.999 761.521L505.809 757.972Z"/>
	<path fill="#CD9072" d="M508.136 724.299C517.339 728.556 526.203 733.629 535.12 738.452C526.089 743.254 516.95 747.644 507.596 751.78C504.199 748.964 500.845 745.889 497.169 743.446C498.176 738.313 499.31 733.232 500.525 728.145C503.043 726.854 505.557 725.456 508.136 724.299Z"/>
	<path fill="#CD9072" d="M724.585 623.977C733.188 624.371 745.954 632.516 753.858 636.599C746.211 639.934 738.368 642.806 730.87 646.477C730.717 646.526 730.568 646.59 730.411 646.625C726.555 647.483 706.236 635.729 702.112 633.587C709.372 629.92 717.037 626.983 724.585 623.977Z"/>
	<path fill="#CD9072" d="M759.027 639.454C768.944 643.15 778.308 648.392 787.647 653.336C779.312 656.52 771.301 660.108 763.269 663.986C757.962 663.451 740.74 653.174 734.927 650.071C742.704 646.051 750.953 642.829 759.027 639.454Z"/>
	<path fill="#CD9072" d="M666.902 649.983C675.773 654.611 684.801 658.934 693.8 663.309C685.092 666.831 676.632 670.992 668.196 675.109C662.771 674.746 647.273 664.584 641.624 661.512L666.902 649.983Z"/>
	<path fill="#CD9072" d="M636.016 663.988C644.907 667.833 653.827 672.901 662.364 677.522C654.021 681.85 645.07 685.439 636.47 689.255C628.124 683.856 618.474 679.943 609.527 675.632C618.486 672.455 627.342 667.928 636.016 663.988Z"/>
	<path fill="#CD9072" d="M696.261 635.982C705.659 638.378 715.62 645.064 724.083 649.712L699.677 660.506C694.052 660.483 677.501 650.334 671.793 647.299C679.997 643.632 688.235 640.029 696.261 635.982Z"/>
	<path fill="#CD9072" d="M728.415 652.977C737.953 655.046 748.227 662.047 756.864 666.707C748.875 670.819 740.417 674.17 732.123 677.617C725.805 677.643 709.777 667.323 703.352 664.133C711.452 660.033 720.102 656.652 728.415 652.977Z"/>
	<path fill="#CD9072" d="M540.492 708.983C548.845 714.052 557.584 718.424 566.259 722.911C557.505 727.401 548.624 731.1 540.224 736.298C531.486 731.015 522.4 726.362 513.338 721.669C522.612 718.185 531.595 713.348 540.492 708.983Z"/>
	<path fill="#CD9072" d="M604.432 678.453C613.938 680.437 623.389 687.628 632.261 691.662C623.998 695.989 615.124 699.334 606.749 703.501L605.533 703.895C598.616 702.828 584.983 694.017 578.608 690.487L604.432 678.453Z"/>
	<path fill="#CD9072" d="M599.439 712.422C608.16 714.98 618.517 722.097 626.617 726.663C618.634 731.028 610.479 735.016 602.309 739.015C592.712 734.418 583.564 729.106 574.079 724.321C582.59 720.466 591.093 716.627 599.439 712.422Z"/>
	<path fill="#CD9072" d="M631.316 697.454C639.472 700.439 651.16 707.019 659.403 711.018C650.733 715.84 641.589 719.77 632.545 723.828C624.833 722.49 611.578 713.633 604.52 709.462C613.89 706.496 622.543 701.821 631.316 697.454Z"/>
	<path fill="#CD9072" d="M663.442 682.438C673.106 686.918 682.68 691.568 692.208 696.331C683.222 700.069 674.431 704.169 665.722 708.509C659.315 708.439 643.039 698.293 636.886 694.644C645.867 691.188 654.77 686.612 663.442 682.438Z"/>
	<path fill="#CD9072" d="M572.766 693.495C581.346 695.372 592.067 702.561 599.974 706.952C591.398 711.839 581.484 715.595 572.492 719.822C564.716 719.175 552.344 710.636 545.258 706.657C554.582 702.637 563.657 697.976 572.766 693.495Z"/>
	<path fill="#CD9072" d="M792.389 655.969C801.671 658.5 815.349 666.411 824.103 671.066C815.908 674.938 807.775 678.906 799.681 682.987L767.13 667.103C775.611 663.511 784.086 659.963 792.389 655.969Z"/>
	<path fill="#CD9072" d="M568.757 727.031C577.612 729.181 588.768 737.304 597.108 741.71C588.494 746.083 579.938 750.529 571.438 755.123C566.169 754.313 548.077 742.65 542.755 739.603C551.785 736.595 560.286 731.356 568.757 727.031Z"/>
	<path fill="#CD9072" d="M761.466 669.996C772.793 673.075 784.288 680.231 794.715 685.585C786.513 689.389 778.42 693.312 770.457 697.597C766.66 696.531 762.216 693.387 758.66 691.538C751.657 687.897 744.59 684.421 737.469 681.018C745.525 677.424 753.509 673.811 761.466 669.996Z"/>
	<path fill="#CD9072" d="M537.389 742.412C547.416 745.686 557.336 752.565 566.515 757.742C557.947 761.912 549.432 766.14 540.997 770.578C535.225 770.354 517.929 758.466 511.764 755.255C520.628 751.622 528.965 746.941 537.389 742.412Z"/>
	<path fill="#CD9072" d="M697.909 666.459C707.331 670.743 716.528 675.505 725.605 680.472C716.293 685.321 706.428 689.477 696.899 693.92C687.297 689.98 677.648 685 668.826 679.542C678.842 676.124 688.449 671.146 697.909 666.459Z"/>
	<path fill="#CD9072" d="M569.21 761.43C578.719 764.888 593.235 774.16 602.623 779.367C594.495 783.512 586.238 787.115 578.222 791.539C574.505 792.042 549.607 776.362 544.904 773.597C553.289 770.276 561.284 765.725 569.21 761.43Z"/>
	<path fill="#CD9072" d="M516.388 789.239C524.032 784.285 532.163 780.621 540.394 776.782C551.225 782.801 561.973 788.978 573.159 794.319C558.975 800.86 544.912 807.694 531.523 815.758C530.191 814.402 528.487 812.996 527.378 811.474C524.754 803.602 520.584 796.36 516.388 789.239Z"/>
	<path fill="#CD9072" d="M731.752 683.437C740.675 685.845 757.264 695.701 766.012 700.371L608.744 775.993L608.02 776.285C604.093 776.046 580.057 761.491 574.547 758.533C596.498 748.38 617.724 736.774 639.561 726.374L689.821 702.708C703.82 696.273 717.902 690.22 731.752 683.437Z"/>
	<path fill="#2E532D" d="M517.046 282.32L624.838 254.083L659.186 244.873C666.706 242.836 674.728 240.056 682.511 239.379C686.788 239.007 692.607 241.098 696.241 243.24C702.2 246.751 706.686 252.986 708.258 259.734C710.818 270.719 705.433 314.354 704.316 328.23L697.733 413.302C696.918 423.852 696.107 434.402 695.495 444.966C694.901 455.218 694.58 465.491 693.067 475.662C692.098 482.169 689.948 487.897 686.375 493.437C680.989 501.785 673.678 508.331 664.766 512.735C657.869 516.144 650.287 518.535 643.057 521.141L608.226 533.801L492.268 577.985L390.432 617.963L361.792 629.211C356.087 631.432 350.086 634.178 344.097 635.455C337.169 636.932 329.178 635.341 323.294 631.363C316.075 626.483 312.806 619.545 311.391 611.188C309.954 602.698 309.9 593.851 309.37 585.255C308.448 570.293 307.508 555.289 306.191 540.357C305.592 530.235 304.536 520.125 303.84 510.005C302.143 485.338 300.654 460.661 298.689 436.013L296.246 405.555C295.491 396.131 294.443 386.533 295.204 377.082C295.816 369.479 298.063 362.432 301.932 355.856C307.485 346.415 315.74 339.092 325.585 334.379C334.545 330.09 344.394 328.101 353.969 325.659L386.156 317.279L517.046 282.32ZM526.257 323.739C519.026 329.973 512.861 337.959 506.459 345.062L473.704 381.031L440.302 417.586C434.274 424.118 422.152 435.474 418.212 442.785L418.187 443.647C422.018 447.68 429.941 449.616 435.108 451.309L435.964 490.207C436.072 498.902 435.549 507.793 436.74 516.418C437.486 520.41 437.358 524.681 437.487 528.74C444.331 534.213 453.016 537.632 460.753 541.666C471.521 547.281 482.16 553.375 493.374 558.061C498.589 556.269 503.688 554.039 508.879 552.154L569.416 530.059L610.191 515.125C620.014 511.526 630.383 508.325 639.658 503.46C637.405 473.375 638.501 442.96 636.895 412.8C642.724 417.024 647.839 422.92 654.203 426.29C656.93 427.733 659.994 428.615 663.015 427.559C665.744 426.604 668.353 423.877 669.422 421.221C670.566 418.379 670.198 414.353 668.818 411.653C666.249 406.627 584.659 342.339 576.514 338.131C571 335.282 563.605 334.08 557.593 332.475C547.13 329.681 536.616 326.897 526.257 323.739ZM518.412 288.229C522.065 299.652 523.903 311.98 526.257 323.739C536.616 326.897 547.13 329.681 557.593 332.475C563.605 334.08 571 335.282 576.514 338.131C584.659 342.339 666.249 406.627 668.818 411.653C670.198 414.353 670.566 418.379 669.422 421.221C668.353 423.877 665.744 426.604 663.015 427.559C659.994 428.615 656.93 427.733 654.203 426.29C647.839 422.92 642.724 417.024 636.895 412.8C638.501 442.96 637.405 473.375 639.658 503.46C630.383 508.325 620.014 511.526 610.191 515.125L569.416 530.059L508.879 552.154C503.688 554.039 498.589 556.269 493.374 558.061C482.16 553.375 471.521 547.281 460.753 541.666C453.016 537.632 444.331 534.213 437.487 528.74C437.358 524.681 437.486 520.41 436.74 516.418C429.33 520.696 421.919 525.239 414.175 528.881C381.814 544.102 346.881 547.178 311.821 541.617C312.638 547.364 312.787 553.329 313.17 559.127L315.066 589.755C315.483 597.235 315.532 605.057 317.128 612.391C318.585 619.084 321.761 624.29 327.751 627.912C332.153 630.573 337.502 631.373 342.495 630.203C348.883 628.707 355.093 625.87 361.182 623.471L387.714 613.107L503.591 567.656L612.499 526.132L641.85 515.355C649.16 512.724 656.705 510.281 663.679 506.837C671.294 503.077 677.496 496.948 681.968 489.772C685.266 484.481 687.079 479.118 687.962 472.965C689.369 463.155 689.475 453.043 690.04 443.146C690.899 428.11 691.903 413.111 693.083 398.098L699.585 315.149C700.73 301.333 702.589 287.556 703.227 273.702C703.428 269.337 703.516 264.547 702.411 260.288C701.054 255.062 697.826 250.572 693.096 247.905C689.564 245.914 685.355 244.951 681.314 245.385C675.426 246.017 669.374 248.03 663.645 249.545L628.826 259.067L518.412 288.229Z"/>
	<path fill="#78C6D3" d="M311.821 541.617C310.574 534.72 310.928 527.047 310.483 520.026L307.414 476.056L303.499 420.838C302.481 407.988 300.66 394.911 301.054 382.006C301.279 374.648 302.684 367.183 306.109 360.608C310.115 352.917 316.76 345.383 324.519 341.326C337.474 334.553 363.666 329.481 378.689 325.503L470.387 301.142C486.344 296.897 502.673 293.178 518.412 288.229C522.065 299.652 523.903 311.98 526.257 323.739C519.026 329.973 512.861 337.959 506.459 345.062L473.704 381.031L440.302 417.586C434.274 424.118 422.152 435.474 418.212 442.785L418.187 443.647C422.018 447.68 429.941 449.616 435.108 451.309L435.964 490.207C436.072 498.902 435.549 507.793 436.74 516.418C429.33 520.696 421.919 525.239 414.175 528.881C381.814 544.102 346.881 547.178 311.821 541.617Z"/>
	<path fill="#2E532D" d="M526.257 323.739C536.616 326.897 547.13 329.681 557.593 332.475C563.605 334.08 571 335.282 576.514 338.131C584.659 342.339 666.249 406.627 668.818 411.653C670.198 414.353 670.566 418.379 669.422 421.221C668.353 423.877 665.744 426.604 663.015 427.559C659.994 428.615 656.93 427.733 654.203 426.29C647.839 422.92 642.724 417.024 636.895 412.8C638.501 442.96 637.405 473.375 639.658 503.46C630.383 508.325 620.014 511.526 610.191 515.125L569.416 530.059L508.879 552.154C503.688 554.039 498.589 556.269 493.374 558.061C482.16 553.375 471.521 547.281 460.753 541.666C453.016 537.632 444.331 534.213 437.487 528.74C437.358 524.681 437.486 520.41 436.74 516.418C435.549 507.793 436.072 498.902 435.964 490.207L435.108 451.309C429.941 449.616 422.018 447.68 418.187 443.647L418.212 442.785C422.152 435.474 434.274 424.118 440.302 417.586L473.704 381.031L506.459 345.062C512.861 337.959 519.026 329.973 526.257 323.739ZM576.876 364.854C558.587 384.827 541.104 405.346 523.238 425.682C513.659 436.584 503.039 446.95 494.342 458.569L494.389 514.553C494.436 526.598 493.999 538.898 495.339 550.88C509.415 546.563 523.515 541.38 537.094 535.699C536.944 510.771 537.289 485.796 536.761 460.876C537.741 458.494 538.805 458.058 541.143 457.104C550.049 453.471 559.492 450.754 568.577 447.562C577.047 444.587 585.736 440.797 594.466 438.722C596.024 438.351 597.276 438.015 598.807 438.635C600.713 447.093 599.556 457.806 599.529 466.483L599.514 512.707C611.025 508.44 622.643 504.34 634.045 499.792L631.61 408.213C613.083 394.16 595.08 379.33 576.876 364.854ZM592.803 444.999C575.815 450.349 559.268 457.04 542.198 462.163C542.658 479.867 542.344 497.609 542.39 515.32C542.403 520.01 541.508 529.132 542.74 533.392L543.66 533.489C560.5 527.055 577.622 521.294 594.375 514.652L594.452 469.338C594.451 461.752 595.244 452.899 593.807 445.502C593.022 444.972 593.386 445.056 592.803 444.999ZM576.687 344.06C566.136 354.539 556.657 366.057 546.799 377.184C534.838 390.685 522.66 403.679 511.895 418.196C503.972 434.603 490.864 448.34 479.012 461.998C479.661 462.579 480.071 463.021 480.949 463.222C481.123 463.261 481.302 463.322 481.478 463.297C482.919 463.086 484.541 461.547 485.501 460.566C492.692 453.217 499.116 444.645 505.938 436.902L550.255 386.793C558.53 377.291 566.415 365.378 576.57 357.914C594.246 371.351 611.474 385.362 628.827 399.209C637.496 406.127 646.169 413.697 655.358 419.9C657.121 421.09 658.824 422.173 660.957 422.498C661.787 422.229 662.343 422.219 662.918 421.508C664.198 419.923 664.272 417.694 664.037 415.748C663.8 413.799 662.811 412.553 661.46 411.232C655.22 405.133 643.667 397.289 636.386 391.509L576.687 344.06ZM481.753 471.264C470.552 485.262 457.986 503.701 442.206 512.706C442.592 516.843 442.425 521.08 442.43 525.233C458.04 534.05 474.187 542.107 490.017 550.539C489.332 521.719 489.42 492.869 488.99 464.041C486.467 466.368 484.058 468.719 481.753 471.264ZM527.453 331.288C528.317 346.369 528.808 361.858 526.133 376.798C524.911 383.623 522.464 390.165 521.263 397.002C538.896 379.876 553.789 359.833 570.927 342.139C565.231 340.309 530.446 330.109 527.453 331.288Z"/>
	<path fill="#78C6D3" d="M474.888 458.373C481.533 451.528 487.937 444.479 494.206 437.29C499.646 431.052 505.266 423.086 511.895 418.196C503.972 434.603 490.864 448.34 479.012 461.998C477.79 460.643 476.293 459.536 474.888 458.373Z"/>
	<path fill="#78C6D3" d="M440.981 453.001C451.468 456.549 465.653 459.261 474.766 465.272C477.291 466.938 479.536 469.213 481.753 471.264C470.552 485.262 457.986 503.701 442.206 512.706C441.545 492.821 441.428 472.895 440.981 453.001Z"/>
	<path fill="#78C6D3" d="M426.235 441.652L479.634 382.981C495.449 365.632 511.135 348.169 527.453 331.288C528.317 346.369 528.808 361.858 526.133 376.798C524.911 383.623 522.464 390.165 521.263 397.002C517.634 403.977 507.423 413.651 501.886 419.81C491.016 431.901 480.145 443.949 469.785 456.484L426.235 441.652Z"/>
</svg>
