<?xml version="1.0" encoding="utf-8" ?>
<svg xmlns="http://www.w3.org/2000/svg" xmlns:xlink="http://www.w3.org/1999/xlink" width="1024" height="1024">
	<path fill="#CE9172" d="M198.16 408.411C198.816 411.152 198.364 414.134 197.743 416.846C195.625 415.411 193.662 413.671 191.673 412.061L198.16 408.411Z"/>
	<path fill="#CE9172" d="M198.259 394.776C198.371 397.814 198.945 401.747 198.21 404.692C194.245 405.612 190.311 406.899 186.394 408.017C183.656 405.596 180.999 403.13 178.402 400.559L198.259 394.776Z"/>
	<path fill="#CE9172" d="M257.611 144.218L265.163 144.21C245.195 150.583 224.847 155.28 204.524 160.337L198.058 161.788C213.831 150.504 238.636 145.037 257.611 144.218Z"/>
	<path fill="#CE9172" d="M198.21 380.882C198.386 384.133 198.346 387.274 198.152 390.523C190.486 392.74 182.713 394.83 175.38 398.012C172.935 394.88 170.193 392.034 167.467 389.15C177.498 385.968 188.054 383.744 198.21 380.882Z"/>
	<path d="M798.383 166.126C802.191 165.682 806.483 165.803 809.785 167.979C810.355 168.984 810.362 168.902 810.073 170.016C805.48 171.93 797.637 169.829 791.993 172.708C786.029 175.749 783.136 188.345 778.725 190.347C776.213 188.856 774.969 182.406 773.327 179.675C772.124 177.675 770.14 175.946 768.482 174.314C763.65 170.391 757.321 171.789 752.57 168.28L752.781 167.21L752.749 168.443L753.11 167.043C755.604 166.147 758.342 166.121 760.93 166.565C770.109 168.14 774.631 173.368 779.626 180.571C780.396 179.289 781.169 178.007 781.995 176.76C785.955 170.779 791.478 167.554 798.383 166.126Z"/>
	<path d="M746.948 198.59C748.686 198.497 750.785 198.286 752.483 198.729C753.681 199.042 754.545 199.716 755.148 200.787C754.129 202.777 751.455 203.062 749.423 203.519C729.532 207.99 738.196 212.597 727.737 222.239C727.417 222.321 727.105 222.512 726.776 222.484C726.427 222.455 723.005 214.58 722.461 213.537C720.09 208.985 715.169 206.183 710.688 204.078C706.405 203.032 701.526 203.827 697.524 201.867L697.268 201.068C697.421 200.925 697.561 200.768 697.726 200.64C700.551 198.44 705.11 198.467 708.442 199.125C717.346 200.882 722.575 206.25 727.401 213.443C732.496 204.925 737.616 201.458 746.948 198.59Z"/>
	<path fill="#CE9172" d="M198.307 365.262C198.549 368.489 198.908 372.221 198.275 375.398C186.796 378.672 175.382 382.106 163.977 385.627C161.928 382.765 160.163 379.835 158.44 376.766C171.572 372.77 185.595 370.435 198.307 365.262Z"/>
	<path fill="#CE9172" d="M338.747 270.76C355.925 263.57 374.908 260.888 392.446 254.585L394.584 266.873C388.616 265.689 381.179 268.121 375.814 270.698C369.703 272.639 346.161 271.649 338.747 270.76Z"/>
	<path fill="#CE9172" d="M197.65 317.105C198.466 320.033 198.832 326.272 198.033 329.197C191.414 331.325 184.478 332.832 177.774 334.719C165.205 338.256 152.701 342.033 140.214 345.851C138.922 342.458 137.761 339.013 136.567 335.584C143.768 333.616 195.896 319.173 197.65 317.105Z"/>
	<path fill="#CE9172" d="M197.525 301.521C197.584 305.564 197.927 309.814 197.602 313.835C176.729 319.372 156.042 325.419 135.343 331.565L132.185 320.937C154.136 315.397 176.063 308.713 197.525 301.521Z"/>
	<path fill="#CE9172" d="M129.192 304.974C129.342 304.955 129.493 304.938 129.644 304.917L130.395 304.81C139.51 303.557 148.732 300.485 157.505 297.762C174.424 292.509 191.342 286.38 208.568 282.273C205.368 286.586 202.622 291.116 199.541 295.488C189.75 299.566 179.407 302.457 169.259 305.485L130.835 316.762C130.194 313.072 129.856 309.333 129.219 305.648C129.126 305.111 129.108 305.537 129.192 304.974Z"/>
	<path fill="#CE9172" d="M283.386 270.232C297.372 268.739 310.671 264.086 324.144 260.187C345.72 253.942 367.29 247.264 389.014 241.58L391.831 251.177L348.781 263.367C340.674 265.667 332.18 267.627 324.364 270.775C320.63 271.947 288.123 270.777 283.386 270.232Z"/>
	<path fill="#CE9172" d="M198.1 332.162C198.923 337.351 199.279 355.478 198.23 360.723C183.421 362.99 169.667 369.832 155.114 372.782C153.162 369.789 151.401 366.761 149.717 363.609C159.564 359.31 192.329 353.107 197.634 349.372C197.961 347.786 198.038 346.74 197.834 345.136C194.007 344.754 153.24 358.031 147.145 359.838C145.274 356.614 143.569 353.273 141.802 349.99C154.519 345.896 167.642 342.669 180.511 339.058C185.932 337.536 192.895 336.363 197.729 333.558L198.1 332.162Z"/>
	<path fill="#CE9172" d="M784.545 803.367C790.39 801.458 795.991 800.999 801.748 798.422C800.226 812.129 796.749 825.989 794.043 839.525C790.812 855.691 788.032 872.096 784.29 888.14L768.143 891.477L779.508 835.826C781.464 826.596 784.164 817.298 785.662 808.001C785.903 806.507 786.191 805.087 785.59 803.669L784.545 803.367Z"/>
	<path fill="#CE9172" d="M766.995 803.48C771.765 803.37 778.309 802.481 782.863 803.475C779.356 822.474 775.422 841.415 771.467 860.326C769.29 870.742 766.318 881.557 765.273 892.138C759.687 892.92 754.116 893.739 748.552 894.668C752.788 878.978 755.566 862.905 758.636 846.957C761.425 832.469 764.497 818.021 766.995 803.48Z"/>
	<path fill="#CE9172" d="M748.084 803.484C753.308 803.308 758.518 803.138 763.747 803.186L752.37 860.637C750.08 871.85 746.96 883.474 745.829 894.849L738.589 895.695C735.356 895.325 732.509 896.227 730.006 893.669C733.195 886.16 734.952 872.115 736.611 863.63C740.528 843.603 744.553 823.585 748.084 803.484Z"/>
	<path fill="#CE9172" d="M235.899 270.382C256.829 265.653 276.972 258.692 297.526 252.643C326.254 244.188 355.329 236.236 383.745 226.815C384.932 230.099 386.139 233.373 387.39 236.634C370.836 240.925 354.462 246.507 338.075 251.43C330.856 253.599 280.625 267.774 277.058 270.397C264.101 271.837 248.9 271.526 235.899 270.382Z"/>
	<path fill="#CE9172" d="M285.258 146.086C291.751 146.517 298.029 149.911 304.303 151.558C287.157 155.554 270.115 161.477 253.23 166.522C228.611 173.878 203.87 180.804 179.154 187.821L163.755 192.544C168.424 186.819 173.705 179.945 180.221 176.276C188.747 171.476 208.514 167.57 218.81 164.679C240.897 158.478 262.983 151.547 285.258 146.086Z"/>
	<path fill="#CE9172" d="M312.201 155.137C316.625 155.777 320.16 158.213 323.784 160.642C315.329 162.649 306.992 165.407 298.669 167.907L259.986 179.399C225.393 189.534 190.497 199.089 156.131 209.928L147.374 213.075C150.174 209.15 153.845 202.502 158.228 200.365C164.973 197.077 173.543 195.406 180.75 193.285L236.116 177.378L283.206 163.321C292.699 160.449 302.445 156.93 312.201 155.137Z"/>
	<path fill="#CE9172" d="M330.045 165.133C333.844 165.851 337.014 168.719 340.018 170.983C330.934 174.455 321.497 177.042 312.175 179.789L273.114 191.294L146.045 228.843C143.582 229.88 140.913 230.67 138.388 231.562C140.068 227.623 141.815 223.723 143.614 219.836C157.073 215.356 171.004 211.848 184.643 207.908L248.303 189.15L293.717 175.693C305.742 172.028 317.8 167.988 330.045 165.133Z"/>
	<path fill="#CE9172" d="M729.642 803.504L745.16 803.454L748.084 803.484C744.553 823.585 740.528 843.603 736.611 863.63C734.952 872.115 733.195 886.16 730.006 893.669L727.254 894.463C726.859 894.783 726.201 894.932 725.723 894.992C722.764 895.363 713.618 894.658 711.536 892.714L708.913 891.995C709.338 884.009 713.515 868.394 715.247 859.882C719.069 841.1 722.35 822.215 726.122 803.432L729.642 803.504ZM726.122 803.432C722.35 822.215 719.069 841.1 715.247 859.882C713.515 868.394 709.338 884.009 708.913 891.995L711.536 892.714C714.702 887.74 727.102 816.323 729.642 803.504L726.122 803.432ZM745.16 803.454L734.255 858.747C731.865 870.498 728.63 882.582 727.254 894.463L730.006 893.669C733.195 886.16 734.952 872.115 736.611 863.63C740.528 843.603 744.553 823.585 748.084 803.484L745.16 803.454Z"/>
	<path fill="#CE9172" d="M356.854 188.566C357.395 188.466 358.021 188.336 358.566 188.495C361.122 189.239 363.706 193.692 365.238 195.759C354.934 199.534 344.05 202.346 333.542 205.535L277.455 222.503L136.207 264.988L129.189 267.168C129.775 263.46 130.166 259.716 130.608 255.987C140.482 253.97 150.108 250.836 159.745 247.924L188.759 239.385L297.69 206.255C317.331 200.25 336.977 193.73 356.854 188.566Z"/>
	<path fill="#CE9172" d="M346.066 175.584C348.817 176.781 351.811 180.453 353.965 182.527C320.766 194.175 286.959 204.234 253.259 214.311L138.008 248.871C135.768 249.591 133.672 250.42 131.54 251.415C133.005 246.607 134.501 241.869 136.327 237.182C164.705 230.015 192.741 221.021 220.799 212.692L346.066 175.584Z"/>
	<path fill="#CE9172" d="M833.045 671.202C838.213 670.565 843.28 669.304 848.353 668.155C846.736 678.735 843.716 689.28 841.394 699.743L828.158 759.404C823.999 777.674 821.114 796.241 817.472 814.621C813.029 837.042 807.881 859.511 804.166 882.055C798.728 884.41 792.877 885.905 787.163 887.443C792.022 868.605 795.458 849.446 799.175 830.358C801.341 819.238 804.084 808.067 805.83 796.885C806.486 794.728 813.78 789.032 815.718 786.576C819.212 782.148 821.701 776.499 822.994 771.029C825.864 758.889 824.331 739.534 824.367 726.684C824.376 723.559 823.796 718.598 824.819 715.671C826.232 711.219 826.876 706.269 827.785 701.669C829.784 691.563 831.835 681.439 833.045 671.202Z"/>
	<path fill="#CE9172" d="M851.875 666.802C857.67 665.016 863.053 661.493 868.304 658.518L839.339 797.876C834.141 823.183 827.765 848.747 824.243 874.324C818.701 877.09 812.986 879.32 807.098 881.234C816.43 840.336 823.1 798.795 831.704 757.738C835.476 739.741 839.215 721.685 843.379 703.775C846.231 691.514 849.811 679.217 851.875 666.802Z"/>
	<path fill="#CE9172" d="M871.842 655.92C874.208 653.089 888.848 638.466 890.772 637.569C889.077 648.515 886.438 659.42 884.166 670.265L872.423 726.41C862.906 772.224 854.117 818.236 844.078 863.93C838.461 867.248 832.722 870.296 826.821 873.08C831.669 852.639 835.458 832.068 839.572 811.476L859.569 712.745L867.674 674.568C869.022 668.376 870.14 662.014 871.842 655.92Z"/>
	<path fill="#CE9172" d="M368.662 200.623C371.367 201.727 373.799 207.296 375.115 209.844C339.771 219.249 305.107 231.202 270.075 241.695L183.98 267.579L150.874 277.819C145.408 279.474 139.815 280.866 134.406 282.686C132.933 283.181 130.366 284.069 129.364 285.344C128.378 286.597 128.561 287.099 128.676 288.602L129.305 289.066C136.007 288.773 152.375 282.615 159.476 280.41L228.897 258.71C278.325 243.197 328.166 228.6 377.906 214.107C379.189 216.263 380.2 218.618 381.286 220.88C381.79 221.797 381.824 221.875 381.827 222.846C378.322 226.009 265.844 258.339 249.713 263.264C227.201 270.137 204.89 277.614 182.414 284.586C164.529 290.134 146.445 295.139 128.635 300.898C127.983 291.119 127.395 282.568 128.552 272.733C137.276 271.154 146.034 268.044 154.541 265.519L204.012 250.6L368.662 200.623Z"/>
	<path fill="#CE9172" d="M900.433 622.406C925.436 648.209 938.01 689.743 937.49 725.021C936.88 766.447 916.795 803.922 887.442 832.19C875.813 843.389 861.801 855.5 847.117 862.363C852.443 841.122 856.351 819.605 860.704 798.153L880.553 700.556L889.435 658.35C891.242 649.932 893.939 640.995 894.171 632.391C895.482 628.839 898.252 625.488 900.433 622.406ZM908.24 639.656C904.965 652.222 882.968 757.453 885.341 761.781C885.571 762.202 885.788 762.357 886.125 762.674C891.44 743.06 894.296 722.89 898.31 702.99C902.221 683.598 907.574 663.819 909.768 644.186C909.946 642.592 910.12 641.775 909.371 640.329L908.24 639.656Z"/>
	<path fill="#767699" d="M69.1755 398.551C63.6047 382.986 68.4624 347.595 72.6266 331.205C74.4893 323.873 77.141 316.815 79.8899 309.782C82.1405 304.023 94.5824 282.142 99.5183 279.983C98.1772 283.081 94.817 286.163 92.7755 288.944C89.7834 293.019 87.1344 297.457 84.7448 301.908C72.9126 323.948 68.4817 349.413 68.0307 374.21C67.8858 382.18 67.7747 389.758 70.1076 397.454C71.7496 396.419 73.3932 395.395 75.191 394.649C87.9559 389.348 105.613 393.457 117.735 398.75C135.461 406.49 152.258 421.14 161.708 438.086C165.268 444.47 167.764 451.33 170.405 458.125C174.368 474.67 174.754 493.104 165.592 508.085C162.948 512.407 159.583 516.013 155.981 519.549C142.904 496.39 128.394 474.408 111.469 453.875C108.756 450.584 104.347 443.894 100.127 442.818C99.4332 442.641 99.407 442.67 98.7925 442.662C98.3029 443.784 98.4813 443.949 98.8912 445.06C101.465 452.036 110.539 459.722 115.33 465.545C119.204 470.253 122.844 475.215 126.357 480.196C135.723 493.474 144.112 507.359 151.684 521.736C150.565 522.077 149.439 522.351 148.286 522.554C131.126 525.583 113.059 517.366 99.2647 507.913C95.3857 505.255 91.9674 502.059 88.137 499.384C87.259 500.194 87.5005 501.384 87.4224 502.55C87.302 501.392 87.2563 499.959 86.8775 498.862C85.5924 495.139 75.3562 484.706 72.4137 480.028C65.2951 468.71 60.7776 456.199 59.1759 442.922C57.1998 426.541 58.7847 411.797 69.1755 398.551Z"/>
	<defs>
		<linearGradient id="gradient_0" gradientUnits="userSpaceOnUse" x1="431.21985" y1="972.79596" x2="526.97455" y2="766.77112">
			<stop offset="0" stop-color="#D2D3A3"/>
			<stop offset="1" stop-color="#FBEFE2"/>
		</linearGradient>
	</defs>
	<path fill="url(#gradient_0)" d="M608.227 802.999C623.076 803.023 637.978 803.518 652.815 803.385L655.459 803.512C660.718 803.229 665.899 803.199 671.161 803.302L674.425 803.455C679.528 803.296 684.668 802.995 689.766 803.341L692.473 803.566C697.658 803.14 702.84 803.08 708.025 803.508L711.191 803.585C716.148 803.189 721.154 803.377 726.122 803.432C722.35 822.215 719.069 841.1 715.247 859.882C713.515 868.394 709.338 884.009 708.913 891.995L711.536 892.714C713.618 894.658 722.764 895.363 725.723 894.992C726.201 894.932 726.859 894.783 727.254 894.463L730.006 893.669C732.509 896.227 735.356 895.325 738.589 895.695C734.258 896.41 730.109 897.66 725.691 898.159C718.568 898.964 711.323 898.949 704.161 899.054C684.352 899.342 664.621 898.704 645.189 894.468C620.4 889.064 596.974 879.317 573.5 869.964C530.669 852.9 490.601 840.785 444.022 842.055C420.505 842.697 397.288 846.594 374.191 850.808C351.155 855.011 328.419 861.014 305.395 865.403C283.36 869.605 261.252 872.03 238.894 873.67C231.098 874.241 220.666 876.086 213.265 873.484C215.7 872.68 218.038 871.951 220.004 870.238C230.103 861.438 230.572 840.989 231.581 828.51C261.694 830.186 292.33 828.787 322.509 828.617L371.187 828.091C378.862 827.998 386.657 828.468 394.307 827.85C398.627 827.501 402.75 827.469 405.671 823.822C409.458 819.093 408.327 811.954 407.814 806.38C407.848 805.04 407.697 804.453 408.473 803.333C409.004 803.095 409.49 802.873 410.079 802.818C415.356 802.326 421.451 802.996 426.827 802.996L469.914 802.99L608.227 802.999ZM692.473 803.566L689.766 803.341C684.963 822.792 681.866 842.686 677.888 862.315C676.59 868.718 675.597 875.47 673.818 881.747C675.233 882.117 676.352 882.484 677.644 883.167C681.078 885.973 686.833 887.71 691.119 888.635C692.157 888.815 693.237 888.94 694.246 889.239C697.714 890.515 705.458 893.49 708.913 891.995C709.338 884.009 713.515 868.394 715.247 859.882C719.069 841.1 722.35 822.215 726.122 803.432C721.154 803.377 716.148 803.189 711.191 803.585L708.025 803.508C702.84 803.08 697.658 803.14 692.473 803.566ZM674.425 803.455L671.161 803.302C665.899 803.199 660.718 803.229 655.459 803.512L652.815 803.385C650.957 809.487 650.168 816.075 649.085 822.357C646.968 834.64 645.03 847.176 642.175 859.302L645.189 862.533C648.122 866.537 653.611 870.422 658.102 872.426C659.082 873.054 660.062 873.68 661.029 874.327C665.084 877.312 669.243 879.658 673.818 881.747C675.597 875.47 676.59 868.718 677.888 862.315C681.866 842.686 684.963 822.792 689.766 803.341C684.668 802.995 679.528 803.296 674.425 803.455Z"/>
	<path fill="#CE9172" d="M608.227 802.999C623.076 803.023 637.978 803.518 652.815 803.385C650.957 809.487 650.168 816.075 649.085 822.357C646.968 834.64 645.03 847.176 642.175 859.302C633.293 853.489 620.062 830.268 615.315 820.195C612.756 814.765 611.317 808.819 608.505 803.509C608.414 803.338 608.319 803.169 608.227 802.999Z"/>
	<path fill="#CE9172" d="M674.425 803.455C679.528 803.296 684.668 802.995 689.766 803.341C684.963 822.792 681.866 842.686 677.888 862.315C676.59 868.718 675.597 875.47 673.818 881.747C669.243 879.658 665.084 877.312 661.029 874.327C660.062 873.68 659.082 873.054 658.102 872.426C653.611 870.422 648.122 866.537 645.189 862.533L642.175 859.302C645.03 847.176 646.968 834.64 649.085 822.357C650.168 816.075 650.957 809.487 652.815 803.385L655.459 803.512C660.718 803.229 665.899 803.199 671.161 803.302L674.425 803.455ZM655.459 803.512L652.815 803.385C650.957 809.487 650.168 816.075 649.085 822.357C646.968 834.64 645.03 847.176 642.175 859.302L645.189 862.533C648.122 866.537 653.611 870.422 658.102 872.426C659.898 859.17 662.774 846.054 665.418 832.948C667.408 823.081 669.135 813.16 671.161 803.302C665.899 803.199 660.718 803.229 655.459 803.512ZM671.161 803.302C669.135 813.16 667.408 823.081 665.418 832.948C662.774 846.054 659.898 859.17 658.102 872.426C659.082 873.054 660.062 873.68 661.029 874.327C663.353 863.26 665.129 852.039 667.186 840.916L674.425 803.455L671.161 803.302Z"/>
	<path fill="#CE9172" d="M655.459 803.512C660.718 803.229 665.899 803.199 671.161 803.302C669.135 813.16 667.408 823.081 665.418 832.948C662.774 846.054 659.898 859.17 658.102 872.426C653.611 870.422 648.122 866.537 645.189 862.533L642.175 859.302C645.03 847.176 646.968 834.64 649.085 822.357C650.168 816.075 650.957 809.487 652.815 803.385L655.459 803.512ZM652.815 803.385C650.957 809.487 650.168 816.075 649.085 822.357C646.968 834.64 645.03 847.176 642.175 859.302L645.189 862.533C647.583 842.982 653.357 823.465 655.459 803.512L652.815 803.385Z"/>
	<path fill="#CE9172" d="M692.473 803.566C697.658 803.14 702.84 803.08 708.025 803.508L711.191 803.585C716.148 803.189 721.154 803.377 726.122 803.432C722.35 822.215 719.069 841.1 715.247 859.882C713.515 868.394 709.338 884.009 708.913 891.995C705.458 893.49 697.714 890.515 694.246 889.239C693.237 888.94 692.157 888.815 691.119 888.635C686.833 887.71 681.078 885.973 677.644 883.167C676.352 882.484 675.233 882.117 673.818 881.747C675.597 875.47 676.59 868.718 677.888 862.315C681.866 842.686 684.963 822.792 689.766 803.341L692.473 803.566ZM692.473 803.566L689.766 803.341C684.963 822.792 681.866 842.686 677.888 862.315C676.59 868.718 675.597 875.47 673.818 881.747C675.233 882.117 676.352 882.484 677.644 883.167C681.078 885.973 686.833 887.71 691.119 888.635C697.808 860.568 702.603 831.851 708.025 803.508C702.84 803.08 697.658 803.14 692.473 803.566ZM708.025 803.508C702.603 831.851 697.808 860.568 691.119 888.635C692.157 888.815 693.237 888.94 694.246 889.239C695.589 879.307 698.104 869.34 700.062 859.505L711.191 803.585L708.025 803.508Z"/>
	<path fill="#CE9172" d="M692.473 803.566C697.658 803.14 702.84 803.08 708.025 803.508C702.603 831.851 697.808 860.568 691.119 888.635C686.833 887.71 681.078 885.973 677.644 883.167C676.352 882.484 675.233 882.117 673.818 881.747C675.597 875.47 676.59 868.718 677.888 862.315C681.866 842.686 684.963 822.792 689.766 803.341L692.473 803.566ZM689.766 803.341C684.963 822.792 681.866 842.686 677.888 862.315C676.59 868.718 675.597 875.47 673.818 881.747C675.233 882.117 676.352 882.484 677.644 883.167C678.417 876.059 680.252 868.737 681.55 861.673C685.109 842.301 689.21 822.982 692.473 803.566L689.766 803.341Z"/>
	<path fill="#355246" d="M425.328 270.838C440.806 256.939 457.507 244.32 473.514 231.033C482.526 223.552 491.161 214.456 501.005 208.153C504.165 206.13 507.866 204.318 511.711 204.547C516.068 204.806 519.545 207.175 523.048 209.553C533.059 216.347 542.228 225.147 551.488 232.947L596.057 269.971C608.852 270.107 621.628 269.671 634.421 269.62L726.196 269.057C739.932 268.888 753.616 268.419 767.363 268.468C774.977 268.496 782.744 268.223 790.273 269.54C798.917 271.053 806.663 274.551 812.826 280.914C817.268 285.5 820.593 291.268 822.081 297.493C825.695 312.607 823.862 329.86 823.849 345.354L823.94 412.651C847.365 401.68 870.293 390.316 895.263 383.195C901.058 381.543 907.031 379.804 913.02 379.075C918.09 396.142 920.579 413.256 922.816 430.888C930.114 488.405 931.118 566.672 902.355 619.102C901.741 620.219 901.094 621.316 900.433 622.406C898.252 625.488 895.482 628.839 894.171 632.391C892.703 634.07 891.573 635.472 890.772 637.569C888.848 638.466 874.208 653.089 871.842 655.92C870.705 656.73 869.294 657.553 868.304 658.518C863.053 661.493 857.67 665.016 851.875 666.802C850.724 667.223 849.426 667.573 848.353 668.155C843.28 669.304 838.213 670.565 833.045 671.202C831.835 681.439 829.784 691.563 827.785 701.669C826.876 706.269 826.232 711.219 824.819 715.671C823.796 718.598 824.376 723.559 824.367 726.684C824.331 739.534 825.864 758.889 822.994 771.029C821.701 776.499 819.212 782.148 815.718 786.576C813.78 789.032 806.486 794.728 805.83 796.885C804.053 796.615 803.232 797.477 801.748 798.422C795.991 800.999 790.39 801.458 784.545 803.367L782.863 803.475C778.309 802.481 771.765 803.37 766.995 803.48L763.747 803.186C758.518 803.138 753.308 803.308 748.084 803.484L745.16 803.454L729.642 803.504L726.122 803.432C721.154 803.377 716.148 803.189 711.191 803.585L708.025 803.508C702.84 803.08 697.658 803.14 692.473 803.566L689.766 803.341C684.668 802.995 679.528 803.296 674.425 803.455L671.161 803.302C665.899 803.199 660.718 803.229 655.459 803.512L652.815 803.385C637.978 803.518 623.076 803.023 608.227 802.999L469.914 802.99L426.827 802.996C421.451 802.996 415.356 802.326 410.079 802.818C409.49 802.873 409.004 803.095 408.473 803.333C407.697 804.453 407.848 805.04 407.814 806.38C406.09 803.418 406.65 782.935 407.366 778.982C434.536 779.696 461.899 779.054 489.088 779.054L648.389 779.064L740.366 779.058C754.398 779.075 768.523 780.417 782.527 779.113C787.735 778.628 792.511 776.579 796.346 772.996C802.847 766.92 804.899 759.662 804.992 751.002C805.279 724.22 804.8 697.383 804.839 670.592L805.077 457.815L805.276 363.991L805.468 334.07C805.518 326.924 805.81 319.699 805.126 312.581C804.534 306.43 802.23 300.989 797.843 296.571C793.986 292.686 789.364 290.198 783.947 289.312C778.168 288.367 771.886 288.979 766.046 289.096L740.113 289.433L622.886 290.087C628.909 296.061 635.415 301.655 641.724 307.327C645.246 306.375 648.299 305.637 651.987 306.288C655.428 306.896 658.243 308.715 660.154 311.65C662.306 314.956 663.052 319.118 662.185 322.961C661.174 327.438 658.161 331.554 654.157 333.809C651.124 335.517 647.648 336.145 644.27 335.157C639.295 333.703 635.883 329.909 633.491 325.528L636.695 322.67C636.285 319.221 637.007 317.067 638.276 313.928C638.377 313.541 638.577 312.857 638.573 312.469C638.557 311.071 637.654 310.741 636.658 309.989C633.455 307.82 630.476 304.814 627.512 302.304C622.534 298.09 617.48 294.054 612.254 290.153L493.048 290.346C466.192 290.336 439.24 289.439 412.402 290.545L409.734 292.736C406.558 291.166 404.845 290.948 401.324 291.252C393.364 290.114 384.581 290.814 376.532 290.824L333.416 290.784L267.973 290.779C257.078 290.764 245.757 290.078 234.914 290.8C231.454 291.031 227.224 291.799 224.377 293.881C220.987 296.36 219.268 301.05 218.733 305.057C217.735 312.531 218.353 320.723 218.379 328.278L218.55 369.984L219.136 510.935C212.113 516.514 205.273 522.156 198.586 528.131L198.513 455.403C198.54 444.608 199.248 433.748 198.757 422.966C198.671 421.071 198.741 418.821 197.649 417.212L197.743 416.846C198.364 414.134 198.816 411.152 198.16 408.411L198.21 404.692C198.945 401.747 198.371 397.814 198.259 394.776L198.152 390.523C198.346 387.274 198.386 384.133 198.21 380.882C198.042 379.069 198.198 377.217 198.275 375.398C198.908 372.221 198.549 368.489 198.307 365.262C198.063 363.776 198.197 362.224 198.23 360.723C199.279 355.478 198.923 337.351 198.1 332.162L198.033 329.197C198.832 326.272 198.466 320.033 197.65 317.105L197.602 313.835C197.927 309.814 197.584 305.564 197.525 301.521L199.541 295.488C202.622 291.116 205.368 286.586 208.568 282.273C208.587 282.248 208.604 282.221 208.625 282.198C216.019 274.31 225.449 271.295 235.899 270.382C248.9 271.526 264.101 271.837 277.058 270.397C279.171 270.491 281.276 270.34 283.386 270.232C288.123 270.777 320.63 271.947 324.364 270.775C329.097 271.24 334 270.984 338.747 270.76C346.161 271.649 369.703 272.639 375.814 270.698C381.318 271.42 387.212 270.994 392.761 270.983L425.328 270.838ZM509.509 210.083C496.934 216.775 483.171 230.556 472.083 240.105C459.686 250.783 447.119 261.118 434.07 270.992L510.75 270.554L586.585 270.014C571.251 257.69 556.111 245.061 541.078 232.371C533.291 225.798 525.417 217.886 516.882 212.394C514.463 210.837 512.4 210.017 509.509 210.083ZM638.276 313.928C637.007 317.067 636.285 319.221 636.695 322.67C637.312 324.065 637.924 325.541 638.782 326.81C640.354 329.137 642.523 330.681 645.324 331.094C648.439 331.553 651.625 330.648 654.115 328.749C656.533 326.905 658.36 324.093 658.687 321.032C658.977 318.315 658.011 315.737 656.238 313.692C654.049 311.168 651.544 309.758 648.191 309.59C647.223 309.542 646.441 309.53 645.7 310.192C646.177 313.156 650.467 314.861 651.054 318.241L650.268 319.115C642.501 321.257 643.024 314.914 638.276 313.928ZM833.045 671.202L830.874 672.051C828.544 680.762 826.402 690.027 825.249 698.973C824.612 704.389 824.018 710.235 824.819 715.671C826.232 711.219 826.876 706.269 827.785 701.669C829.784 691.563 831.835 681.439 833.045 671.202Z"/>
	<path fill="#CE9172" d="M824.526 671.475L830.874 672.051C828.544 680.762 826.402 690.027 825.249 698.973C823.511 695.712 824.503 676.609 824.526 671.475Z"/>
	<path d="M197.649 417.212C198.741 418.821 198.671 421.071 198.757 422.966C199.248 433.748 198.54 444.608 198.513 455.403L198.586 528.131C205.273 522.156 212.113 516.514 219.136 510.935C224.27 507.981 232.189 503.099 238.354 504.865C241.01 505.627 242.865 507.448 244.066 509.895C248.778 519.495 243.964 535.941 240.45 545.253C235.54 558.263 228.95 568.199 219.282 578.124C219.648 598.634 219.319 619.184 219.291 639.699C219.277 649.33 218.836 659.212 219.513 668.819C228.188 664.498 240.814 658.801 250.713 661.83C254.153 662.883 256.883 665.137 258.475 668.371C263.056 677.67 257.706 695.419 254.34 704.473C249.598 717.225 240.634 727.876 228.084 733.507C225.354 734.732 222.488 735.672 219.542 736.202L219.718 742.834C225.056 744.354 229.868 745.879 232.874 750.972C238.156 759.921 235.457 780.819 234.969 791.417L249.986 791.479C250.355 775.581 250.108 758.631 253.488 743.052C259.487 742.829 265.465 742.248 271.463 742.087C296.586 741.41 321.802 741.788 346.933 741.784C367.075 741.78 387.247 741.56 407.383 742.047C407.703 752.101 408.523 769.539 407.366 778.982C406.65 782.935 406.09 803.418 407.814 806.38C408.327 811.954 409.458 819.093 405.671 823.822C402.75 827.469 398.627 827.501 394.307 827.85C386.657 828.468 378.862 827.998 371.187 828.091L322.509 828.617C292.33 828.787 261.694 830.186 231.581 828.51C230.572 840.989 230.103 861.438 220.004 870.238C218.038 871.951 215.7 872.68 213.265 873.484C196.988 874.863 162.456 878.796 149.231 869.988C138.136 862.598 141.703 841.951 139.272 830.674C139.216 830.415 139.154 830.156 139.095 829.898C115.529 822.768 93.3904 802.701 80.7948 781.824C58.8571 745.461 59.1582 707.265 67.8933 667.166C69.7877 658.47 72.2922 649.929 74.4004 641.285C77.3012 629.392 79.1966 617.269 82.1608 605.399C79.3293 603.293 75.0025 602.2 71.7557 600.684C61.1742 595.745 51.134 587.138 44.7755 577.338C40.329 570.486 36.9234 561.563 38.8796 553.319C40.0264 548.486 42.9013 544.726 47.1746 542.216C59.6431 534.893 76.3643 538.112 89.4874 541.506C89.6909 528.453 88.7425 515.523 87.4224 502.55C87.5005 501.384 87.259 500.194 88.137 499.384C91.9674 502.059 95.3857 505.255 99.2647 507.913C113.059 517.366 131.126 525.583 148.286 522.554C149.439 522.351 150.565 522.077 151.684 521.736C144.112 507.359 135.723 493.474 126.357 480.196C122.844 475.215 119.204 470.253 115.33 465.545C110.539 459.722 101.465 452.036 98.8912 445.06C98.4813 443.949 98.3029 443.784 98.7925 442.662C99.407 442.67 99.4332 442.641 100.127 442.818C104.347 443.894 108.756 450.584 111.469 453.875C128.394 474.408 142.904 496.39 155.981 519.549C159.583 516.013 162.948 512.407 165.592 508.085C174.754 493.104 174.368 474.67 170.405 458.125C179.58 457.587 188.635 455.969 197.799 455.385C197.317 442.733 197.178 429.864 197.649 417.212Z"/>
	<path fill="#FEE1C2" d="M187.719 737.406L188.163 735.973C191.694 735.362 195.21 737.209 198.646 737.802C198.351 739.047 198.248 739.835 197.334 740.787C195.558 741.646 193.287 742.369 191.298 742.145C189.598 741.954 188.279 741.321 187.242 740.008L187.719 737.406Z"/>
	<path fill="#DDDBB6" d="M197.649 417.212C198.741 418.821 198.671 421.071 198.757 422.966C199.248 433.748 198.54 444.608 198.513 455.403L198.586 528.131C187.949 539.956 179.935 554.283 180.726 570.623C181.062 577.555 182.818 584.65 186.739 590.46C183.656 596.883 181.48 603.658 178.529 610.129C177.961 576.021 170.797 550.123 155.981 519.549C159.583 516.013 162.948 512.407 165.592 508.085C174.754 493.104 174.368 474.67 170.405 458.125C179.58 457.587 188.635 455.969 197.799 455.385C197.317 442.733 197.178 429.864 197.649 417.212Z"/>
	<path fill="#78C6D3" d="M219.136 510.935C224.27 507.981 232.189 503.099 238.354 504.865C241.01 505.627 242.865 507.448 244.066 509.895C248.778 519.495 243.964 535.941 240.45 545.253C235.54 558.263 228.95 568.199 219.282 578.124C215.139 581.081 211.005 584.056 206.704 586.779C204.342 588.274 201.004 589.655 198.957 591.473C195.802 592.531 192.737 593.83 189.591 594.888C198.11 573.113 215.108 554.46 226.814 534.439C227.821 532.717 229.173 530.518 229.069 528.465C229.031 527.719 228.689 527.677 228.165 527.248L227.187 527.452C222.3 532.192 218.81 538.649 215.075 544.305C205.125 559.373 195.612 574.731 186.739 590.46C182.818 584.65 181.062 577.555 180.726 570.623C179.935 554.283 187.949 539.956 198.586 528.131C205.273 522.156 212.113 516.514 219.136 510.935Z"/>
	<path fill="#78C6D3" d="M219.513 668.819C228.188 664.498 240.814 658.801 250.713 661.83C254.153 662.883 256.883 665.137 258.475 668.371C263.056 677.67 257.706 695.419 254.34 704.473C249.598 717.225 240.634 727.876 228.084 733.507C225.354 734.732 222.488 735.672 219.542 736.202C214.175 736.694 203.218 736.473 198.646 737.802C195.21 737.209 191.694 735.362 188.163 735.973L187.719 737.406C185.78 725.528 244.556 683.305 246.373 676.494C246.559 675.796 246.142 675.371 245.841 674.769L244.976 674.561C238.935 677.133 200.955 712.651 193.923 719.778C190.455 723.293 187.197 726.893 184.454 731.006C184.415 730.788 184.372 730.57 184.337 730.35C182.371 718.08 191.449 695.365 198.461 685.664C204.984 679.108 211.468 673.491 219.513 668.819Z"/>
	<path fill="#DDDBB6" d="M219.282 578.124C219.648 598.634 219.319 619.184 219.291 639.699C219.277 649.33 218.836 659.212 219.513 668.819C211.468 673.491 204.984 679.108 198.461 685.664C191.449 695.365 182.371 718.08 184.337 730.35C184.372 730.57 184.415 730.788 184.454 731.006C184.098 731.792 184.227 731.937 183.399 732.302C183.095 731.85 182.978 731.723 182.774 731.141C180.605 724.964 179.171 711.854 178.331 704.916C173.818 667.675 173.579 629.622 189.591 594.888C192.737 593.83 195.802 592.531 198.957 591.473C201.004 589.655 204.342 588.274 206.704 586.779C211.005 584.056 215.139 581.081 219.282 578.124Z"/>
	<path fill="#355246" d="M219.282 578.124C219.648 598.634 219.319 619.184 219.291 639.699C219.277 649.33 218.836 659.212 219.513 668.819C211.468 673.491 204.984 679.108 198.461 685.664C198.82 674.059 198.407 662.326 198.358 650.71C198.277 630.932 198.393 611.245 198.957 591.473C201.004 589.655 204.342 588.274 206.704 586.779C211.005 584.056 215.139 581.081 219.282 578.124Z"/>
	<path fill="#80B16A" d="M82.1608 605.399C79.3293 603.293 75.0025 602.2 71.7557 600.684C61.1742 595.745 51.134 587.138 44.7755 577.338C40.329 570.486 36.9234 561.563 38.8796 553.319C40.0264 548.486 42.9013 544.726 47.1746 542.216C59.6431 534.893 76.3643 538.112 89.4874 541.506C106.088 548.252 120.565 561.378 127.521 578.1C130.337 584.871 131.716 592.109 133.253 599.248C127.273 595.285 121.689 590.769 115.718 586.777C101.996 577.604 88.0271 570.084 73.0273 563.235C69.5918 561.666 64.2526 558.522 60.5163 558.397C59.4075 559 59.4109 559.075 58.8842 560.233C59.1822 561.566 59.3767 562.107 60.5518 562.889C65.4697 566.164 77.4442 569.919 83.6159 572.894C101.158 581.349 116.525 591.988 131.659 604.158C119.323 610.163 106.857 610.343 93.5442 607.845C89.8866 607.159 85.8167 605.717 82.1608 605.399Z"/>
	<path fill="#CE9172" d="M326.841 794.763C352.546 794.219 378.286 794.295 403.995 794.314C404.354 802.25 406.361 815.398 402.037 822.309C396.835 825.511 320.832 824.557 309.625 824.621C283.768 824.85 257.859 825.416 232.008 824.683C233.188 815.064 234.14 805.187 234.615 795.508L326.841 794.763Z"/>
	<path fill="#DDDBB6" d="M87.4224 502.55C87.5005 501.384 87.259 500.194 88.137 499.384C91.9674 502.059 95.3857 505.255 99.2647 507.913C113.059 517.366 131.126 525.583 148.286 522.554C149.439 522.351 150.565 522.077 151.684 521.736C176.975 572.68 174.153 588.053 172.317 642.454C164.801 632.303 157.363 622.416 148.438 613.435C143.651 608.618 137.558 604.42 133.253 599.248C131.716 592.109 130.337 584.871 127.521 578.1C120.565 561.378 106.088 548.252 89.4874 541.506C89.6909 528.453 88.7425 515.523 87.4224 502.55Z"/>
	<path fill="#FEFEFE" d="M355.003 745.749L404.062 745.654L404.157 790.047L302.595 791.479L254.043 791.944C253.836 776.722 254.878 761.663 256.234 746.515L355.003 745.749Z"/>
	<path d="M320.78 757.21C323.209 756.969 326.457 756.661 328.755 757.528C329.897 757.959 330.459 758.243 330.894 759.42C330.784 759.568 330.69 759.73 330.563 759.865C328.91 761.628 324.837 761.358 322.562 761.484C318.401 761.611 314.967 762.015 311.11 760.228L310.819 759.389C313.044 757.025 317.784 757.339 320.78 757.21Z"/>
	<path d="M321.646 770.712C323.893 770.7 326.819 770.411 328.935 771.221C330.162 771.692 330.702 771.999 331.276 773.178L330.474 774.135C328.022 775.255 325.482 775.196 322.833 775.32C319.05 775.366 315.136 775.798 311.874 773.558L311.756 772.608C314.358 770.324 318.388 770.8 321.646 770.712Z"/>
	<path d="M284.7 757.724C289.19 757.624 294.8 757.397 298.717 759.88L298.046 761.194C295.326 762.543 291.803 762.377 288.837 762.481C284.641 762.54 279.634 762.825 275.548 761.881C274.186 761.567 273.813 761.164 273.094 760.012L273.318 759.242C275.96 757.291 281.431 757.82 284.7 757.724Z"/>
	<path d="M271.604 771.573C276.953 771.371 293.911 769.966 297.754 772.798C298.51 773.356 298.414 774.162 298.59 775.029C294.496 776.048 276.534 776.585 273.119 774.625C271.759 773.845 271.9 772.979 271.604 771.573Z"/>
	<path d="M346.329 756.76C354.423 756.484 370.403 755.377 377.772 756.925C379.229 757.232 380.829 757.593 381.668 758.92L381.211 759.624C379.426 760.439 378.072 760.48 376.125 760.486C364.639 760.594 353.064 761.665 341.637 760.065L340.718 758.624C342.493 757.042 344.013 756.834 346.329 756.76Z"/>
	<path d="M341.284 770.576C349.236 770.372 375.57 769.041 381.084 771.09C381.671 772.511 381.386 773.001 381.076 774.476C373.39 774.511 347.41 775.871 341.59 773.211C340.846 772.044 341.033 771.962 341.284 770.576Z"/>
	<path fill="#78C6D3" d="M145.642 745.547C157.352 744.522 169.6 745.931 181.34 746.285C192.824 746.632 204.395 746.132 215.844 747.191C219.318 747.513 222.857 747.999 226.09 749.38C228.135 750.253 229.12 751.724 229.891 753.736C235.473 768.312 228.183 829.462 224.844 846.73C223.597 853.178 222.034 859.446 219.512 865.521C214.68 870.692 202.755 871 196.203 871.249C185.638 871.65 157.484 872.699 149.845 865.146C142.46 857.844 139.541 773.633 139.974 760.48C140.197 753.717 140.55 750.346 145.642 745.547Z"/>
	<path fill="#DDDBB6" d="M82.1608 605.399C85.8167 605.717 89.8866 607.159 93.5442 607.845C106.857 610.343 119.323 610.163 131.659 604.158C147.171 617.894 160.965 632.609 171.857 650.33C171.549 664.064 172.165 677.487 172.552 691.195C169.881 690.921 167.183 690.544 164.501 690.446C154.021 689.758 143.6 688.8 133.174 687.517C128.249 686.911 97.4317 681.617 95.6126 682.356L94.9978 683.505C95.4957 684.73 95.885 685.107 97.1062 685.669C101.845 687.849 108.506 688.218 113.676 688.916C125.187 690.47 136.751 691.833 148.317 692.916C155.524 693.591 162.941 693.809 170.086 694.933C171.391 694.982 171.973 694.807 173.084 695.583C174.804 710.821 176.172 726.18 180.953 740.848C171.769 740.097 147.43 738.225 140.449 744.331C135.867 748.338 135.851 754.566 135.631 760.206C135.276 769.357 137.209 823.64 139.095 829.898C115.529 822.768 93.3904 802.701 80.7948 781.824C58.8571 745.461 59.1582 707.265 67.8933 667.166C69.7877 658.47 72.2922 649.929 74.4004 641.285C77.3012 629.392 79.1966 617.269 82.1608 605.399Z"/>
	<path fill="#80B16A" d="M170.086 694.933C168.519 694.917 167.212 694.856 165.78 695.599C162.611 697.244 160.039 700.047 157.3 702.296C151.419 707.123 143.996 710.822 136.785 713.174C123.407 717.536 105.718 718.014 92.9484 711.44C85.5363 707.624 78.9358 701.849 76.4213 693.63C74.4159 687.075 75.2356 679.836 78.6145 673.88C82.6254 666.811 89.5847 661.952 97.3206 659.757C117.659 653.988 139.005 663.49 153.028 678.203C155.56 680.86 161.226 688.818 163.868 690.15C164.076 690.255 164.29 690.347 164.501 690.446C154.021 689.758 143.6 688.8 133.174 687.517C128.249 686.911 97.4317 681.617 95.6126 682.356L94.9978 683.505C95.4957 684.73 95.885 685.107 97.1062 685.669C101.845 687.849 108.506 688.218 113.676 688.916C125.187 690.47 136.751 691.833 148.317 692.916C155.524 693.591 162.941 693.809 170.086 694.933Z"/>
	<path d="M636.658 309.989C637.654 310.741 638.557 311.071 638.573 312.469C638.577 312.857 638.377 313.541 638.276 313.928C637.007 317.067 636.285 319.221 636.695 322.67L633.491 325.528C633.218 324.361 632.935 323.179 632.779 321.99C632.167 317.337 633.883 313.58 636.658 309.989Z"/>
	<defs>
		<linearGradient id="gradient_1" gradientUnits="userSpaceOnUse" x1="365.43323" y1="321.81351" x2="411.93445" y2="306.24597">
			<stop offset="0" stop-color="#020202"/>
			<stop offset="1" stop-color="#2D3032"/>
		</linearGradient>
	</defs>
	<path fill="url(#gradient_1)" d="M401.324 291.252C404.845 290.948 406.558 291.166 409.734 292.736C403.948 298.161 397.777 303.227 391.76 308.396C394.561 311.41 396.571 315.037 396.691 319.234C396.8 323.04 395.138 326.729 392.556 329.473C389.289 332.944 384.563 334.938 379.797 334.863C375.585 334.796 371.404 333.182 368.553 330.018C365.44 326.564 364.126 321.447 364.533 316.875C364.852 313.293 366.473 310.501 369.288 308.285C374.056 304.533 378.79 305.41 384.4 306.146C390.25 301.502 395.711 296.193 401.324 291.252ZM375.072 309.068C371.924 310.901 369.527 312.782 368.635 316.496C367.919 319.48 368.679 322.615 370.358 325.138C372.239 327.967 375.267 329.947 378.642 330.424C381.956 330.891 385.376 329.798 387.982 327.741C388.948 326.979 389.773 326.045 390.587 325.128C391.915 321.645 392.781 318.5 391.277 314.899C390.859 313.895 390.352 313.209 389.62 312.419L388.649 312.072C385.483 313.649 385.927 319.59 381.711 319.463C380.239 318.588 378.844 317.486 378.494 315.697C378.005 313.197 381.348 310.331 380.291 309.14C378.508 308.89 376.866 308.96 375.072 309.068Z"/>
	<path fill="#355246" d="M271.924 651.419L271.87 443.299L271.739 389.064C271.703 378.972 270.4 365.897 272.615 356.22C274.38 354.761 276.397 354.419 278.641 354.224C288.39 353.375 298.725 353.986 308.521 353.995L369.5 354.345L522.98 354.369L668.907 353.884L723.636 353.536C732.947 353.516 742.695 352.912 751.945 353.884L752.649 353.963C753.889 376.04 753.867 398.158 754.097 420.261L755.076 517.519L755.617 649.969C755.656 674.42 756.168 698.926 755.527 723.368C712.27 722.805 668.963 723.297 625.7 723.375L413.453 723.54L324 723.528C306.734 723.634 288.978 724.846 271.779 723.42C271.543 716.738 271.411 709.96 271.81 703.282C272.117 686.057 270.657 668.58 271.924 651.419ZM570.205 384.75L330.102 386.451C311.92 386.735 293.686 386.502 275.516 386.996L275.587 487.82C282.614 487.279 289.845 487.61 296.902 487.617L334.838 487.623L456.75 487.567L751.509 487.51L750.051 384.507C690.176 383.546 630.09 384.293 570.205 384.75ZM275.513 490.96L275.553 638.074C306.573 638.185 337.566 638.451 368.585 638.084L368.697 584.499C368.701 580.709 369.422 569.737 368.634 566.645C368.541 566.279 368.211 566.02 368 565.707L366.625 565.651C353.125 565.627 339.611 565.503 326.112 565.679C317.038 565.797 304.697 567.374 295.969 565.361C295.321 564.413 295.331 564.469 295.493 563.333C296.777 562.225 298.058 562.033 299.699 561.87C306.438 561.2 313.648 562.022 320.445 562.037L368.742 562.026C368.892 538.367 369.393 514.631 368.795 490.98C337.739 490.893 306.555 491.585 275.513 490.96ZM675.736 357.255L436.771 357.787L361.527 357.795L338.669 357.794C334.753 357.794 330.572 358.095 326.685 357.712C326.681 365.969 326.874 374.275 326.641 382.526L399.125 381.825L750.038 381.02L749.531 357.011L675.736 357.255ZM387.014 641.747C382.059 641.814 377.088 641.799 372.136 641.974C373.164 667.693 371.601 693.794 370.609 719.504L449.75 719.508L466.111 719.504C465.705 693.536 466.592 667.531 466.281 641.553L387.014 641.747ZM290.017 641.864C285.111 641.858 280.209 641.834 275.305 642.021C275.334 645.864 275.63 650.074 274.993 653.864C274.187 655.218 274.224 656.719 273.022 657.858C272.825 655.8 272.634 653.841 272.053 651.845C272.012 651.702 271.967 651.561 271.924 651.419C270.657 668.58 272.117 686.057 271.81 703.282C271.822 706.407 270.945 712.836 273.235 715.216C273.677 715.676 274.196 716.062 274.616 716.542C274.774 716.722 274.884 716.939 275.017 717.137C275.06 718.23 274.82 719.163 275.6 719.971C284.618 720.44 294.693 720.621 303.671 719.749C307.376 720.543 350.047 720.474 352.573 719.596C361.583 713.537 364.802 709.592 368.942 699.375C370.079 695.764 368.965 663.774 368.513 658.073C363.848 650.52 359.792 646.572 351.957 642.124C348.766 641.401 294.014 641.264 290.017 641.864ZM469.656 641.761C470.403 650.546 469.982 659.643 469.989 668.466L470.03 719.506L560.153 719.533C560.123 693.594 560.589 667.554 560.042 641.626C529.939 641.485 499.75 641.036 469.656 641.761ZM372.208 565.683C372.953 589.741 372.634 614.172 372.358 638.249L466.023 638.181C467.113 636.098 466.344 573.592 466.291 565.654C434.944 565.276 403.532 566.257 372.208 565.683ZM372.312 490.989C372.122 506.085 371.954 521.177 372.038 536.275C372.086 544.826 372.624 553.594 372.244 562.121L466.425 562.125L466.401 491.119C435.053 490.685 403.665 490.992 372.312 490.989ZM563.492 641.647L563.6 719.584L649.56 719.527L649.524 641.94C620.888 641.603 592.098 642.499 563.492 641.647ZM469.654 565.611L469.619 638.287C499.399 637.977 529.283 637.864 559.062 638.117L559.838 637.692C560.326 629.005 559.883 620.075 559.874 611.363C559.857 596.141 559.96 580.91 559.769 565.689L469.654 565.611ZM469.959 491.176L469.954 562.222C499.807 562.111 529.713 561.644 559.563 562.003C559.925 538.356 559.967 514.646 559.537 491C529.69 490.895 499.801 490.515 469.959 491.176ZM652.958 490.994L652.994 562.281C655.805 562.251 658.709 562.373 661.507 562.167C661.425 540.217 661.402 518.273 661.924 496.328C689.261 495.792 716.621 495.97 743.962 495.955C743.586 517.972 743.92 540.053 743.879 562.076L752.179 562.444L751.787 491.003L652.958 490.994ZM275.67 357.58C274.664 359.918 273.873 362.695 274.672 365.199C277.17 367.936 281.705 365.799 281.987 370.51C281.262 371.708 280.929 372.091 279.532 372.425C278.155 372.753 276.588 372.812 275.177 372.956C275.257 376.295 275.35 379.618 275.602 382.949C288.491 383.294 301.195 383.475 314.09 383.015L323.278 382.916C323.312 374.63 323.545 366.292 323.29 358.012C307.699 356.942 291.296 357.027 275.67 357.58ZM652.987 641.908L653.03 719.504L662.996 719.492C662.489 693.633 663.018 667.705 662.797 641.832C659.524 641.906 656.26 641.935 652.987 641.908ZM743.612 642.007L743.907 719.454L752.34 719.45C752.877 693.653 752.48 667.794 752.349 641.99L743.612 642.007ZM653.184 565.522L653.028 638.269C656.151 638.214 659.338 637.991 662.43 638.493C661.029 614.419 662.173 589.937 661.925 565.803C658.997 565.494 656.123 565.498 653.184 565.522ZM743.626 565.42L743.735 614.344C743.752 622.245 744.346 630.667 743.725 638.516C746.606 638.671 749.545 638.582 752.433 638.596L752.252 565.654L743.626 565.42ZM563.693 491.008L563.53 496.464C592.186 496.547 620.972 497.328 649.606 496.236C649.692 494.604 649.653 493.139 649.448 491.517C646.466 490.016 572.403 490.971 563.693 491.008ZM368.942 699.375C364.802 709.592 361.583 713.537 352.573 719.596L369.96 719.542C370.017 712.776 369.488 706.113 368.942 699.375ZM351.957 642.124C359.792 646.572 363.848 650.52 368.513 658.073C368.677 652.69 368.571 647.295 368.541 641.91C363.043 641.757 357.46 642.03 351.957 642.124Z"/>
	<path d="M293.099 367.342C294.527 367.589 296.273 367.84 297.472 368.721C298.522 369.492 298.615 370.02 298.767 371.194C298.164 372.777 297.435 373.349 296.139 374.326C293.91 374.595 292.608 374.449 290.719 373.183C290.1 372.104 289.677 371.641 290.023 370.341C290.409 368.886 291.923 368.094 293.099 367.342Z"/>
	<path d="M309.472 367.511C311.599 367.46 314.409 367.205 316.31 368.336C317.546 369.071 317.613 369.276 317.921 370.58C317.386 372.263 316.343 372.991 315.041 374.072C312.699 374.474 309.532 374.901 307.537 373.159C306.506 372.258 306.576 371.882 306.515 370.612C307.209 369.014 308.091 368.45 309.472 367.511Z"/>
	<path fill="#78C6D3" d="M661.924 496.328C689.261 495.792 716.621 495.97 743.962 495.955C743.586 517.972 743.92 540.053 743.879 562.076C726.286 561.737 708.648 561.969 691.05 561.973C681.366 561.975 671.105 561.27 661.507 562.167C661.425 540.217 661.402 518.273 661.924 496.328Z"/>
	<path fill="#355246" d="M721.677 516.497C722.959 516.448 724.192 516.414 725.446 516.773C726.77 517.152 728.183 518.085 728.786 519.341C729.707 521.262 728.727 523.92 727.923 525.715C723.859 534.793 709.507 550.343 700.232 553.765C694.085 551.676 690.585 548.636 686.298 543.899C683.457 539.4 680.266 533.94 679.469 528.598C679.204 526.816 679.272 524.654 680.557 523.246C681.314 522.418 682.414 522.054 683.508 521.998C689.842 521.67 697.352 528.723 701.608 532.787C707.708 525.696 713.257 520.65 721.677 516.497Z"/>
	<path fill="#78C6D3" d="M563.53 496.464C592.186 496.547 620.972 497.328 649.606 496.236C648.937 518.168 649.497 540.313 649.508 562.264C620.857 561.878 592.157 562.207 563.502 562.251L563.53 496.464Z"/>
	<path fill="#78C6D3" d="M661.925 565.803C669.18 566.532 676.945 566.045 684.249 566.034C704.016 566.006 723.881 565.129 743.626 565.42L743.735 614.344C743.752 622.245 744.346 630.667 743.725 638.516L686.496 638.246C678.509 638.25 670.395 639.04 662.43 638.493C661.029 614.419 662.173 589.937 661.925 565.803Z"/>
	<path d="M687.756 582.246C701.13 582.226 714.58 581.947 727.941 582.509C728.307 597.31 728.955 612.266 727.356 627.014L722.097 627.289C708.266 627.302 694.374 627.55 680.555 626.983C680.275 613.519 679.578 595.698 680.92 582.506L687.756 582.246Z"/>
	<path fill="#78C6D3" d="M684.108 586.01L724.502 586.02L724.508 623.697L684.315 623.708C684.082 611.141 684.094 598.579 684.108 586.01Z"/>
	<path fill="#78C6D3" d="M563.462 565.865C592.121 566.189 620.815 565.894 649.477 565.892L649.5 638.354C620.852 637.971 592.153 638.364 563.499 638.409L563.462 565.865Z"/>
	<path fill="#78C6D3" d="M662.797 641.832L743.612 642.007L743.907 719.454C716.95 719.762 689.957 719.481 662.996 719.492C662.489 693.633 663.018 667.705 662.797 641.832Z"/>
	<path d="M688.382 658.727C701.566 658.357 714.838 658.725 728.023 659C728.328 673.86 728.927 688.91 727.37 703.713L721.125 703.997C707.698 704.095 694.626 704.504 681.216 703.341C678.964 690.327 679.875 672.179 680.957 659.014L688.382 658.727Z"/>
	<path fill="#78C6D3" d="M684.321 662.356C697.781 662.003 711.306 662.282 724.771 662.313C724.568 674.97 725.175 687.705 724.455 700.34C720.424 701.008 715.467 700.529 711.366 700.492L684.179 700.213C683.676 687.894 683.164 674.618 684.321 662.356Z"/>
	<path fill="#80B16A" d="M485.004 651.513L540.46 651.529L540.451 707.998C522.041 706.96 503.419 707.488 484.98 707.5L485.004 651.513Z"/>
	<path fill="#78C6D3" d="M290.017 641.864C294.014 641.264 348.766 641.401 351.957 642.124C359.792 646.572 363.848 650.52 368.513 658.073C368.965 663.774 370.079 695.764 368.942 699.375C364.802 709.592 361.583 713.537 352.573 719.596C350.047 720.474 307.376 720.543 303.671 719.749C294.693 720.621 284.618 720.44 275.6 719.971C274.82 719.163 275.06 718.23 275.017 717.137C274.884 716.939 274.774 716.722 274.616 716.542C274.196 716.062 273.677 715.676 273.235 715.216C270.945 712.836 271.822 706.407 271.81 703.282C272.117 686.057 270.657 668.58 271.924 651.419C271.967 651.561 272.012 651.702 272.053 651.845C272.634 653.841 272.825 655.8 273.022 657.858C274.224 656.719 274.187 655.218 274.993 653.864C275.63 650.074 275.334 645.864 275.305 642.021C280.209 641.834 285.111 641.858 290.017 641.864ZM275.305 642.021C275.334 645.864 275.63 650.074 274.993 653.864C274.187 655.218 274.224 656.719 273.022 657.858C272.825 655.8 272.634 653.841 272.053 651.845C272.012 651.702 271.967 651.561 271.924 651.419C270.657 668.58 272.117 686.057 271.81 703.282C271.822 706.407 270.945 712.836 273.235 715.216C273.677 715.676 274.196 716.062 274.616 716.542C274.774 716.722 274.884 716.939 275.017 717.137C275.06 718.23 274.82 719.163 275.6 719.971C284.618 720.44 294.693 720.621 303.671 719.749C297.945 716.522 291.097 714.315 287.249 708.624C279.981 697.875 276.208 668.022 279.059 655.324C280.584 648.533 284.415 645.376 290.017 641.864C285.111 641.858 280.209 641.834 275.305 642.021Z"/>
	<path d="M271.924 651.419C271.967 651.561 272.012 651.702 272.053 651.845C272.634 653.841 272.825 655.8 273.022 657.858C274.224 656.719 274.187 655.218 274.993 653.864C275.335 674.949 275.158 696.051 275.017 717.137C274.884 716.939 274.774 716.722 274.616 716.542C274.196 716.062 273.677 715.676 273.235 715.216C270.945 712.836 271.822 706.407 271.81 703.282C272.117 686.057 270.657 668.58 271.924 651.419Z"/>
	<path d="M299.022 654.502L347.002 654.493C347.577 670.487 347.386 686.462 347.268 702.463C331.244 702.897 315.079 702.381 299.042 702.312L299.022 654.502Z"/>
	<path fill="#78C6D3" d="M301.973 657.503L344.366 657.509L344.382 699.481C330.271 699.599 316.138 699.351 302.026 699.263L301.973 657.503Z"/>
	<path fill="#80B16A" d="M387.46 651.501L443.904 651.516L444.012 707.385C425.228 706.909 406.269 707.065 387.482 707.426L387.46 651.501Z"/>
	<path fill="#80B16A" d="M296.412 579.516L353.951 579.509L354.003 633.504C334.851 633.283 315.663 633.494 296.507 633.491L296.412 579.516Z"/>
	<path d="M421.625 399.445C428.097 404.534 452.666 422.322 454.793 428.63C452.292 428.621 449.06 425.909 447.031 424.513C441.542 417.505 428.902 409.043 421.503 403.321C412.646 410.485 401.97 417.696 394.513 426.265C393.675 426.932 392.774 427.728 391.822 428.216C390.669 428.807 389.73 428.775 388.548 428.407L388.609 427.567C394.194 419.34 413.016 406.126 421.625 399.445Z"/>
	<path d="M608.575 398.978C614.054 403.574 639.67 422.443 640.607 427.953C639.709 428.548 639.366 428.388 638.339 428.195C636.663 427.879 635.301 426.752 634.08 425.63C631.792 420.752 613.116 407.417 607.903 403.541C602.284 407.778 584.986 420.457 581.474 425.09C579.753 426.622 577.686 428.523 575.22 428.528C575.064 428.529 574.91 428.492 574.755 428.473C574.555 427.55 574.698 427.606 575.197 426.819C578.821 421.117 601.987 403.306 608.575 398.978Z"/>
	<path d="M513.255 397.815C521.549 405.333 543.467 419.399 547.705 428.026L547.332 428.592C544.006 427.92 541.869 426.104 539.241 424.089C535.446 418.484 519.693 407.409 513.422 402.517C507.39 406.451 490.151 418.562 486.454 424.194C484.444 425.805 481.937 427.8 479.273 427.996L478.932 427.355C481.138 421.617 506.955 402.614 513.255 397.815Z"/>
	<path d="M702.585 396.049C709.104 401.233 735.868 420.887 738.372 427.297C737.441 427.725 737.367 427.487 736.409 427.14C733.809 426.2 731.674 424.727 729.569 422.965C725.938 417.795 708.137 405.17 702.095 400.283C695.079 405.295 682.129 415.791 676.387 421.975C674.522 423.587 670.829 426.728 668.184 426.737C667.929 426.738 667.68 426.653 667.428 426.61C668.622 421.427 696.685 400.658 702.585 396.049Z"/>
	<path d="M299.182 426.371C298.075 427.256 296.746 428.461 295.435 429.004C294.305 429.472 293.48 429.61 292.367 429.079C293.989 422.432 321.512 403.433 328.216 398.292C329.032 398.821 329.822 399.389 330.612 399.956C336.276 404.016 363.262 423.614 364.262 429.766C360.582 430.06 354.7 424.533 352.013 422.269C344.791 414.978 336.553 408.603 328.476 402.293C320.962 408.046 304.983 419.526 299.182 426.371Z"/>
	<path fill="#CE9172" d="M581.474 425.09C584.986 420.457 602.284 407.778 607.903 403.541C613.116 407.417 631.792 420.752 634.08 425.63C632.239 431.606 633.458 460.915 633.51 469.354C616.39 468.77 599.206 469.064 582.079 469.142C582.049 460.204 583.818 431.164 581.474 425.09Z"/>
	<path fill="#78C6D3" d="M421.503 403.321C428.902 409.043 441.542 417.505 447.031 424.513C446.174 430.118 446.565 436.244 446.587 441.91L446.728 468.634C429.435 468.638 412.092 468.45 394.806 468.933L394.513 426.265C401.97 417.696 412.646 410.485 421.503 403.321Z"/>
	<path fill="#78C6D3" d="M486.454 424.194C490.151 418.562 507.39 406.451 513.422 402.517C519.693 407.409 535.446 418.484 539.241 424.089C538.434 428.732 538.931 434.173 538.928 438.913L538.936 468.884C521.632 468.543 504.237 468.853 486.93 468.997C486.989 460.252 488.212 430.553 486.454 424.194Z"/>
	<path fill="#78C6D3" d="M328.476 402.293C336.553 408.603 344.791 414.978 352.013 422.269C351.825 437.832 351.858 453.388 351.929 468.952C334.447 468.852 316.933 468.724 299.456 469.173C299.457 454.996 300.019 440.514 299.182 426.371C304.983 419.526 320.962 408.046 328.476 402.293Z"/>
	<path fill="#78C6D3" d="M702.095 400.283C708.137 405.17 725.938 417.795 729.569 422.965C729.201 438.299 729.882 453.695 729.147 469.017L676.627 469.004C676.482 453.327 676.651 437.653 676.387 421.975C682.129 415.791 695.079 405.295 702.095 400.283Z"/>
</svg>
