<?xml version="1.0" encoding="utf-8" ?>
<svg xmlns="http://www.w3.org/2000/svg" xmlns:xlink="http://www.w3.org/1999/xlink" width="1024" height="1024">
	<path fill="#9FC09E" d="M185.186 464.436C173.684 469.294 159.767 472.427 147.271 472.62C123.288 472.991 99.3372 466.254 81.896 449.213C62.8662 430.62 54.2123 402.77 54.0816 376.617C53.7682 313.874 109.234 229.093 151.981 186.244C197.354 140.763 249.988 124.323 313.236 138.79C355.539 148.466 378.258 159.697 423.503 152.496C466.624 145.632 506.921 125.517 545.346 105.681C563.663 96.2252 581.918 86.2629 601.23 78.951C628.769 68.5249 658.219 63.046 687.673 63.0371C759.18 63.0154 828.685 95.9173 878.798 146.069C921.067 188.371 957.829 251.666 957.537 313.038C957.416 338.554 950.074 366.885 931.298 385.171C907.773 408.083 876.69 410.862 845.615 408.414C837.551 407.779 829.388 406.097 821.311 406.025C820.671 399.973 820.823 393.689 820.683 387.596C820.453 377.563 820.183 367.529 820.099 357.493C820.027 348.838 820.342 339.673 818.57 331.173C817.426 325.685 815.27 320.333 811.863 315.85C805.041 306.874 795.855 303.578 785.064 302.059L784.11 302.055C773.067 303.82 761.24 303.641 750.082 303.629L749.571 281.697C749.241 267.646 749.108 253.394 738.609 242.716C733.076 237.089 726.088 233.41 718.249 232.373C707.259 230.918 695.136 232.307 684.074 232.728L628 234.735L460.109 240.592L404.246 242.552C393.31 242.933 382.313 243.578 371.372 243.494L366.336 243.613L365.767 243.674C359.318 244.325 352.709 244.288 346.23 244.502C335.951 244.842 325.664 245.234 315.381 245.396C303.35 245.586 288.956 244.582 277.376 248.108C270.973 250.057 265.355 253.838 261.093 258.989C253.933 267.642 251.768 278.49 252.166 289.506L252.613 294.512C253.556 302.797 252.651 311.204 253.112 319.508C253.137 320.977 253.359 322.409 252.505 323.683C247.63 325.936 240.581 325.055 235.285 325.149C214.945 325.507 197.475 331.864 190.04 352.287C188.539 356.412 187.746 360.651 187.467 365.025C186.718 376.748 187.963 388.582 188.422 400.298C189.063 416.672 189.209 433.094 189.503 449.478C189.609 455.365 190.387 462.256 189.641 468.034C189.456 467.725 189.271 467.415 189.079 467.11C187.927 465.278 187.253 464.921 185.186 464.436Z"/>
	<path fill="#FEFEFE" d="M882.642 324.716C891.737 324.276 902.25 323.744 911.193 325.485L911.145 325.736C906.64 326.209 902.149 326.35 897.625 326.486C886.836 326.778 876.098 327.381 865.433 325.353L882.642 324.716Z"/>
	<path fill="#FEFEFE" d="M811.164 221.383C814.278 225.498 810.513 259.366 809.818 266.239L809.452 266.371C807.669 262.815 810.452 227.924 811.164 221.383Z"/>
	<path fill="#FEFEFE" d="M784.11 302.055L779.132 301.913L778.884 301.369C780.505 297.09 788.792 293.314 792.804 291.52C802.386 287.235 814.989 286.828 824.819 290.621C834.365 294.304 841.271 301.433 845.258 310.788C850.174 322.321 849.454 334.176 844.734 345.635C843.147 349.487 840.843 354.135 836.876 355.965C835.668 356.522 834.354 356.869 833.123 356.37C832.869 351.989 838.996 344.949 840.828 340.689C846.623 327.206 842.981 310.387 831.971 300.637C825.407 294.824 816.88 292.099 808.159 292.692C799.446 293.284 791.85 296.715 785.064 302.059L784.11 302.055Z"/>
	<path fill="#FEFEFE" d="M178.082 289.805L178.017 235.707C178.047 226.13 177.275 215.512 178.952 206.083C180.501 197.374 184.835 190.274 192.148 185.196C195.485 182.879 199.709 180.772 203.759 180.213C211.551 179.137 219.729 179.674 227.583 179.716L259.717 179.645L314.383 179.486C324.898 179.475 336.664 178.513 346.982 180.44C354.978 181.933 361.512 185.831 366.069 192.691C372.967 203.076 372.117 215.955 372.066 227.866C372.044 232.927 372.388 238.53 371.372 243.494L366.336 243.613L365.767 243.674C359.318 244.325 352.709 244.288 346.23 244.502C335.951 244.842 325.664 245.234 315.381 245.396C303.35 245.586 288.956 244.582 277.376 248.108C270.973 250.057 265.355 253.838 261.093 258.989C253.933 267.642 251.768 278.49 252.166 289.506L252.613 294.512C253.556 302.797 252.651 311.204 253.112 319.508C253.137 320.977 253.359 322.409 252.505 323.683C247.63 325.936 240.581 325.055 235.285 325.149C214.945 325.507 197.475 331.864 190.04 352.287C188.539 356.412 187.746 360.651 187.467 365.025C186.718 376.748 187.963 388.582 188.422 400.298C189.063 416.672 189.209 433.094 189.503 449.478C189.609 455.365 190.387 462.256 189.641 468.034C189.456 467.725 189.271 467.415 189.079 467.11C187.927 465.278 187.253 464.921 185.186 464.436C184.079 455.588 184.615 445.947 184.482 437.001C173.514 437.052 103.545 438.899 100.094 435.538C98.2965 433.788 97.8938 430.52 97.6376 428.156C97.1264 423.439 97.4293 418.444 97.4308 413.689L97.4683 386.868C97.5038 368.747 96.7421 350.548 97.0535 332.451C97.2646 320.181 97.551 307.321 107.198 298.349C111.019 294.796 115.721 292.514 120.733 291.185C134.32 287.583 163.696 289.079 178.082 289.805Z"/>
	<path fill="#9FC09E" d="M103.283 388.023L182.98 388.001L183.991 432.501L103.024 431.982L103.283 388.023Z"/>
	<path fill="#9FC09E" d="M115.24 336.754L193.744 336.496C185.532 346.37 182.201 356.565 182.522 369.406C182.626 373.563 183.267 378.204 182.674 382.307L181.625 382.741L103.212 382.811C103.739 367.512 103.313 352.074 103.302 336.759L115.24 336.754Z"/>
	<path fill="#9FC09E" d="M103.264 331.496C103.145 322.534 102.908 312.996 108.549 305.441C112.46 300.201 117.598 297.493 123.871 296.053C134.784 293.549 147.263 295.044 158.419 295.192C179.303 295.468 200.244 294.911 221.136 294.832C231.123 294.795 242.207 296.067 252.042 294.606C252.233 294.577 252.423 294.543 252.613 294.512C253.556 302.797 252.651 311.204 253.112 319.508C231.461 319.35 217.068 319.264 198.341 331.488L103.264 331.496Z"/>
	<path fill="#FEFEFE" d="M135.676 305.431C138.852 305.755 141.604 306.039 143.718 308.699C144.945 310.243 145.455 312.169 145.084 314.114C144.45 317.437 142.252 319.065 139.563 320.798C136.461 320.367 133.463 319.296 131.565 316.639C130.46 315.093 130.068 313.172 130.496 311.32C131.183 308.343 133.246 307.005 135.676 305.431Z"/>
	<path fill="#9FC09E" d="M136.556 307.936C137.904 308.194 139.676 308.554 140.736 309.48C141.76 310.375 142.344 311.294 142.317 312.698C142.272 315.048 140.724 316.556 139.19 318.138C137.735 317.802 136.125 317.216 135 316.194C133.864 315.162 133.205 313.852 133.362 312.281C133.582 310.084 134.901 309.119 136.556 307.936Z"/>
	<path fill="#FEFEFE" d="M196.817 305.738C205.872 305.697 240.569 304.174 245.689 308.966C246.594 309.813 247.211 310.95 247.124 312.219C247.022 313.713 246.19 315.28 245.079 316.281C240.441 320.464 219.874 319.011 213.054 318.974C206.101 318.765 199.113 318.751 192.159 318.884C185.414 319.014 176.663 320.369 170.181 318.632C167.321 317.865 164.825 316.114 163.396 313.485C162.574 311.974 162.812 311.204 163.326 309.702C168.667 304.168 188.886 305.998 196.817 305.738Z"/>
	<path fill="#9FC09E" d="M225.77 310.27C228.826 310.074 231.952 309.958 235.012 310.055C237.337 310.129 241.482 310.299 243.075 311.992L242.325 312.851C240.611 313.56 238.889 314.141 237.023 314.247C232.525 314.502 227.729 314.007 223.195 313.99C210.841 313.943 198.478 313.854 186.125 314.078C180.889 314.319 173.749 314.987 168.854 313.162L168.78 312.513C170.302 311.087 172.672 310.696 174.688 310.487C179.709 309.967 185.148 310.54 190.218 310.517L225.77 310.27Z"/>
	<path fill="#9FC09E" d="M183.935 228.497L366.239 227.809L366.336 243.613L365.767 243.674C359.318 244.325 352.709 244.288 346.23 244.502C335.951 244.842 325.664 245.234 315.381 245.396C303.35 245.586 288.956 244.582 277.376 248.108C270.973 250.057 265.355 253.838 261.093 258.989C253.933 267.642 251.768 278.49 252.166 289.506L183.786 289.746L183.935 228.497Z"/>
	<path fill="#9FC09E" d="M206.559 185.049C206.955 185.012 207.352 184.981 207.749 184.959C217.524 184.396 227.515 184.782 237.316 184.782L291.592 184.815L320.159 184.95C328.789 184.909 337.924 184.208 346.455 185.665C350.652 186.381 354.712 188.642 357.81 191.528C366.522 199.643 366.103 211.57 366.311 222.491L343.106 222.495L183.722 223.497C183.44 214.839 183.36 205.74 187.805 197.988C192.106 190.488 198.599 187.267 206.559 185.049Z"/>
	<path fill="#FEFEFE" d="M218.293 196.505C219.365 196.469 220.453 196.423 221.525 196.494C223.744 196.641 225.963 197.934 227.317 199.676C228.312 200.957 228.8 202.54 228.541 204.16C228.083 207.032 226.228 208.629 223.963 210.209C222.813 210.515 221.462 210.727 220.268 210.634C218.476 210.495 216.565 209.528 215.431 208.132C214.216 206.634 213.831 204.68 214.046 202.792C214.376 199.884 216.12 198.247 218.293 196.505Z"/>
	<path fill="#9FC09E" d="M219.491 198.901C220.909 199.111 222.892 199.541 223.997 200.495C224.944 201.313 225.619 202.242 225.584 203.551C225.525 205.754 223.836 207.05 222.321 208.367C220.972 208.364 219.296 208.009 218.232 207.11C217.082 206.138 216.679 205.365 216.611 203.855C216.511 201.637 218.036 200.31 219.491 198.901Z"/>
	<path fill="#FEFEFE" d="M295.21 195.743C302.212 195.742 331.143 194.473 335.785 197.758C336.864 198.521 337.499 199.929 337.7 201.231C337.898 202.51 337.646 203.736 336.718 204.697C335.406 206.057 333.22 206.635 331.414 206.891C326.963 207.523 322.085 207.206 317.585 207.263L288.813 207.508C280.024 207.42 254.43 208.599 248.011 205.28C246.815 204.661 246.185 204.003 245.742 202.715C245.83 200.986 246.488 199.777 247.708 198.57C249.119 197.175 250.922 196.428 252.867 196.145C256.861 195.564 261.466 196.113 265.538 196.078L295.21 195.743Z"/>
	<path fill="#9FC09E" d="M318.688 199.775C322.798 199.574 328.881 198.536 332.473 200.859C333.353 201.428 333.106 201.095 333.333 202.038C330.169 203.762 274.612 203.191 264.856 203.467C261.177 203.382 254.105 204.037 251.124 201.853L251.006 200.881C255.762 198.683 309.166 200.086 318.688 199.775Z"/>
	<path fill="#345146" d="M371.372 243.494C382.313 243.578 393.31 242.933 404.246 242.552L460.109 240.592L628 234.735L684.074 232.728C695.136 232.307 707.259 230.918 718.249 232.373C726.088 233.41 733.076 237.089 738.609 242.716C749.108 253.394 749.241 267.646 749.571 281.697L750.082 303.629C761.24 303.641 773.067 303.82 784.11 302.055L785.064 302.059C795.855 303.578 805.041 306.874 811.863 315.85C815.27 320.333 817.426 325.685 818.57 331.173C820.342 339.673 820.027 348.838 820.099 357.493C820.183 367.529 820.453 377.563 820.683 387.596C820.823 393.689 820.671 399.973 821.311 406.025C821.769 420.991 821.121 436.108 822.439 451.028C834.59 451.045 846.944 450.597 859.066 451.296C892.378 453.218 923.976 464.498 947.891 488.405C982.262 522.765 993.862 574.699 993.655 621.937C993.59 636.849 992.138 651.824 990.101 666.584C980.653 735.025 952.126 801.238 902.532 850.242C846.306 905.799 763.288 943.96 683.5 943.459C634.885 943.154 589.031 926.78 554.72 891.641C550.543 887.363 543.609 877.671 539.677 874.586C519.269 874.46 498.452 875.841 478.463 880.131C407.817 895.296 342.126 936.688 268.658 937.579C218.118 938.193 173.418 921.397 137.113 885.878C102.233 851.753 78.8298 804.273 78.3121 754.946C77.7545 701.81 97.2952 651.205 128.763 608.812C139.932 593.767 152.842 580.099 164.371 565.335C168.564 559.966 172.538 554.403 176.135 548.616C180.76 541.175 184.812 532.831 190.963 526.553C191.258 520.354 190.722 513.84 190.627 507.62C190.426 494.435 190.292 481.205 189.641 468.034C190.387 462.256 189.609 455.365 189.503 449.478C189.209 433.094 189.063 416.672 188.422 400.298C187.963 388.582 186.718 376.748 187.467 365.025C187.746 360.651 188.539 356.412 190.04 352.287C197.475 331.864 214.945 325.507 235.285 325.149C240.581 325.055 247.63 325.936 252.505 323.683C253.359 322.409 253.137 320.977 253.112 319.508C252.651 311.204 253.556 302.797 252.613 294.512L252.166 289.506C251.768 278.49 253.933 267.642 261.093 258.989C265.355 253.838 270.973 250.057 277.376 248.108C288.956 244.582 303.35 245.586 315.381 245.396C325.664 245.234 335.951 244.842 346.23 244.502C352.709 244.288 359.318 244.325 365.767 243.674L366.336 243.613L371.372 243.494Z"/>
	<path fill="#9FC09E" d="M138.873 737.027C142.826 738.565 146.797 742.55 150.094 745.249C149.925 748.106 149.628 750.967 149.392 753.82C148.767 753.887 148.905 753.93 148.069 753.489C145.264 752.01 140.145 740.218 138.873 737.027Z"/>
	<path fill="#9FC09E" d="M122.529 661.209C127.392 664.15 135.406 681.649 138.364 687.217C133.406 685.384 128.252 684.463 123.07 683.533C122.406 676.096 122.484 668.666 122.529 661.209Z"/>
	<path fill="#9FC09E" d="M264.446 815.561C264.196 816.706 263.33 817.727 262.573 818.602C257.148 824.882 246.59 835.576 238.156 836.259C237.483 831.793 239.823 826.827 241.287 822.634C249.593 821.459 256.674 818.593 264.446 815.561Z"/>
	<path fill="#9FC09E" d="M306.874 695.894C309.167 698.487 307.59 715.652 307.46 719.699C301.034 721.971 294.664 724.377 288.296 726.806L287.699 726.674C287.717 722.716 303.539 700.59 306.874 695.894Z"/>
	<path fill="#9FC09E" d="M131.537 716.081C140.878 716.66 148.665 719.175 157.51 722.078C155.434 726.375 153.875 730.793 152.585 735.38L151.108 740.248C142.136 732.659 135.441 727.485 131.537 716.081Z"/>
	<path fill="#9FC09E" d="M123.702 688.225L140.454 691.974C142.923 695.035 153.892 712.752 153.574 716.028L151.883 715.631C146.546 713.547 140.419 710.665 134.562 711.517C133.199 712.319 132.596 713.249 131.726 714.558L131.382 715.084C127.996 711.382 124.594 693.476 123.702 688.225Z"/>
	<path d="M637.767 823.118L638.233 823.014C641.581 822.294 646.936 820.901 649.978 822.855C650.604 824.052 650.537 824.324 650.443 825.692C649.314 826.679 648.502 826.8 647.02 826.97C642.793 827.454 638.343 827.448 634.084 827.701C619.176 828.586 604.226 828.925 589.298 829.266C562.921 829.867 536.478 830.794 510.12 831.985L427.942 834.774C420.097 835.113 412.244 835.316 404.403 835.739C397.929 836.089 391.073 836.99 384.629 836.379C382.681 836.194 379.985 835.816 378.695 834.193L378.949 833.363C384.541 830.294 392.393 831.361 398.577 831.537C417.61 831.569 436.791 829.603 455.859 829.176L591.873 825.809C602.409 825.447 629.186 825.848 637.767 823.118Z"/>
	<path fill="#9FC09E" d="M126.076 655.743C149.805 659.884 166.921 675.041 182.423 692.473C174.428 699.179 167.668 706.106 161.287 714.364C161.97 703.643 164.44 693.014 166.718 682.548L166.603 681.649C165.827 680.645 165.71 680.495 164.532 680.051C164.371 680.133 164.196 680.193 164.047 680.297C160.075 683.06 157.434 705.52 156.765 711.245C152.741 703.796 148.891 696.284 144.636 688.959C145.736 682.685 148.231 675.811 148.063 669.447C148.028 668.109 147.875 667.18 146.889 666.234L145.788 666.527C142.027 670.714 141.955 677.694 141.334 683.068C136.288 673.938 131.037 664.919 126.076 655.743Z"/>
	<path fill="#9FC09E" d="M306.072 725.041L306.703 725.982C306.93 737.697 297.993 762.223 292.909 773.168C289.087 781.394 272.895 811.617 265.713 814.246C265.432 813.284 265.325 812.448 265.195 811.457C261 810.313 247.254 816.501 242.472 818.015L250.659 796.223C260.505 793.708 272.824 790.89 281.526 785.582C283.462 784.401 283.804 783.743 284.279 781.638L283.325 780.924C278.06 779.87 258.882 788.418 252.889 790.555C255.684 783.214 259.478 775.539 263.565 768.834C270.365 765.758 294.07 760.228 297.596 755.703C298.152 754.99 297.952 755.174 297.727 754.173C297.534 754.055 297.352 753.919 297.149 753.821C292.325 751.487 271.672 760.875 265.814 763.106L267.896 758.907C279.576 735.697 281.176 733.245 306.072 725.041Z"/>
	<path fill="#CD9072" d="M823.997 520.499C833.547 520.36 843.1 520.197 852.644 519.844C857.51 519.664 862.623 518.956 867.473 519.359C869.785 519.551 873.074 519.893 874.772 521.684C876.626 523.639 877.28 526.451 877.461 529.045C878.242 540.268 877.456 551.722 877.622 562.981L878.731 648.005L879.351 716.388L879.627 737.376C879.706 741.407 880.087 745.567 879.818 749.587C879.747 750.653 879.591 752.544 878.682 753.276C876.602 754.953 869.908 754.936 867.284 755.085C851.009 756.009 834.613 756.125 818.316 756.599L734.731 759.053C726.436 759.277 718.128 759.43 709.839 759.808C703.4 760.102 695.777 761.466 689.451 760.159C687.789 759.816 686.302 759.084 685.371 757.601C684.938 756.911 684.68 755.906 684.472 755.116C707.078 755.84 729.943 752.991 752.562 752.526L834.501 751.653C845.214 751.553 855.95 751.785 866.658 751.401C869.278 751.307 872.297 751.236 874.591 749.793C875.754 749.062 876.203 748.36 876.392 747.002C876.905 743.3 876.583 739.171 876.576 735.419L876.329 711.273L875.707 656.414L875.069 580.771C875.039 566.951 875.545 552.956 874.941 539.159C874.809 536.139 874.704 531.996 872.75 529.583C866.128 526.85 833.411 529.519 824.252 530.107C823.798 526.934 823.964 523.696 823.997 520.499Z"/>
	<path fill="#9FC09E" d="M301.287 692.407C302.052 692.33 301.653 692.267 302.453 692.74C300.13 699.903 284.271 721.637 279.352 728.98C278.263 724.64 278.201 719.689 275.906 715.747C275.186 714.51 274.425 713.554 273.018 713.189L272.305 713.885C270.937 719.172 274.254 729.142 275.898 734.325C271.636 742.87 266.77 751.142 262.091 759.466C260.488 752.555 258.982 740.473 255.373 734.713C254.123 733.975 253.961 733.742 252.541 733.869C252.229 734.241 252.024 734.429 251.862 734.937C250.154 740.316 257.139 759.227 259.191 765.302C254.983 774.487 250.84 783.688 245.83 792.471C243.156 782.72 242.346 768.956 238.659 760.141C238.128 758.873 237.513 758.37 236.278 757.855C235.396 758.478 235.252 759.042 234.799 759.996C237.412 772.846 236.655 786.778 244.041 798.162C240.538 808.963 237.047 819.704 233.846 830.601C224.903 805.808 223.42 781.129 232.953 756.254C244.526 726.056 272.549 705.083 301.287 692.407Z"/>
	<path fill="#FEFEFE" d="M824.252 530.107C833.411 529.519 866.128 526.85 872.75 529.583C874.704 531.996 874.809 536.139 874.941 539.159C875.545 552.956 875.039 566.951 875.069 580.771L875.707 656.414L876.329 711.273L876.576 735.419C876.583 739.171 876.905 743.3 876.392 747.002C876.203 748.36 875.754 749.062 874.591 749.793C872.297 751.236 869.278 751.307 866.658 751.401C855.95 751.785 845.214 751.553 834.501 751.653L752.562 752.526C729.943 752.991 707.078 755.84 684.472 755.116C684.349 753.153 684.055 751.662 685.046 749.892C687.96 748.73 767.751 745.878 777.896 745.517C785.49 746.777 794.393 746.007 802.135 746.002C824.967 745.988 847.744 744.868 870.574 744.971C870.684 693.696 869.601 642.442 869.031 591.175L868.887 534.206C854.099 535.091 839.309 535.151 824.502 535.467L824.252 530.107Z"/>
	<path fill="#FEFEFE" d="M545.85 753.25L553.236 752.972C558.542 772.259 565.705 788.854 575.353 806.369C563.704 806.579 552.028 807.387 540.383 807.853C522.625 808.565 504.879 809.057 487.125 809.954L458.032 810.788C464.223 792.524 470.71 774.361 476.712 756.038C486.845 754.927 497.36 754.884 507.546 754.583L545.85 753.25Z"/>
	<path fill="#77C6D3" d="M211.671 688.191C214.036 687.846 216.715 687.935 219.092 688.165C236.006 689.803 248.634 700.005 259.06 712.689C249.075 721.308 240.49 730.42 234.025 742.012C220.292 766.639 217.605 794.577 225.373 821.601C219.38 822.91 213.517 823.811 207.382 823.916C197.086 822.526 187.709 818.597 179.506 812.239C165.308 801.235 157.206 784.24 155.053 766.618C152.683 747.217 158.29 726.554 170.464 711.193C181.146 697.716 194.65 690.225 211.671 688.191Z"/>
	<path fill="#CD9072" d="M824.502 535.467C839.309 535.151 854.099 535.091 868.887 534.206L869.031 591.175C869.601 642.442 870.684 693.696 870.574 744.971C847.744 744.868 824.967 745.988 802.135 746.002C794.393 746.007 785.49 746.777 777.896 745.517C781.368 744.617 785.029 744.409 788.585 743.996C799.422 742.737 808.981 740.154 816.914 732.185C827.353 721.699 827.574 708.452 827.549 694.576L827.475 688.828C827.578 672.847 826.91 656.804 826.502 640.826L826.445 634.576C826.524 618.092 825.68 601.531 825.475 585.036L825.374 578.514C824.796 564.153 824.503 549.838 824.502 535.467Z"/>
	<path fill="#FEFEFE" d="M826.445 634.576C831.54 634.363 857.197 632.316 860.105 634.894C860.961 635.654 861.218 636.387 861.268 637.478C860.065 639.235 858.066 639.581 856.085 639.945C847.172 641.582 835.589 641.387 826.502 640.826L826.445 634.576Z"/>
	<path fill="#FEFEFE" d="M827.475 688.828C835.962 688.417 854.859 686.227 861.835 689.565L862.201 691.243C855.953 696.709 841.076 696.122 833.09 695.601C831.368 695.489 829.034 695.523 827.549 694.576L827.475 688.828Z"/>
	<path fill="#FEFEFE" d="M825.374 578.514C832.637 578.302 856.289 575.716 861.474 579.674C861.77 580.526 861.944 580.391 861.547 581.081C860.407 583.065 857.315 583.83 855.232 584.195C847.07 585.625 834.103 585.127 825.475 585.036L825.374 578.514Z"/>
	<path fill="#FEFEFE" d="M404.272 559.714C407.803 559.673 412.808 559.403 415.731 561.62C417.169 562.71 417.915 564.301 418.179 566.054C419.278 573.334 418.969 581.093 419.139 588.456L420.104 626.563L421.119 660.349C421.347 667.159 421.996 674.352 421.41 681.147C421.219 683.366 420.546 685.937 419.078 687.678C417.362 689.713 414.093 690.169 411.594 690.474C399.631 691.937 387.331 691.028 375.3 691.393C354.233 692.032 333.135 693.31 312.078 694.304C311.965 692.141 312.165 688.398 310.818 686.654C309.861 685.416 308.308 685.275 306.873 685.002C306.605 685.061 306.337 685.124 306.068 685.179C301.132 686.188 296.969 690.314 291.93 690.709C291.118 690.773 289.851 690.637 289.268 689.996C287.982 688.582 287.849 685.515 287.68 683.65C287.067 676.904 287.295 669.892 287.167 663.113L286.356 626.404L285.41 593.47C285.22 587.285 284.766 580.932 285.053 574.752C285.17 572.242 285.309 568.655 287.052 566.726C288.674 564.93 291.154 564.338 293.448 564.007C304.79 562.374 316.919 562.948 328.386 562.617C353.617 561.888 379.098 561.511 404.272 559.714Z"/>
	<path fill="#767699" d="M351.849 585.339C354.244 586.051 356.708 587.711 358.816 589.037C365.869 593.472 372.495 598.648 379.421 603.289C384.818 606.905 390.951 609.842 395.781 614.194C397.129 615.408 398.238 616.549 398.361 618.403C396.455 620.082 354.392 620.851 348.875 621.035C340.155 621.545 331.42 621.896 322.693 622.304C317.013 622.569 311.165 623.127 305.491 622.843C304.475 621.953 304.526 622.035 304.418 620.687C305.277 618.572 306.98 617.23 308.702 615.805C313.213 612.073 318.347 608.963 323.157 605.624C332.779 598.945 342.406 592.27 351.849 585.339Z"/>
	<path fill="#767699" d="M384.895 627.715C387.677 627.463 390.534 627.462 393.329 627.341L394.51 680.298C370.541 680.585 346.738 681.593 322.805 682.936L313.013 682.995L312.012 630.276C336.313 629.38 360.6 628.945 384.895 627.715Z"/>
	<path fill="#FEFEFE" d="M330.491 649.455C332.493 649.461 334.487 649.289 336.028 650.756C336.934 652.68 336.567 654.925 336.482 657.003L330.495 657.253L330.491 649.455Z"/>
	<path fill="#FEFEFE" d="M330.441 637.033L336.493 636.766L336.518 644.504L330.473 644.511L330.441 637.033Z"/>
	<path fill="#FEFEFE" d="M366.466 635.507L373.344 635.5L373.514 642.99L367.042 643.303C366.698 640.72 366.611 638.107 366.466 635.507Z"/>
	<path fill="#FEFEFE" d="M341.029 636.501L348.298 636.497L348.351 643.796L341.253 644.027L341.029 636.501Z"/>
	<path fill="#FEFEFE" d="M353.799 636.082L361.53 635.793L361.593 643.511L354.018 643.509L353.799 636.082Z"/>
	<path fill="#FEFEFE" d="M341.503 649.097L348.713 648.994L348.882 657.014L341.505 657.034L341.503 649.097Z"/>
	<path fill="#FEFEFE" d="M367.824 648.24L374.121 647.975C374.186 649.716 374.335 651.531 374.236 653.268C374.151 654.784 374.091 655.478 372.956 656.499L366.53 656.486C366.507 654.68 366.379 652.771 366.538 650.975C366.655 649.664 366.866 649.12 367.824 648.24Z"/>
	<path fill="#FEFEFE" d="M354.013 648.601L362.036 648.495L362.312 656.7L353.993 657.035L354.013 648.601Z"/>
	<path fill="#FEFEFE" d="M698.93 238.289L700.514 238.178C711.993 237.439 723.825 237.735 732.763 245.95C743.145 255.492 742.809 269.707 743.283 282.7L744.041 304.324C717.431 304.754 690.855 306.139 664.269 307.22L566.463 310.892L301.125 320.327C287.343 320.672 273.55 321.442 259.776 322.037L259.067 300.139C258.618 286.793 257.079 272.822 266.961 262.213C272.042 256.757 277.944 254.053 285.278 253.018C299.809 250.967 315.349 251.72 330.031 251.256L420.904 248.378L698.93 238.289Z"/>
	<path fill="#345146" d="M335.948 270.163C338.98 270.34 341.56 270.894 344.168 272.526C347.384 274.539 349.74 277.767 350.536 281.491C351.316 285.143 350.568 289.096 348.395 292.148C345.92 295.626 342.572 297.197 338.47 297.871C335.566 298.033 333.068 297.662 330.529 296.18C327.201 294.236 325.064 290.828 324.288 287.099C323.488 283.255 324.153 279.2 326.384 275.94C328.648 272.631 332.061 270.811 335.948 270.163Z"/>
	<path fill="#345146" d="M295.456 271.533C297.992 271.499 300.371 271.79 302.739 272.762C305.938 274.074 308.42 276.609 309.654 279.84C311.132 283.713 310.912 288.226 309.083 291.941C306.749 296.684 302.897 298.621 298.13 300.181C296.167 299.91 293.999 299.472 292.134 298.784C288.583 297.474 285.514 294.719 283.993 291.241C282.49 287.807 282.477 283.767 284.003 280.339C286.28 275.221 290.523 273.31 295.456 271.533Z"/>
	<path fill="#345146" d="M374.093 268.535C376.628 268.293 379.023 268.187 381.505 268.88C385.259 269.929 388.48 272.373 390.368 275.799C392.23 279.177 392.69 283.267 391.508 286.949C389.982 291.701 386.609 294.175 382.292 296.247C379.831 296.588 377.478 296.877 375.023 296.322C371.302 295.48 368.067 293.165 366.183 289.834C364.273 286.457 363.759 282.228 364.83 278.494C366.293 273.396 369.677 270.907 374.093 268.535Z"/>
	<path fill="#FEFEFE" d="M190.963 526.553C190.957 535.681 191.553 544.748 191.803 553.864L192.825 599.096C193.576 628.206 193.789 657.397 195.322 686.477L187.175 690.032C172.922 674.264 158.115 659.709 137.285 653.184C133.268 651.925 128.712 650.664 124.485 650.52C122.792 650.463 121.412 650.583 119.988 651.565C114.548 659.489 118.377 686.726 120.217 696.581C123.986 716.763 132.856 749.274 149.379 762.048C153.062 784.844 159.071 803.96 178.749 818.03C189.838 825.959 204.062 830.673 217.713 828.25C220.865 827.691 223.789 826.63 226.775 825.502C228.19 828.997 229.573 832.511 231.079 835.968C219.748 836.421 154.436 836.315 149.104 839.639L148.667 840.446C149.027 841.624 149.052 841.982 150.229 842.595C151.804 843.416 155.083 843.248 156.892 843.24C162.689 843.217 168.518 842.636 174.313 842.395C184.712 841.964 195.144 841.705 205.55 841.515C232.108 841.029 258.692 841.211 285.238 840.169C290.991 839.943 298.388 840.696 303.854 838.968C304.083 838.896 304.649 838.699 304.868 838.556C305.465 838.167 305.463 838.111 305.859 837.639C305.695 836.369 305.58 836.136 304.466 835.32C303.085 834.308 300.423 834.136 298.775 834.08C292.127 833.858 285.244 834.646 278.581 834.874C269.775 835.175 260.661 834.96 251.909 835.864C276.59 812.95 291.697 792.14 303.792 760.671L415.762 757.389C434.422 756.828 453.114 755.992 471.778 755.791C464.989 773.83 459.488 792.236 453.212 810.455C434.84 811.707 416.381 811.838 397.98 812.703C398.296 818.986 398.519 825.247 398.577 831.537C392.393 831.361 384.541 830.294 378.949 833.363L378.695 834.193C379.985 835.816 382.681 836.194 384.629 836.379C391.073 836.99 397.929 836.089 404.403 835.739C412.244 835.316 420.097 835.113 427.942 834.774L510.12 831.985C519.748 846.361 529.582 860.534 539.677 874.586C519.269 874.46 498.452 875.841 478.463 880.131C407.817 895.296 342.126 936.688 268.658 937.579C218.118 938.193 173.418 921.397 137.113 885.878C102.233 851.753 78.8298 804.273 78.3121 754.946C77.7545 701.81 97.2952 651.205 128.763 608.812C139.932 593.767 152.842 580.099 164.371 565.335C168.564 559.966 172.538 554.403 176.135 548.616C180.76 541.175 184.812 532.831 190.963 526.553Z"/>
	<path fill="#345146" d="M220.399 849.875C222.609 850.012 224.02 850.302 225.562 851.932C225.83 853.707 225.48 854.276 224.855 855.923C224.013 855.945 223.077 856.015 222.246 855.875C220.931 855.652 220.425 855.02 219.666 854.015C219.338 852.293 219.736 851.412 220.399 849.875Z"/>
	<path fill="#345146" d="M239.994 849.882C240.988 850.029 242.068 850.142 243.026 850.445C244.394 850.878 244.853 851.475 245.511 852.681C245.184 854.425 244.727 854.825 243.623 856.166C242.438 855.982 241.104 855.773 239.973 855.381C238.824 854.982 238.487 854.382 238.023 853.336C238.178 851.729 238.963 851.017 239.994 849.882Z"/>
	<path fill="#345146" d="M134.117 838.089C136.1 837.99 138.134 838.011 140.114 838.184C141.707 838.322 142.502 838.684 143.532 839.878C143.437 841.556 142.836 842.033 141.861 843.368C140.042 843.505 138.248 843.552 136.431 843.335C134.77 843.135 133.903 842.728 132.859 841.436C132.887 839.789 133.251 839.445 134.117 838.089Z"/>
	<path fill="#345146" d="M269.567 849.717C270.299 849.729 271.02 849.742 271.749 849.812C273.785 850.008 276.044 850.203 277.401 851.892C277.366 853.131 277.289 853.249 276.332 854.065C273.503 856.478 267.408 855.774 263.867 855.742C262.677 855.687 261.461 855.634 260.284 855.445C258.904 855.223 257.536 854.577 256.793 853.343C256.385 852.665 256.576 852.794 256.866 851.907C259.899 849.484 265.791 849.887 269.567 849.717Z"/>
	<path fill="#345146" d="M178.397 851.177C182.673 850.833 204.325 850.299 207.061 851.727C208.175 852.308 208.208 852.598 208.5 853.712C208.41 853.847 208.337 853.995 208.23 854.117C206.738 855.81 202.904 856.024 200.761 856.371C195.136 856.776 174.771 858.03 171.075 854.965C170.984 853.994 170.814 854.09 171.47 853.22C172.793 851.463 176.372 851.415 178.397 851.177Z"/>
	<path fill="#CD9072" d="M822.439 451.028C834.59 451.045 846.944 450.597 859.066 451.296C892.378 453.218 923.976 464.498 947.891 488.405C982.262 522.765 993.862 574.699 993.655 621.937C993.59 636.849 992.138 651.824 990.101 666.584C980.653 735.025 952.126 801.238 902.532 850.242C846.306 905.799 763.288 943.96 683.5 943.459C634.885 943.154 589.031 926.78 554.72 891.641C550.543 887.363 543.609 877.671 539.677 874.586C529.582 860.534 519.748 846.361 510.12 831.985C536.478 830.794 562.921 829.867 589.298 829.266C604.226 828.925 619.176 828.586 634.084 827.701C638.343 827.448 642.793 827.454 647.02 826.97C648.502 826.8 649.314 826.679 650.443 825.692C650.537 824.324 650.604 824.052 649.978 822.855C646.936 820.901 641.581 822.294 638.233 823.014L637.767 823.118C637.086 818.711 636.963 814.39 637.11 809.941C638.378 808.37 639.777 806.864 640.571 804.991C634.692 802.85 591.201 805.653 581.766 806.039C571.988 789.115 564.784 772.209 559.086 753.527L679.458 748.967C679.419 752.536 678.98 756.655 680.487 759.983C681.498 762.216 683.123 763.499 685.422 764.229C688.156 765.098 691.115 765.401 693.977 765.471C700.762 765.638 707.66 765.134 714.445 764.897C728.446 764.408 742.45 763.815 756.457 763.502L826.635 761.484C842.243 760.969 858.098 760.72 873.649 759.391C875.669 759.218 880.476 758.949 882.021 757.675C883.854 756.163 884.467 750.932 884.693 748.635C885.711 738.332 884.724 727.356 884.495 716.982L883.575 662.284L882.514 573.064C882.411 557.933 883.484 542.268 882.318 527.218C882.078 524.118 881.038 520.953 878.924 518.608C876.791 516.243 873.129 515.149 870.08 514.733C864.354 513.953 858.318 514.654 852.567 514.905C843.162 515.316 833.6 515.847 824.191 515.626C823.201 507.642 823.454 499.466 823.281 491.433L822.439 451.028Z"/>
	<path fill="#FEFEFE" d="M769.194 331.287C776.457 330.805 785.749 329.364 791.708 334.473C795.929 338.092 796.25 343.308 796.659 348.542C797.375 357.687 797.247 366.977 797.385 376.151L798.21 414.866L801.509 553.39L803.746 651.307C804.078 665.948 805.768 681.041 804.724 695.631C804.32 701.264 802.575 706.053 798.759 710.297C795.124 714.339 789.89 717.086 784.519 717.85C778.473 718.709 772.329 718.471 766.239 718.627C757.233 718.858 748.229 719.25 739.227 719.593L634.717 723.427L310.86 735.717C311.671 723.364 312.521 711.431 312.472 699.029C332.94 697.781 353.605 696.979 374.109 696.493C386.642 696.196 399.634 696.659 412.093 695.237C415.086 694.895 419.288 694.337 421.597 692.309C424.852 689.451 426.183 684.103 426.381 679.959C426.749 672.241 426.195 664.23 425.983 656.501L424.815 615.254L424.143 584.044C424.008 578.017 424.119 571.789 423.384 565.802C423.083 563.342 422.09 560.872 420.33 559.09C413.526 552.203 392.22 555.352 382.875 555.534C373.424 555.668 363.885 556.392 354.424 556.704C343.271 557.071 295.412 557.138 288.094 560.206C285.146 561.443 282.36 563.728 281.19 566.783C280.166 569.455 279.984 572.833 279.96 575.688C279.907 582.051 280.437 588.474 280.635 594.841L281.668 634.108L282.301 665.31C282.393 671.43 282.117 677.754 282.678 683.842C283.043 687.807 284.033 691.002 285.749 694.565C277.713 698.703 270.163 703.877 263.154 709.565C252.109 694.483 238.229 687.215 220.446 682.557C220.044 679.294 219.976 675.947 219.83 672.663C218.913 652.028 218.851 631.324 218.305 610.673L214.661 475.329L212.998 414.26C212.464 399.885 210.821 384.691 212.198 370.348C212.641 365.731 214.701 361.08 217.913 357.723C221.228 354.26 225.364 352.035 230.121 351.428C237.935 350.43 245.866 350.45 253.732 350.205L287.52 349.085L404.508 344.843L769.194 331.287Z"/>
	<path fill="#345146" d="M278.696 369.026C280.12 369.128 281.609 369.193 282.996 369.547C285.774 370.255 288.458 372.205 289.812 374.754C291.088 377.157 291.231 380.051 290.336 382.602C288.955 386.535 286.287 388.124 282.786 389.886C280.677 389.995 278.616 389.852 276.64 389.033C273.936 387.913 271.804 385.594 270.847 382.839C269.929 380.199 270.071 377.254 271.305 374.741C272.87 371.555 275.445 370.094 278.696 369.026Z"/>
	<path fill="#345146" d="M306.647 368.583C308.355 368.304 310.265 368.18 311.978 368.498C314.929 369.046 317.723 370.8 319.349 373.34C320.817 375.634 321.271 378.419 320.624 381.064C319.721 384.755 317.351 386.818 314.261 388.762C312.553 389.255 310.887 389.596 309.101 389.322C306.423 388.91 303.938 387.521 302.332 385.322C300.543 382.873 299.916 379.785 300.456 376.818C301.196 372.756 303.343 370.788 306.647 368.583Z"/>
	<path fill="#345146" d="M338.949 366.463C340.317 366.539 341.705 366.765 343.002 367.215C345.731 368.161 348.07 369.761 349.324 372.435C350.494 374.933 350.525 377.837 349.607 380.417C348.069 384.742 345.199 386.67 341.304 388.603C339.696 388.303 338.01 387.936 336.49 387.328C333.723 386.22 331.277 383.662 330.215 380.889C329.274 378.432 329.318 375.654 330.402 373.252C332.107 369.474 335.219 367.803 338.949 366.463Z"/>
	<path fill="#345146" d="M554.251 396.778C556.701 396.657 559.154 396.532 561.606 396.474C567.097 396.343 570.331 397.826 574.252 401.565C576.937 413.503 576.395 435.508 576.695 448.268L578.801 511.677C579.047 518.401 580.097 527.894 574.935 533.092C572.65 535.392 569.507 535.962 566.42 536.415C554.92 538.1 542.909 537.562 531.289 538.14C505.653 539.415 480.038 540.909 454.375 541.516C449.52 541.758 444.066 542.304 439.731 539.604C436.719 537.728 435.27 534.684 434.598 531.298C433.425 525.381 433.785 518.489 433.566 512.451C432.973 496.089 432.88 479.717 432.521 463.349C432.294 453.04 431.886 442.735 431.515 432.43C431.3 426.465 430.837 420.374 431.152 414.411C431.297 411.665 431.987 405.538 433.916 403.507C435.829 401.494 441.932 400.677 444.668 400.382C457.101 399.042 469.84 399.498 482.343 399.113L554.251 396.778Z"/>
	<path fill="#FEFEFE" d="M555.584 401.209C559.475 400.74 564.987 400.336 568.205 402.989C570.196 404.63 570.475 407.338 570.758 409.749C571.347 414.779 571.183 420.023 571.294 425.083C571.499 434.525 571.664 443.968 571.991 453.406L573.464 495.253C573.755 503.065 574.438 510.994 574.21 518.806C574.128 521.625 574.163 526.381 572.326 528.599C570.759 530.491 568.678 531.013 566.348 531.385C554.56 533.265 541.829 532.66 529.883 533.171L454.124 536.762C450.504 537.093 444.342 537.097 441.477 534.686C439.488 533.013 439.366 530.409 439.041 527.989C438.209 521.783 438.467 515.329 438.308 509.07L437.393 474.356L436.393 437.87C436.127 430.191 435.413 422.283 435.788 414.616C435.909 412.153 436.194 409.485 437.866 407.532C439.187 405.988 441.341 405.776 443.241 405.548C455.13 404.118 467.662 404.659 479.64 404.353C492.408 404.026 505.184 403.367 517.949 402.908C530.487 402.458 543.078 402.226 555.584 401.209Z"/>
	<path fill="#9FC09E" d="M503.303 424.369C510.989 426.551 550.833 450.452 557.921 455.785C559.38 456.882 560.512 458.323 561.634 459.748C554.193 460.656 546.705 460.443 539.225 460.703C528.842 461.064 518.486 461.704 508.125 462.452C496.351 462.667 484.495 463.273 472.752 464.112C468.632 464.406 457.317 466.107 453.738 465.432C453.332 465.355 453.023 465.018 452.665 464.811L452.622 463.775C453.476 462.337 454.484 461.325 455.747 460.231C461.148 455.554 467.476 451.657 473.205 447.358C483.306 439.779 493.131 431.867 503.303 424.369Z"/>
	<path fill="#9FC09E" d="M538.612 467.286C542.035 467.026 545.488 466.93 548.917 466.756C550.39 483.001 550.184 499.649 550.5 515.954C524.691 517.485 498.792 518.44 472.947 519.158L464.095 519.516C462.153 503.666 462.386 487.197 461.811 471.241L538.612 467.286Z"/>
	<path fill="#FEFEFE" d="M482.507 475.694C483.483 475.867 484.414 476.122 485.366 476.391C487.846 479.353 486.992 496.169 487.003 500.412C486.013 500.096 485.217 499.705 484.319 499.182C481.282 492.995 482.519 482.448 482.507 475.694Z"/>
	<path fill="#FEFEFE" d="M507.21 474.717C507.966 474.85 509.395 474.877 509.935 475.426C512.71 478.244 512.054 494.377 511.869 498.731C511.045 498.488 509.837 498.347 509.265 497.682C506.062 493.953 507.241 479.952 507.21 474.717Z"/>
	<path fill="#FEFEFE" d="M519.268 473.787C520.392 473.874 521.252 473.998 522.304 474.409C524.637 478.438 523.838 492.624 523.984 497.919C522.503 497.824 521.953 497.971 520.766 497.032C518.064 490.722 519.319 480.718 519.268 473.787Z"/>
	<path fill="#FEFEFE" d="M495 475.339C495.946 475.407 496.718 475.562 497.623 475.844C501.018 479.701 499.593 493.916 499.552 499.349C498.687 499.17 497.923 498.929 497.088 498.645C493.603 494.142 495.025 481.038 495 475.339Z"/>
	<path fill="#345146" d="M560.594 548.712C560.724 548.696 560.853 548.677 560.982 548.666C566.055 548.237 572.41 548.07 576.523 551.573C580.691 555.122 580.72 564.327 580.949 569.381C582.007 592.772 582.422 616.243 583.044 639.652C583.327 650.275 584.654 665.95 583.697 676.023C583.39 679.245 582.534 683.066 580.152 685.438C577.58 687.998 570.594 688.652 567.084 689.056C554.819 690.467 542.094 689.98 529.74 690.457L459.227 693.543C453.739 693.911 447.536 693.819 443.109 690.098C439.393 686.974 438.758 681.924 438.343 677.322C436.321 654.877 437.128 631.91 436.661 609.379C436.373 595.487 434.47 580.83 435.9 567.039C436.259 563.576 437.243 559.868 439.611 557.207C441.622 554.947 444.584 554.334 447.462 553.878C459.932 551.904 473.21 552.357 485.834 551.877C510.746 550.929 535.705 550.121 560.594 548.712Z"/>
	<path fill="#FEFEFE" d="M563.867 553.723C565.593 553.718 567.253 553.751 568.943 554.147C571.335 554.707 573.523 555.675 574.712 557.949C576.281 560.951 579.06 657.817 578.889 668.302C578.82 672.532 578.683 677.322 577.285 681.352C575.214 682.95 573.014 683.518 570.45 683.913C559.382 685.62 547.552 685.108 536.354 685.534L493.924 687.436C481.377 687.882 468.705 687.947 456.193 688.914C453.043 688.843 449.43 688.9 446.803 686.896C444.38 685.048 443.982 682.481 443.607 679.638C441.693 665.146 442.452 645.089 442.071 630.076L441.242 591.856C441.04 584.061 440.394 576.019 440.788 568.245C440.897 566.093 441 563.527 442.458 561.808C444.297 559.637 446.921 559.106 449.591 558.665C460.658 556.834 472.354 557.279 483.561 556.872C510.245 555.903 537.262 555.798 563.867 553.723Z"/>
	<path fill="#CD9072" d="M509.679 572.792C524.132 583.892 539.695 593.547 554.144 604.653C556.179 606.218 558.837 608.276 559.201 610.974L558.529 611.802C554.638 612.475 552.059 610.881 548.661 609.214C549.068 626.78 548.666 644.425 550.027 661.955L528.041 663.04C528.018 654.632 528.427 645.091 527.126 636.822L526.34 636.32L518.257 636.58C518.631 646.123 518.91 655.55 518.39 665.093C515.731 656.575 516.713 645.532 516.587 636.602L509.948 636.675C508.442 636.99 507.872 636.864 507.037 638.261C504.141 643.108 509.1 661.045 506.282 663.862C503.778 661.006 505.084 641.832 504.745 637.084C502.239 637.006 499.5 637.145 497.044 636.659L496.349 637.08C494.806 639.106 496.43 659.579 496.528 663.949L475.04 665.047L473.883 633.499C473.638 626.135 473.793 618.658 472.948 611.339C470.188 612.652 467.382 615.466 464.253 615.359C462.647 614.33 462.346 613.264 461.471 611.596C477.276 598.406 493.275 585.232 509.679 572.792Z"/>
	<path fill="#FEFEFE" d="M495.464 626.088C497.442 625.772 500.589 624.918 502.498 625.65C504.001 626.227 504.188 627.237 504.794 628.562C504.502 630.912 504.543 633.203 504.589 635.563L495.735 635.587C495.406 632.474 495.511 629.224 495.464 626.088Z"/>
	<path fill="#FEFEFE" d="M517.979 625.36C520.996 625.195 524.015 624.989 527.037 624.986C527.163 627.781 528.027 632.709 526.104 634.927C523.869 634.958 521.633 635.09 519.4 635.19L518.251 634.642C517.429 631.631 517.784 628.443 517.979 625.36Z"/>
	<path fill="#FEFEFE" d="M505.879 627.418C506.309 626.392 506.305 626.128 507.412 625.708C509.925 624.755 513.612 625.207 516.294 625.292C516.439 628.147 517.167 631.574 516.107 634.247C514.781 635.335 513.924 635.219 512.246 635.422L509.568 635.547C508.114 635.356 507.959 635.31 506.846 634.362C505.785 632.243 505.961 629.747 505.879 627.418Z"/>
	<path fill="#345146" d="M394.742 401.787C400.891 401.417 411.242 399.749 416.282 403.852C419.595 406.548 419.798 411.131 420.065 415.058C420.679 424.083 420.392 433.203 420.535 442.248L421.482 489.606C421.754 503.219 423.685 518.28 422.347 531.727C422.04 534.809 420.782 537.426 418.676 539.691C416.44 542.096 411.5 542.7 408.358 543.126C397.138 544.649 385.534 544.218 374.222 544.671C350.369 545.624 326.449 546.549 302.618 547.947C297.642 548.047 292.671 548.284 287.7 548.498C285.997 547.567 284.333 546.591 282.8 545.394C279.328 542.683 278.393 539.31 277.92 535.094C277.081 527.607 277.291 519.805 277.073 512.262L276.102 462.382L275.42 433.867C275.282 428.376 274.828 422.627 275.359 417.159C275.658 414.075 276.465 410.965 278.526 408.568C280.66 406.087 284.736 405.638 287.839 405.241C299.112 403.799 310.835 404.376 322.199 404.053C346.372 403.367 370.586 402.858 394.742 401.787Z"/>
	<path fill="#CD9072" d="M399.441 406.289C402.814 406.051 406.824 405.418 410.104 406.414C412.011 406.993 413.461 408.031 414.369 409.835C415.187 411.462 415.439 413.41 415.511 415.209C415.719 420.419 415.422 425.673 415.526 430.891L416.593 476.797C416.941 492.896 418.058 509.279 417.672 525.352C417.589 528.783 417.452 532.447 416.304 535.7C414.318 537.698 408.925 538.33 406.15 538.649C391.618 540.32 376.379 539.928 361.749 540.415C340.445 541.124 319.173 542.363 297.875 543.195L288.437 543.512C287.656 542.965 286.891 542.38 286.162 541.764C283.339 539.374 283.11 535.614 282.8 532.127C281.352 515.885 281.981 499.257 281.536 482.947C280.956 461.729 279.33 440.229 280.488 419.013C280.601 416.937 280.607 413.727 281.958 412.098C284.907 410.623 288.145 410.052 291.406 409.728C300.406 408.836 309.718 409.224 318.76 408.994L367.743 407.557C378.285 407.237 388.931 407.209 399.441 406.289Z"/>
	<path fill="#FEFEFE" d="M344.46 427.955C360.48 438.185 375.35 450.701 390.499 462.203C390.771 482.726 392.522 503.328 393.538 523.833C379.989 524.455 366.433 525.179 352.875 525.533C337.919 526.161 323.028 527.159 308.052 527.515C306.827 519.454 307.06 510.81 306.805 502.665C306.419 490.33 305.841 477.981 306.096 465.639C310.944 457.706 319.204 451.44 326.001 445.212C332.214 439.52 338.362 433.772 344.46 427.955Z"/>
	<path fill="#CD9072" d="M341.524 447.395L345.008 443.765C354.896 451.015 365.681 458.218 374.524 466.698C374.758 470.484 375.192 474.38 374.914 478.165C375.788 489.679 376.867 501.357 376.715 512.91L375.995 513.302L376.301 514.37L376.526 513.599L376.064 513.756L376.324 514.396L375.928 513.72L376.29 514.261L376.394 513.504L375.817 513.329C375.025 509.6 374.835 505.752 374.575 501.957C366.211 501.712 357.824 501.869 349.459 501.98C349.632 507.978 350.136 513.979 349.482 519.959C347.882 514.032 347.653 508.335 347.465 502.24L323.465 502.765C323.721 508.8 324.301 515.033 323.343 521.015C321.285 510.389 321.22 499.232 320.764 488.436C320.51 482.411 319.962 476.207 320.075 470.193C320.121 467.788 321.018 467.358 322.636 465.701C328.744 459.45 335.153 453.378 341.524 447.395Z"/>
	<path fill="#FEFEFE" d="M340.731 485.487C342.679 485.495 344.141 485.211 345.838 486.273C347.933 490.108 346.911 495.723 347.097 500.069C339.261 500.195 331.371 500.508 323.538 500.27C323.383 495.459 323.229 490.653 322.949 485.847C328.716 486.41 334.954 485.856 340.731 485.487Z"/>
	<path fill="#FEFEFE" d="M373.041 484.742C374.015 485.922 374.208 497.384 374.558 500.067C366.555 500.236 358.492 500.606 350.498 500.131L349.811 499.858C348.037 496.346 348.551 489.526 348.44 485.488C356.632 485.467 364.853 485.023 373.041 484.742Z"/>
	<path fill="#FEFEFE" d="M343.03 448.552L344.186 448.395C345.341 452.924 344.968 458.541 345.295 463.248L346.313 483.523L338.533 483.773C334.3 483.854 329.959 483.745 325.764 484.341C325.43 484.296 324.963 484.245 324.649 484.155C323.824 483.918 323.564 483.878 323.235 483.081C322.152 480.451 321.407 470.947 322.56 468.324C330.159 462.771 336.975 455.743 343.03 448.552Z"/>
	<path fill="#FEFEFE" d="M346.525 447.799C351.398 451.207 355.943 455.015 360.653 458.637C364.7 461.748 368.913 464.543 372.463 468.244C372.737 473.001 372.88 477.803 373.311 482.545C364.923 482.545 356.493 483.027 348.108 483.313C347.186 475.286 347.156 467.039 346.767 458.962C346.552 455.226 346.337 451.541 346.525 447.799Z"/>
	<path fill="#345146" d="M710.927 390.785C716.929 390.439 728.933 388.88 733.237 393.988C735.121 396.224 735.35 403.591 735.567 406.471C737.321 429.85 737.185 453.391 737.933 476.82L738.771 503.071C738.931 508.219 739.445 513.738 738.819 518.852C738.488 521.561 737.321 523.949 735.488 525.961C732.829 528.88 728.827 529.345 725.088 529.884C712.174 531.745 698.685 531.127 685.654 531.643L613.376 535.069C610.016 535.335 606.639 535.653 603.274 535.296C599.336 534.878 595.055 533.477 592.727 530.027C591.252 527.84 591.061 522.946 590.845 520.302C588.901 496.472 589.221 472.405 588.519 448.513C588.145 435.76 585.802 412.684 588.018 400.867C588.109 400.767 588.197 400.666 588.29 400.569C590.539 398.214 592.651 396.301 595.881 395.535C606.457 393.027 622.698 393.951 633.976 393.581L710.927 390.785Z"/>
	<path fill="#77C6D3" d="M719.733 395.793C721.727 395.61 724.262 395.136 726.195 395.74C727.824 396.248 729.203 397.462 729.811 399.064C731.247 402.847 731.949 454.115 732.256 462.743C732.852 479.512 734.463 496.4 733.94 513.181C733.839 516.432 733.706 520.031 732.089 522.921C729.522 524.41 725.976 524.898 723.034 525.168C709.572 526.401 695.646 526.216 682.101 526.769L604.875 530.191C604.69 530.198 604.505 530.212 604.32 530.21C600.547 530.174 598.617 528.273 596.074 525.799C594.561 504.327 594.597 482.73 593.754 461.225C593.141 445.575 590.209 415.928 593.009 401.84C605.59 398.077 625.755 399.183 639.275 398.76C666.068 397.92 692.981 397.454 719.733 395.793Z"/>
	<path fill="#345146" d="M661.043 418.046C663.154 417.978 665.082 417.938 667.1 418.665C675.106 421.55 682.173 426.885 689.336 431.362C697.828 436.67 706.382 441.84 714.814 447.248L709.017 451.514L681.249 433.451C675.634 429.805 670.076 425.898 664.17 422.739C653.572 427.434 627.038 445.252 618.81 453.423C616.923 452.088 614.779 451.002 612.777 449.841C621.935 441.518 650.057 423.092 661.043 418.046Z"/>
	<path fill="#FEFEFE" d="M663.78 425.41C670.03 426.139 693.572 444.909 699.054 449.684C700.792 465.344 700.538 481.595 701.03 497.343C688.572 497.729 676.072 498.751 663.624 499.464L628.232 501.043L625.939 455.893C636.881 443.892 650.385 434.448 663.78 425.41Z"/>
	<path fill="#77C6D3" d="M685.778 455.701C687.836 455.341 690.134 455.366 692.231 455.21C693.292 459.554 693.073 464.032 693.037 468.469C690.402 468.672 687.763 468.823 685.125 468.98L676.754 469.195C676.209 464.961 676.056 460.824 676.014 456.557L685.778 455.701Z"/>
	<path fill="#77C6D3" d="M666.605 457.292L672.888 456.831C673.188 461.038 673.378 465.236 673.519 469.451L659.377 470.21C657.573 470.397 655.789 470.819 654.145 469.865C651.576 466.945 652.424 461.764 652.464 458.046C657.165 458.059 661.912 457.592 666.605 457.292Z"/>
	<path fill="#77C6D3" d="M684.095 472.289C687.163 472.049 690.263 471.995 693.339 471.866C693.457 478.22 693.693 484.57 693.919 490.921C691.08 491.263 688.229 491.395 685.376 491.554L677.456 492.053C677.086 485.55 676.994 479.029 676.828 472.519C679.252 472.533 681.675 472.393 684.095 472.289Z"/>
	<path fill="#77C6D3" d="M642.218 474.294L649.965 473.846C650.098 480.381 650.369 486.912 650.624 493.444C647.214 493.742 643.794 493.896 640.376 494.073L634.319 494.254L633.449 474.709L642.218 474.294Z"/>
	<path fill="#77C6D3" d="M662.712 473.281L673.654 472.789C674.2 479.282 674.274 485.802 674.431 492.313L664.988 492.943L654.053 493.26C653.74 486.671 653.409 480.087 652.973 473.505L662.712 473.281Z"/>
	<path fill="#77C6D3" d="M663.467 434.404C669.144 435.191 684.182 447.938 689.315 451.922C684.79 452.569 680.276 452.902 675.712 453.139C675.665 450.719 675.914 447.643 674.242 445.707L673.537 446.163C672.636 448.484 672.906 450.965 672.955 453.416C666.1 454.376 659.024 454.406 652.113 454.676C651.949 452.074 651.989 448.681 650.751 446.37L649.828 446.194C648.19 454.129 649.118 462.431 649.596 470.461C644.335 471.401 638.71 471.453 633.373 471.511C633.063 467.292 632.899 463.054 632.671 458.829C636.353 455.694 640.382 452.909 644.168 449.892C650.624 444.747 656.917 439.438 663.467 434.404Z"/>
	<path fill="#345146" d="M726.903 541.715C730.567 541.343 734.112 541.487 737.143 543.808C740.759 546.579 742.12 551.249 742.549 555.598C743.336 563.58 742.919 571.821 742.963 579.846C743.015 589.342 743.437 598.889 743.713 608.385L744.857 644.382C745.175 652.466 745.941 660.832 745.476 668.913C745.293 672.088 745.037 675.179 742.846 677.665C740.807 679.978 738.251 681.151 735.252 681.65C729.575 682.594 723.773 682.467 718.036 682.646L692.728 683.479C665.497 684.384 638.319 685.443 611.115 686.979C606.949 686.973 602.218 687.169 598.889 684.21C595.456 681.159 594.584 675.766 594.312 671.404C593.055 651.224 593.575 630.7 592.984 610.454L592.088 581.688C591.833 574.888 591.212 567.853 591.712 561.072C591.964 557.655 592.39 554.33 594.845 551.74C597.304 549.145 600.791 547.612 604.262 546.975C613.662 545.249 629.453 545.747 639.599 545.321C668.692 544.099 697.829 543.3 726.903 541.715Z"/>
	<path fill="#77C6D3" d="M720.37 547.297C724.384 546.961 730.553 545.74 734.141 547.899C735.501 548.718 735.951 549.603 736.326 551.103C737.986 557.758 737.421 565.093 737.622 571.906L738.64 603.755C739.307 623.975 741.288 645.92 740.692 665.933C740.616 668.482 740.544 672.266 738.95 674.352C737.356 676.436 734.137 676.799 731.739 677.102C719.121 678.697 706.151 678.08 693.449 678.56L614.876 682.082C612.91 682.204 610.939 682.318 608.969 682.291C606.298 682.254 603.236 681.865 601.348 679.749C599.919 678.149 599.728 675.69 599.502 673.636C597.452 655.07 598.082 635.821 597.677 617.148C597.246 597.271 595.921 577.455 596.523 557.564C597.599 555.779 598.919 554.287 600.285 552.728C610.702 550.115 624.733 551.152 635.67 550.675L720.37 547.297Z"/>
	<path fill="#345146" d="M668.452 570.748C683.386 579.247 697.983 588.232 712.755 597C717.149 599.607 723.98 602.534 727.791 605.294C728.69 605.946 728.967 606.43 729.324 607.473C729.735 608.673 729.898 611.081 729.338 612.222C729.046 612.815 728.43 612.811 727.851 612.998C724.872 612.61 722.007 610.774 719.33 609.452C713.633 605.47 707.317 602.152 701.294 598.68L668.514 580.095C655.492 588.291 642.153 596.24 629.496 604.982C624.953 607.628 620.557 610.696 615.828 612.986C614.918 611.286 614.004 609.589 613.141 607.864C631.107 594.757 650.047 583.2 668.452 570.748Z"/>
	<path fill="#FEFEFE" d="M668.514 580.095L701.294 598.68C707.317 602.152 713.633 605.47 719.33 609.452C720.055 627.647 721.121 645.833 722.059 664.019C691.676 664.104 661.331 666.01 630.995 667.547C630.495 646.695 629.58 625.839 629.496 604.982C642.153 596.24 655.492 588.291 668.514 580.095Z"/>
	<path fill="#77C6D3" d="M696.102 612.665C696.766 612.597 697.432 612.524 698.098 612.486C699.653 612.396 700.145 612.642 701.223 613.643L701.054 614.54C699.695 615.515 698.716 615.46 697.124 615.462C694.733 615.635 692.45 616.115 690.347 614.733L690.48 613.958C692.316 612.892 694.032 612.839 696.102 612.665Z"/>
	<path fill="#77C6D3" d="M652.413 614.671C656.49 614.382 659.975 614.053 663.942 615.257L664.299 615.954C663.209 616.92 661.996 616.991 660.615 617.218C656.739 617.516 651.161 618.553 647.694 616.485L647.81 615.729C649.361 614.963 650.703 614.831 652.413 614.671Z"/>
	<path fill="#77C6D3" d="M675.554 613.657C678.396 613.455 683.971 612.584 686.348 614.194L686.401 613.74L687.06 613.992L686.861 615.355L687.03 615.197C685.383 616.384 682.516 616.175 680.523 616.298C676.766 616.665 672.365 617.052 668.778 615.641L668.982 615.147C671.147 614.109 673.207 613.912 675.554 613.657Z"/>
	<path fill="#77C6D3" d="M691.872 621.501C694.892 621.352 698.173 620.768 700.977 622.089C703.323 624.497 702.542 628.764 702.503 631.894C699.515 632.281 696.311 633.114 693.456 631.887C691.043 629.417 691.849 624.727 691.872 621.501Z"/>
	<path fill="#77C6D3" d="M695.617 638.277L702.84 637.982C702.997 640.606 703.914 645.346 702.696 647.671C701.963 649.069 700.858 649.04 699.492 649.373C697.349 649.516 695.204 649.794 693.066 650.016C692.799 647.098 691.581 641.453 693.396 639.025C693.927 638.314 694.795 638.422 695.617 638.277Z"/>
	<path fill="#77C6D3" d="M653.224 623.287C657.13 623.047 661.056 622.955 664.967 622.793L665.459 633.901L660.125 634.443L648.51 634.77L647.948 623.509L653.224 623.287Z"/>
	<path fill="#77C6D3" d="M676.051 622.281C679.799 622.036 683.574 621.962 687.327 621.807L687.6 632.951L680.123 633.365C676.756 633.507 673.392 633.788 670.03 634.031L669.964 622.511L676.051 622.281Z"/>
	<path fill="#77C6D3" d="M664.449 639.193L665.014 639.419C666.387 641.918 665.819 648.237 665.926 651.233C660.615 651.375 655.322 651.494 650.028 651.979C649.959 651.954 649.876 651.951 649.821 651.903C648.464 650.716 648.557 642.275 648.424 640.042C653.75 640.117 659.136 639.553 664.449 639.193Z"/>
	<path fill="#77C6D3" d="M682.999 638.717C684.573 638.496 685.729 638.365 687.121 639.275C689.368 642.096 688.591 646.498 688.523 649.909C684.542 650.469 680.482 650.511 676.467 650.665C675.044 650.835 673.175 651.276 672.018 650.204C669.63 647.99 670.482 642.062 670.475 639.024C674.66 639.05 678.819 638.904 682.999 638.717Z"/>
</svg>
